<svg width="302" height="161" viewBox="0 0 302 161" fill="none" xmlns="http://www.w3.org/2000/svg">
<path opacity="0.1" d="M12.5417 122.655C3.635 123.765 5.51833 124.66 0 126.865V186H301V80.359C301 80.359 292.704 94.8018 286.201 94.1905C276.134 93.2442 280.512 86.0279 270.398 86.5731C262.879 86.9785 261.619 106.102 250.833 105.617C237.208 105.003 242.56 95.4954 229.011 94.1905C219.496 93.2742 219.779 79.3549 210.198 79.1562C195.398 78.8494 193.315 67.4691 180.6 66.5274C150.592 64.305 178.072 28.5735 147.992 30.0442C118.638 31.4793 151.405 89.0191 122.156 86.5731C114.789 85.9571 111.684 80.5516 104.347 81.3613C95.2854 82.3612 96.0337 92.0431 87.29 94.1905C75.8605 96.9976 69.8793 84.5497 58.1933 86.5731C46.9989 88.5114 47.5742 101.983 36.12 102.008C20.6948 102.042 27.783 120.758 12.5417 122.655Z" fill="url(#paint0_linear_0_1)"/>
<path fill-rule="evenodd" clip-rule="evenodd" d="M156.726 31.0078C154.799 30.2621 152.181 29.8724 148.58 30.0495C145.218 30.215 142.846 31.1741 141.124 32.6737C139.372 34.2005 138.205 36.3668 137.477 39.0561C136.015 44.4638 136.424 51.5748 136.858 58.7581L136.873 59.0032C137.296 66.0052 137.723 73.0841 136.199 78.273C135.422 80.9153 134.105 83.2047 131.871 84.7434C129.6 86.3077 126.558 86.9769 122.667 86.6494C119.027 86.3431 116.328 84.944 113.978 83.7258C113.734 83.5994 113.494 83.4748 113.256 83.3537C110.691 82.0431 108.426 81.0736 105.247 81.4266C101.408 81.8529 99.6077 84.0714 97.5516 86.9275C97.4595 87.0555 97.3669 87.1848 97.2734 87.3152C95.3696 89.9729 93.1412 93.0836 88.4708 94.2379C82.1172 95.8083 77.2869 93.0444 72.9976 90.5753L72.9483 90.5469C68.5083 87.991 64.5835 85.7317 59.4165 86.6321C54.6109 87.4694 52.2257 90.7008 49.5635 94.3075C49.4893 94.4081 49.4148 94.5089 49.3401 94.6101C46.7158 98.161 43.6816 102.096 37.1921 102.11C33.7448 102.118 31.6673 103.149 30.165 104.701C28.5853 106.333 27.6128 108.565 26.5729 111.063C26.5329 111.159 26.4928 111.255 26.4526 111.352C25.4776 113.698 24.4204 116.241 22.665 118.318C20.7869 120.54 18.098 122.249 13.9196 122.773C9.53142 123.323 7.97905 123.801 6.8651 124.338C6.45929 124.534 6.12302 124.729 5.70869 124.969C5.49415 125.094 5.25869 125.23 4.98181 125.386C4.20555 125.821 3.24125 126.317 1.8063 126.894C1.18985 127.142 0.440247 126.941 0.132021 126.445C-0.176205 125.949 0.0736617 125.346 0.690113 125.099C2.00061 124.572 2.86115 124.128 3.55479 123.739C3.75155 123.629 3.9484 123.514 4.14666 123.4C4.61167 123.13 5.08442 122.856 5.58201 122.616C7.1194 121.875 9.06123 121.35 13.5354 120.789C16.9398 120.363 19.0564 119.017 20.6009 117.19C22.1581 115.347 23.1185 113.039 24.1327 110.602L24.2061 110.425C25.2171 107.997 26.3071 105.419 28.1956 103.468C30.1617 101.437 32.9582 100.113 37.1852 100.103C42.0929 100.092 44.471 97.2698 47.1946 93.5845C47.3213 93.413 47.4489 93.2395 47.5775 93.0645C50.0794 89.6604 52.9918 85.6977 58.888 84.6704C65.148 83.5796 69.9095 86.325 74.0878 88.7342C74.2091 88.8042 74.3299 88.8738 74.4503 88.9431C78.8868 91.4969 82.7186 93.5598 87.7376 92.3193C91.4499 91.4018 93.2208 88.9397 95.2465 86.1235C95.2947 86.0565 95.3431 85.9892 95.3917 85.9218C97.3924 83.1426 99.7281 80.0132 104.905 79.4383C109.027 78.9806 111.957 80.3121 114.595 81.6594C114.832 81.7806 115.067 81.9017 115.299 82.0218C117.698 83.2589 119.907 84.399 122.927 84.6531C126.311 84.9379 128.617 84.3422 130.247 83.2189C131.915 82.0699 133.054 80.2487 133.77 77.8115C135.212 72.9019 134.799 66.0512 134.365 58.8555C133.937 51.7615 133.49 44.3522 135.039 38.6294C135.817 35.7534 137.122 33.2018 139.29 31.3123C141.49 29.3956 144.488 28.2399 148.428 28.0461C152.31 27.8551 155.385 28.2613 157.808 29.1991C160.252 30.1449 161.939 31.595 163.103 33.349C165.356 36.7438 165.682 41.36 165.994 45.7783L166 45.8699C166.323 50.4456 166.642 54.8678 168.625 58.3027C169.598 59.989 170.961 61.4107 172.914 62.4807C174.871 63.5537 177.496 64.3137 181.065 64.5798C187.479 65.0578 191.389 68.0596 195.047 70.8682C195.284 71.0505 195.521 71.232 195.757 71.412C199.66 74.3889 203.564 77.0779 210.434 77.2213C213.262 77.2803 215.337 78.3774 216.957 79.8722C218.538 81.3307 219.759 83.2366 220.897 85.0251L220.964 85.1307C222.109 86.9316 223.182 88.6201 224.511 89.9343C225.837 91.2466 227.327 92.0939 229.27 92.2822C232.846 92.6288 235.277 93.5342 237.097 94.7624C238.819 95.9251 239.922 97.3371 240.902 98.5922L241.005 98.7245C242.04 100.048 242.961 101.185 244.378 102.061C245.76 102.914 247.714 103.573 250.905 103.718C253.038 103.814 254.779 102.964 256.382 101.371C258.007 99.756 259.346 97.5121 260.643 95.1189C260.9 94.6449 261.156 94.1639 261.412 93.6821C262.419 91.7904 263.43 89.8884 264.535 88.3648C265.881 86.5075 267.655 84.7889 270.218 84.6499C272.915 84.5036 274.825 84.8703 276.282 85.641C277.703 86.3931 278.54 87.4589 279.244 88.3788C279.279 88.4245 279.314 88.4699 279.348 88.515C280.039 89.4187 280.637 90.2012 281.573 90.85C282.516 91.5036 283.879 92.065 286.172 92.2819C287.206 92.3797 288.569 91.873 290.203 90.6407C291.781 89.4509 293.356 87.7771 294.77 86.0347C296.178 84.3011 297.391 82.5428 298.255 81.214C298.686 80.5507 299.028 79.997 299.262 79.6102C299.379 79.4169 299.469 79.2654 299.529 79.1629C299.559 79.1117 299.581 79.0728 299.596 79.047L299.617 79.0117L299.618 79.0102C299.905 78.5065 300.646 78.2855 301.272 78.5168C301.899 78.748 302.173 79.3438 301.886 79.8476L300.752 79.4288C301.886 79.8476 301.886 79.8477 301.886 79.848L301.885 79.8488L301.884 79.8513L301.859 79.8936L301.832 79.9413C301.819 79.9635 301.804 79.9896 301.786 80.0193C301.722 80.1284 301.628 80.287 301.507 80.4879C301.264 80.8896 300.911 81.4609 300.467 82.1439C299.58 83.5075 298.326 85.3264 296.86 87.1319C295.402 88.9284 293.7 90.7552 291.91 92.1049C290.177 93.4121 288.082 94.4836 285.88 94.2753C283.165 94.0185 281.316 93.3213 279.944 92.3706C278.703 91.5104 277.917 90.4781 277.261 89.6171C277.213 89.5541 277.165 89.492 277.119 89.4309C276.402 88.4942 275.815 87.7967 274.91 87.3179C274.04 86.8577 272.721 86.5259 270.386 86.6525C269.209 86.7164 268.019 87.5437 266.691 89.3758C265.672 90.7811 264.742 92.5287 263.743 94.4055C263.478 94.903 263.208 95.4095 262.931 95.9212C261.638 98.3052 260.184 100.783 258.322 102.634C256.437 104.507 253.997 105.868 250.764 105.722C247.176 105.559 244.712 104.798 242.858 103.653C241.039 102.529 239.907 101.09 238.893 99.793L238.858 99.7489C237.83 98.4339 236.91 97.2571 235.492 96.2998C234.094 95.3563 232.136 94.5817 228.971 94.275C226.18 94.0045 224.155 92.7655 222.574 91.2002C221.076 89.7185 219.897 87.8631 218.799 86.1343L218.674 85.9391C217.507 84.1036 216.419 82.4305 215.076 81.1911C213.772 79.9879 212.307 79.2682 210.369 79.2278C202.512 79.0639 198.016 75.9016 194.039 72.8684C193.834 72.7121 193.631 72.5564 193.429 72.4017C189.678 69.5303 186.36 66.9902 180.835 66.5784C176.94 66.2881 173.887 65.4433 171.508 64.1394C169.124 62.8327 167.491 61.1056 166.361 59.1477C164.168 55.3484 163.832 50.5825 163.522 46.1718L163.508 45.9836C163.184 41.3908 162.856 37.2399 160.901 34.2943C159.953 32.8664 158.632 31.7455 156.726 31.0078Z" fill="url(#paint1_linear_0_1)"/>
<path opacity="0.5" d="M131 16.1614C131 12.8477 133.686 10.1614 137 10.1614H164C167.314 10.1614 170 12.8477 170 16.1614V134.161H131V16.1614Z" fill="url(#paint2_linear_0_1)" fill-opacity="0.3"/>
<g filter="url(#filter0_d_0_1)">
<path d="M159 28.6614C159 33.3558 155.194 37.1614 150.5 37.1614C145.806 37.1614 142 33.3558 142 28.6614C142 23.967 145.806 20.1614 150.5 20.1614C155.194 20.1614 159 23.967 159 28.6614Z" fill="white"/>
</g>
<g filter="url(#filter1_d_0_1)">
<path fill-rule="evenodd" clip-rule="evenodd" d="M150.5 32.4864C152.612 32.4864 154.325 30.7739 154.325 28.6614C154.325 26.5489 152.612 24.8364 150.5 24.8364C148.388 24.8364 146.675 26.5489 146.675 28.6614C146.675 30.7739 148.388 32.4864 150.5 32.4864ZM150.5 37.1614C155.194 37.1614 159 33.3558 159 28.6614C159 23.967 155.194 20.1614 150.5 20.1614C145.806 20.1614 142 23.967 142 28.6614C142 33.3558 145.806 37.1614 150.5 37.1614Z" fill="url(#paint3_linear_0_1)"/>
</g>
<path d="M150.5 45.1614V103.394" stroke="url(#paint4_linear_0_1)" stroke-dasharray="2 2"/>
<defs>
<filter id="filter0_d_0_1" x="117" y="0.161377" width="67" height="67" filterUnits="userSpaceOnUse" color-interpolation-filters="sRGB">
<feFlood flood-opacity="0" result="BackgroundImageFix"/>
<feColorMatrix in="SourceAlpha" type="matrix" values="0 0 0 0 0 0 0 0 0 0 0 0 0 0 0 0 0 0 127 0" result="hardAlpha"/>
<feOffset dy="5"/>
<feGaussianBlur stdDeviation="12.5"/>
<feColorMatrix type="matrix" values="0 0 0 0 0 0 0 0 0 0 0 0 0 0 0 0 0 0 0.1 0"/>
<feBlend mode="normal" in2="BackgroundImageFix" result="effect1_dropShadow_0_1"/>
<feBlend mode="normal" in="SourceGraphic" in2="effect1_dropShadow_0_1" result="shape"/>
</filter>
<filter id="filter1_d_0_1" x="117" y="0.161377" width="67" height="67" filterUnits="userSpaceOnUse" color-interpolation-filters="sRGB">
<feFlood flood-opacity="0" result="BackgroundImageFix"/>
<feColorMatrix in="SourceAlpha" type="matrix" values="0 0 0 0 0 0 0 0 0 0 0 0 0 0 0 0 0 0 127 0" result="hardAlpha"/>
<feOffset dy="5"/>
<feGaussianBlur stdDeviation="12.5"/>
<feColorMatrix type="matrix" values="0 0 0 0 0 0 0 0 0 0 0 0 0 0 0 0 0 0 0.1 0"/>
<feBlend mode="normal" in2="BackgroundImageFix" result="effect1_dropShadow_0_1"/>
<feBlend mode="normal" in="SourceGraphic" in2="effect1_dropShadow_0_1" result="shape"/>
</filter>
<linearGradient id="paint0_linear_0_1" x1="150.5" y1="30" x2="150.5" y2="186" gradientUnits="userSpaceOnUse">
<stop stop-color="#86FE9D"/>
<stop offset="1" stop-color="#0F3C39" stop-opacity="0"/>
</linearGradient>
<linearGradient id="paint1_linear_0_1" x1="151" y1="28" x2="151" y2="127" gradientUnits="userSpaceOnUse">
<stop stop-color="#86FE9D"/>
<stop offset="1" stop-color="#4BAE5E"/>
</linearGradient>
<linearGradient id="paint2_linear_0_1" x1="151" y1="18.6614" x2="150.5" y2="134.161" gradientUnits="userSpaceOnUse">
<stop offset="0.0104167" stop-color="#86FE9D" stop-opacity="0"/>
<stop offset="0.462981" stop-color="#86FE9D"/>
<stop offset="0.666667" stop-color="#4BAE5E"/>
<stop offset="0.984375" stop-color="#4BAE5E" stop-opacity="0"/>
</linearGradient>
<linearGradient id="paint3_linear_0_1" x1="150.5" y1="20.1614" x2="150.5" y2="37.1614" gradientUnits="userSpaceOnUse">
<stop stop-color="#86FE9D"/>
<stop offset="1" stop-color="#4BAE5E"/>
</linearGradient>
<linearGradient id="paint4_linear_0_1" x1="151" y1="45.1614" x2="151" y2="103.394" gradientUnits="userSpaceOnUse">
<stop stop-color="white" stop-opacity="0"/>
<stop offset="0.510417" stop-color="white"/>
<stop offset="1" stop-color="white" stop-opacity="0"/>
</linearGradient>
</defs>
</svg>
