<?xml version="1.0" encoding="UTF-8"?>
<svg id="Layer_2" data-name="Layer 2" xmlns="http://www.w3.org/2000/svg" viewBox="0 0 1838.93 756.09">
  <defs>
    <style>
      .cls-1 {
        opacity: .9;
      }

      .cls-1, .cls-2, .cls-3, .cls-4, .cls-5, .cls-6, .cls-7, .cls-8, .cls-9, .cls-10, .cls-11, .cls-12, .cls-13, .cls-14, .cls-15, .cls-16, .cls-17, .cls-18, .cls-19, .cls-20, .cls-21, .cls-22, .cls-23, .cls-24, .cls-25, .cls-26, .cls-27, .cls-28, .cls-29, .cls-30, .cls-31, .cls-32, .cls-33, .cls-34, .cls-35, .cls-36, .cls-37, .cls-38 {
        fill: #5aba47;
      }

      .cls-2 {
        opacity: .71;
      }

      .cls-3 {
        opacity: .86;
      }

      .cls-4 {
        opacity: .78;
      }

      .cls-5 {
        opacity: .96;
      }

      .cls-6 {
        opacity: .77;
      }

      .cls-7 {
        opacity: .87;
      }

      .cls-8 {
        opacity: .92;
      }

      .cls-9 {
        opacity: .75;
      }

      .cls-10 {
        opacity: .83;
      }

      .cls-11 {
        opacity: .79;
      }

      .cls-12 {
        opacity: .64;
      }

      .cls-13 {
        opacity: .98;
      }

      .cls-14 {
        opacity: .65;
      }

      .cls-15 {
        opacity: .66;
      }

      .cls-16 {
        opacity: .67;
      }

      .cls-17 {
        opacity: .88;
      }

      .cls-18 {
        opacity: .72;
      }

      .cls-19 {
        opacity: .81;
      }

      .cls-20 {
        opacity: .68;
      }

      .cls-21 {
        opacity: .63;
      }

      .cls-22 {
        opacity: .89;
      }

      .cls-23 {
        opacity: .74;
      }

      .cls-24 {
        opacity: .93;
      }

      .cls-25 {
        opacity: .91;
      }

      .cls-26 {
        opacity: .8;
      }

      .cls-27 {
        opacity: .82;
      }

      .cls-28 {
        opacity: .99;
      }

      .cls-29 {
        opacity: .85;
      }

      .cls-30 {
        opacity: .7;
      }

      .cls-32 {
        opacity: .76;
      }

      .cls-33 {
        opacity: .84;
      }

      .cls-34 {
        opacity: .69;
      }

      .cls-35 {
        opacity: .97;
      }

      .cls-36 {
        opacity: .73;
      }

      .cls-37 {
        opacity: .94;
      }

      .cls-38 {
        opacity: .95;
      }
    </style>
  </defs>
  <g id="Layer_1-2" data-name="Layer 1">
    <path class="cls-31" d="M13.12,739.91c-.16.09-.37.09-.55,0-.29-.15-.41-.51-.26-.8l75.74-150.81c.15-.29.5-.41.8-.26.29.15.41.51.26.8L13.37,739.65c-.06.11-.15.2-.25.26Z"/>
    <path class="cls-31" d="M38.83,742.19c-.27.14-.62.1-.85-.12-.28-.28-.29-.74,0-1.03l108.09-109.51c.29-.29.74-.28,1.03,0,.28.28.29.74,0,1.03l-108.09,109.51c-.05.05-.11.1-.18.13Z"/>
    <path class="cls-31" d="M71.04,329.39L0,348.07v1.23l71.34-18.76s.09-.03.13-.05c.24-.13.37-.41.3-.68-.08-.32-.41-.51-.72-.42Z"/>
    <path class="cls-31" d="M59.02,385.22c-.27-.53-.92-.75-1.46-.48L0,413.67v2.43l58.53-29.42s.01,0,.02-.01c.52-.27.73-.92.46-1.45Z"/>
    <path class="cls-31" d="M160.98,480.61L0,508.08v1.73l161.26-27.52c.09-.01.18-.05.26-.09.32-.17.51-.52.44-.9-.08-.47-.52-.78-.98-.7Z"/>
    <path class="cls-31" d="M147.2,633.2c-.6.32-1.35.13-1.72-.45-.4-.61-.22-1.43.39-1.82l85.63-55.5c.59-.42,1.42-.23,1.82.39.4.61.22,1.43-.39,1.82l-85.63,55.5s-.07.04-.1.06Z"/>
    <path class="cls-31" d="M107.04,684.85c-.27.14-.61.12-.86-.07-.35-.27-.42-.77-.15-1.12l39.92-52.1c.28-.34.77-.42,1.12-.15.35.27.42.77.15,1.12l-39.92,52.1c-.07.09-.16.17-.26.22Z"/>
    <path class="cls-31" d="M21.83,149.78l-21.83,4.45v1.42l22.11-4.51c.07-.01.13-.04.19-.07.27-.14.42-.45.36-.76-.08-.38-.44-.62-.82-.54Z"/>
    <path class="cls-31" d="M140.56,251.17c-.05.03-.11.05-.17.07l-104.37,26.66c-.42.11-.84-.15-.94-.56-.11-.42.16-.83.56-.94l104.37-26.66c.42-.11.84.15.94.56.09.35-.08.71-.39.88Z"/>
    <path class="cls-31" d="M71.45,330.47c-.25.13-.57.06-.74-.19l-35.35-52.82c-.18-.26-.1-.61.16-.79.31-.2.62-.1.79.16l35.35,52.82c.18.26.1.61-.16.79-.02.01-.03.02-.05.03Z"/>
    <path class="cls-31" d="M195.14,271.23s-.02,0-.02.01l-123.65,59.31c-.32.15-.71.02-.86-.3-.15-.32,0-.67.3-.86l123.65-59.31c.32-.15.71-.02.86.3.15.31.02.69-.28.85Z"/>
    <path class="cls-31" d="M71.44,330.45c-.19.1-.44.08-.61-.07-.22-.2-.25-.54-.05-.77l69.01-79.48c.2-.21.54-.25.77-.05.22.2.25.54.05.77l-69.01,79.48s-.1.09-.15.12Z"/>
    <path class="cls-31" d="M221.05,368.11c-.07.03-.14.06-.21.06l-162.73,18.13c-.33.04-.62-.2-.66-.53-.03-.33.2-.62.53-.66l162.73-18.13c.33-.04.62.2.66.53.03.25-.1.48-.31.59Z"/>
    <path class="cls-31" d="M149.16,416.53c-.24.13-.54.1-.75-.09l-88.3-76.76c-.28-.24-.31-.67-.07-.95.24-.29.67-.31.95-.07l88.3,76.76c.28.24.31.67.07.95-.06.07-.12.12-.19.15Z"/>
    <path class="cls-31" d="M60.94,339.93c-.28.15-.64.13-.91-.07l-11.06-8.29c-.38-.28-.45-.82-.17-1.2.28-.37.82-.45,1.2-.17l11.06,8.29c.38.28.45.82.17,1.2-.08.1-.17.18-.28.24Z"/>
    <path class="cls-31" d="M223.21,501.14c-.21.11-.46.14-.71.07l-61.65-18.87c-.49-.15-.77-.67-.62-1.16.15-.5.67-.77,1.16-.62l61.65,18.87c.49.15.77.67.62,1.16-.07.25-.24.44-.45.55Z"/>
    <path class="cls-31" d="M232.6,577.27c-.39.21-.88.07-1.1-.31-.23-.39-.1-.9.3-1.13l144.56-84.77s.02-.01.03-.02c.39-.21.88-.07,1.1.31.23.39.1.9-.3,1.13l-144.56,84.77s-.02.01-.03.02Z"/>
    <path class="cls-31" d="M232.64,577.34c-.43.23-.97.07-1.21-.35-.25-.43-.1-.99.34-1.23l42.04-24c.4-.29.98-.1,1.23.34.25.43.1.99-.34,1.23l-42.04,24s-.02,0-.02.01Z"/>
    <path class="cls-31" d="M274.71,553.38c-.26.14-.59.15-.88,0-.47-.24-.66-.81-.42-1.28l68.24-135.21c.24-.47.81-.66,1.28-.42s.66.81.42,1.28l-68.24,135.22c-.09.18-.24.33-.41.41Z"/>
    <path class="cls-31" d="M274.66,553.29c-.4.21-.9.07-1.13-.32-.24-.41-.11-.93.3-1.17l102.52-60.77c.38-.25.93-.1,1.17.3.24.41.11.93-.3,1.17l-102.52,60.77s-.02.01-.04.02Z"/>
    <path class="cls-31" d="M22.24,150.97c-.16.08-.35.09-.52,0-.28-.14-.4-.48-.26-.76L87.51,16.73c.14-.28.48-.4.76-.26.28.14.4.48.26.76L22.48,150.72c-.06.11-.14.2-.24.25Z"/>
    <path class="cls-31" d="M140.47,250.99c-.11.06-.23.08-.35.06-.31-.05-.52-.34-.48-.65l23-152.2c.05-.31.34-.53.65-.48.31.05.52.34.48.65l-23,152.2c-.03.19-.14.34-.3.42Z"/>
    <path class="cls-31" d="M195.16,271.27c-.17.09-.37.11-.57.04l-54.64-20.17c-.36-.13-.55-.53-.41-.9.13-.36.53-.54.9-.41l54.63,20.17c.36.13.55.53.41.9-.06.17-.18.3-.33.37Z"/>
    <path class="cls-31" d="M195.09,271.14c-.15.08-.33.09-.49,0-.27-.13-.38-.45-.25-.72l69.27-143.47c.13-.27.45-.38.72-.25.27.13.38.45.25.72l-69.27,143.47c-.05.11-.14.19-.23.24Z"/>
    <path class="cls-31" d="M367.7,299.46s-.02,0-.02.01l-146.66,68.63c-.28.13-.62,0-.76-.27-.13-.29.04-.64.27-.76l146.66-68.63c.28-.13.62-.01.76.27.13.28.02.6-.25.74Z"/>
    <path class="cls-31" d="M626.79,616.21s-.05.02-.07.03l-128.97,49.93c-.33.13-.71-.04-.84-.37-.13-.33.06-.71.37-.84l128.97-49.93c.33-.13.71.04.84.37.12.31-.01.65-.3.8Z"/>
    <path class="cls-31" d="M392.71,519.23c-.31.16-.69.12-.96-.13-.33-.31-.35-.84-.03-1.17l78.34-82.93c.31-.34.84-.35,1.17-.03.33.31.35.84.03,1.17l-78.34,82.93c-.06.07-.14.12-.21.16Z"/>
    <path class="cls-31" d="M597.26,532.92c-.09.05-.2.08-.31.08l-149.54-2.79c-.36,0-.64-.3-.63-.66,0-.36.3-.64.66-.63l149.54,2.79c.36,0,.64.3.63.66,0,.24-.14.45-.34.56Z"/>
    <path class="cls-31" d="M447.83,530.34c-.23.12-.52.14-.78.02l-58.99-27.53c-.44-.21-.63-.73-.43-1.17.21-.44.73-.63,1.17-.43l58.99,27.53c.44.21.63.73.43,1.17-.09.18-.22.32-.39.4Z"/>
    <path class="cls-31" d="M377.36,492.86s-.04.02-.06.03c-.62.29-1.36.02-1.65-.61l-34.27-74.45c-.28-.62.06-1.32.61-1.65.62-.29,1.36-.02,1.65.61l34.27,74.45c.28.6.03,1.31-.55,1.62Z"/>
    <path class="cls-31" d="M708.91,724.51c-.31.16-.69.18-1.02,0-.55-.28-.77-.95-.49-1.49l95.08-186.6c.27-.55.94-.77,1.49-.49.55.28.77.95.49,1.49l-95.08,186.6c-.11.21-.27.37-.47.48Z"/>
    <path class="cls-31" d="M730.46,663.57c-.16.08-.33.13-.53.14-.7.04-1.3-.5-1.33-1.2l-2.35-43.51c-.04-.7.49-1.3,1.2-1.33.7-.04,1.29.5,1.33,1.2l2.35,43.51c.03.51-.25.96-.67,1.19Z"/>
    <path class="cls-31" d="M730.32,663.32c-.29.15-.65.16-.96-.02-.47-.27-.62-.88-.35-1.34l73.61-125.52c.27-.46.88-.63,1.34-.35.47.27.62.88.35,1.34l-73.61,125.52c-.09.16-.23.29-.39.37Z"/>
    <path class="cls-31" d="M113.54,12.16s-.09.04-.15.06l-25.25,5.33c-.31.06-.61-.13-.68-.44-.06-.31.13-.59.44-.68l25.25-5.33c.31-.06.61.13.68.44.05.26-.07.5-.29.62Z"/>
    <path class="cls-31" d="M94.78,0l-7.27,16.76c-.12.29,0,.62.3.75.16.07.34.06.49-.02.11-.06.2-.15.26-.28L96.02,0h-1.24Z"/>
    <path class="cls-31" d="M163.47,98.79c-.22.12-.5.08-.68-.12L87.61,17.37c-.21-.23-.2-.59.03-.81.24-.22.59-.2.81.03l75.18,81.3c.21.23.2.59-.03.81-.04.03-.08.06-.12.08Z"/>
    <path class="cls-31" d="M264.49,127.9c-.23.12-.51.13-.76,0-.39-.21-.53-.7-.32-1.09l51.57-93.94c.2-.39.7-.53,1.09-.32.39.21.53.7.32,1.09l-51.57,93.94c-.08.14-.19.25-.33.32Z"/>
    <path class="cls-31" d="M808.75,539.95c-.06.03-.12.05-.19.07l-159.36,29.69c-.37.07-.72-.17-.78-.54-.07-.37.18-.71.54-.78l159.36-29.69c.37-.07.72.17.78.54.05.3-.09.58-.35.72Z"/>
    <path class="cls-31" d="M649.49,569.82c-.28.15-.64.14-.92-.06l-52.12-36.69c-.4-.28-.49-.83-.21-1.22.28-.41.83-.5,1.22-.21l52.12,36.69c.4.28.49.83.21,1.22-.08.12-.19.21-.31.27Z"/>
    <path class="cls-31" d="M742.98,587.12c-.16.09-.36.11-.55.04l-145.7-54.17c-.35-.13-.53-.52-.4-.86.13-.35.52-.52.87-.4l145.7,54.17c.35.13.52.52.4.86-.06.16-.18.28-.32.36Z"/>
    <path class="cls-31" d="M743.08,587.3c-.26.14-.59.14-.87-.03-.42-.25-.55-.79-.29-1.21l71.43-117.69c.25-.4.79-.55,1.21-.29.42.25.55.79.29,1.21l-71.43,117.69c-.08.14-.2.25-.34.32Z"/>
    <path class="cls-31" d="M742.97,587.09c-.28.15-.64.07-.83-.19-.21-.29-.14-.69.15-.9l65.77-47.17c.29-.19.69-.14.9.15.21.29.14.69-.15.9l-65.78,47.17s-.05.03-.07.04Z"/>
    <path class="cls-31" d="M659.69,527.2c-.35.19-.79.13-1.09-.16-.37-.36-.37-.95-.01-1.31l103.91-105.68c.35-.37.95-.37,1.31-.01.37.36.37.95.01,1.31l-103.91,105.68c-.07.07-.14.13-.23.17Z"/>
    <path class="cls-31" d="M393.04,66.99c-.2.11-.45.12-.67.03l-76.99-33.06c-.39-.17-.58-.63-.41-1.02.17-.4.63-.58,1.02-.41l76.99,33.06c.39.17.58.63.41,1.02-.07.17-.2.3-.35.38Z"/>
    <path class="cls-31" d="M431.36,0l-39.33,65.92c-.21.35-.1.82.26,1.03.23.14.51.14.74.02.12-.06.22-.16.29-.28L433.11,0h-1.75Z"/>
    <path class="cls-31" d="M705.55,460.26c-.07.04-.15.06-.24.07-.31.01-.58-.23-.59-.55l-6.97-158.4c-.01-.32.23-.58.55-.59.31-.01.58.23.59.54l6.97,158.4c0,.23-.12.43-.3.53Z"/>
    <path class="cls-31" d="M705.57,460.29s-.02,0-.03.01c-.3.14-.65,0-.79-.29l-49.59-108.55c-.13-.29-.01-.63.26-.77,0,0,.02,0,.03-.01.3-.14.65,0,.79.29l49.58,108.55c.13.29.01.63-.26.77Z"/>
    <path class="cls-31" d="M656.2,352.15c-.37.2-.84.16-1.18-.13-.45-.38-.5-1.05-.12-1.49l42.61-49.85c.38-.45,1.05-.5,1.49-.12.45.38.5,1.05.12,1.49l-42.61,49.85c-.09.1-.19.19-.31.25Z"/>
    <path class="cls-31" d="M738.83,433.83c-.23.12-.53.09-.73-.11l-82.84-82.07c-.24-.24-.24-.63,0-.88.24-.24.63-.24.88,0l82.84,82.07c.24.24.24.63,0,.88-.05.04-.1.08-.15.11Z"/>
    <path class="cls-31" d="M935.01,651.42c-.28.15-.63.06-.8-.2-.19-.28-.12-.67.16-.86l102.76-69.64c.26-.18.67-.12.86.16.19.28.12.67-.16.86l-102.76,69.64s-.04.03-.06.04Z"/>
    <path class="cls-31" d="M814.42,469.45c-.29.15-.65.09-.86-.17-.25-.29-.21-.74.09-.98l137.29-115.2c.31-.27.74-.21.98.09.25.29.21.73-.09.98l-137.29,115.2s-.08.06-.12.08Z"/>
    <path class="cls-31" d="M814.48,469.56c-.31.16-.69.12-.96-.13l-50.93-48.13c-.33-.31-.35-.84-.03-1.17.31-.33.83-.35,1.17-.03l50.93,48.14c.33.31.35.84.03,1.17-.06.07-.14.12-.21.16Z"/>
    <path class="cls-31" d="M698.59,301.89c-.08.04-.17.07-.27.07-.33,0-.6-.26-.6-.59l-.59-38.46c0-.33.26-.59.59-.6.33,0,.6.26.6.59l.59,38.46c0,.23-.12.43-.32.54Z"/>
    <path class="cls-31" d="M951.7,354.22c-.31.16-.69.07-.88-.23-.2-.31-.11-.73.2-.93l142.23-90.9c.36-.22.73-.11.93.2.2.31.11.73-.2.93l-142.23,90.9s-.03.02-.05.03Z"/>
    <path class="cls-31" d="M1133.72,378.8c-.12.06-.26.09-.4.07l-182.02-24.57c-.37-.05-.62-.39-.57-.76.05-.37.39-.62.76-.57l182.02,24.57c.37.05.62.39.57.76-.03.22-.17.4-.35.5Z"/>
    <path class="cls-31" d="M1029.11,390.89c-.19.1-.42.11-.63.01l-77.4-36.64c-.35-.16-.5-.58-.33-.93.16-.34.58-.5.93-.33l77.4,36.64c.35.16.5.58.33.93-.07.14-.18.25-.3.32Z"/>
    <path class="cls-31" d="M1029.2,391.07c-.26.14-.59.15-.87-.01-.43-.25-.58-.8-.34-1.24l68.77-120.54c.25-.43.79-.59,1.24-.34.43.25.59.8.34,1.24l-68.77,120.54c-.09.15-.22.27-.36.35Z"/>
    <path class="cls-31" d="M1029.18,391.02c-.24.13-.53.14-.79,0-.42-.21-.59-.73-.37-1.15l64.83-127.54c.21-.42.73-.59,1.15-.37.42.21.59.73.37,1.15l-64.83,127.54c-.08.16-.21.29-.36.37Z"/>
    <path class="cls-31" d="M568.78,0h-1.49l64.07,84.2c.18.24.5.3.75.17.03-.01.06-.03.08-.05.26-.2.31-.57.11-.83L568.78,0Z"/>
    <path class="cls-31" d="M626.62,0l-.71,21.69c-.01.4.3.73.7.75.13,0,.25-.03.36-.08.22-.12.38-.35.39-.62l.72-21.74h-1.45Z"/>
    <path class="cls-31" d="M635.81,0l-9.7,21.48c-.13.29,0,.62.28.75.17.08.35.06.5-.02.11-.06.2-.15.25-.27l9.91-21.95h-1.25Z"/>
    <path class="cls-31" d="M648.75,0l-22.54,21.26c-.25.24-.26.63-.03.88.2.21.5.25.74.12.05-.03.09-.06.13-.1l23.5-22.16h-1.81Z"/>
    <path class="cls-31" d="M1119.8,421.57c-.06.03-.12.05-.18.06l-67.23,12.5c-.35.07-.69-.17-.75-.52-.07-.35.17-.69.52-.75l67.23-12.5c.35-.07.69.17.75.52.05.28-.09.56-.33.69Z"/>
    <path class="cls-31" d="M1274.2,458.51c-.14.07-.3.1-.47.06l-154.39-36.91c-.36-.09-.58-.45-.5-.81.09-.37.45-.58.81-.5l154.39,36.91c.36.09.58.45.5.81-.05.2-.17.35-.34.44Z"/>
    <path class="cls-31" d="M1133.76,378.89c-.06.03-.13.06-.2.07l-62.84,13.63c-.42.09-.83-.18-.92-.59-.09-.42.17-.83.59-.92l62.84-13.63c.42-.09.83.18.92.59.08.35-.1.69-.4.85Z"/>
    <path class="cls-31" d="M1133.72,378.8s-.06.03-.1.04c-.35.12-.73-.07-.85-.42l-39.79-115.47c-.12-.35.05-.74.42-.85.35-.12.74.07.86.42l39.79,115.47c.11.32-.03.66-.32.81Z"/>
    <path class="cls-31" d="M1098,270.58c-.46.24-1.03.08-1.28-.38l-3.94-7c-.26-.46-.1-1.04.36-1.3.58-.25,1.05-.1,1.3.36l3.94,7c.26.46.1,1.04-.36,1.3,0,0-.02,0-.02.01Z"/>
    <path class="cls-31" d="M1239.85,276.45c-.15.08-.32.12-.5.1l-145.82-12.92c-.5-.04-.87-.48-.82-.98.05-.5.49-.87.98-.82l145.82,12.92c.5.04.87.48.82.98-.03.32-.22.58-.48.72Z"/>
    <path class="cls-31" d="M1244.44,203.7s-.03.02-.05.03l-146.48,66.81c-.44.2-.96,0-1.17-.44-.2-.44-.04-.96.44-1.17l146.48-66.81c.44-.2.96,0,1.17.44.19.43.02.92-.39,1.14Z"/>
    <path class="cls-31" d="M1195.33,302.93c-.39.21-.89.14-1.21-.2-.38-.4-.36-1.04.04-1.43l107.73-101.73c.4-.38,1.04-.36,1.43.04s.36,1.04-.04,1.43l-107.73,101.73c-.07.06-.14.11-.22.16Z"/>
    <path class="cls-31" d="M1262.8,343.85c-.32.17-.72.17-1.05-.03l-67.45-40.88c-.5-.3-.66-.95-.36-1.45.3-.5.95-.67,1.45-.36l67.45,40.88c.5.3.66.95.36,1.45-.1.17-.24.3-.41.39Z"/>
    <path class="cls-31" d="M1262.64,343.55c-.16.08-.35.11-.54.06-.39-.11-.61-.51-.5-.89l40.28-142.6c.11-.38.51-.61.89-.5.39.11.61.51.5.89l-40.28,142.6c-.06.2-.19.35-.36.44Z"/>
    <path class="cls-31" d="M797.44,116.53c-.4.21-.9.14-1.22-.21-.37-.41-.35-1.05.06-1.43l44.33-40.52c.41-.37,1.05-.34,1.43.06.37.41.35,1.05-.06,1.43l-44.33,40.52c-.06.06-.14.11-.21.14Z"/>
    <path class="cls-31" d="M812.78,137.01c-.29.15-.65.08-.85-.19l-15.5-20.78c-.22-.3-.16-.72.14-.94.3-.24.72-.16.94.14l15.5,20.78c.22.3.16.72-.14.94-.03.02-.06.04-.09.06Z"/>
    <path class="cls-31" d="M892.39,104.02s-.04.02-.07.03l-79.57,33.08c-.4.16-.85-.02-1.01-.42-.16-.39,0-.83.42-1.01l79.57-33.08c.4-.16.85.02,1.01.42.15.37,0,.8-.35.98Z"/>
    <path class="cls-31" d="M812.69,136.85c-.13.07-.29.08-.44.01-.24-.12-.35-.41-.24-.65l28.84-61.3c.12-.24.41-.35.65-.24.24.12.35.41.24.66l-28.84,61.3c-.05.1-.12.18-.21.23Z"/>
    <path class="cls-31" d="M812.73,136.92c-.16.08-.35.09-.52,0-.28-.14-.4-.48-.26-.76l23.52-47.44c.13-.28.48-.4.76-.26.28.14.4.48.25.76l-23.52,47.44c-.05.11-.14.19-.24.25Z"/>
    <path class="cls-31" d="M899.35,83.72c-.13.07-.27.11-.42.13l-62.83,6.26c-.63.06-1.18-.39-1.24-1.02-.06-.63.41-1.19,1.02-1.25l62.83-6.26c.63-.06,1.18.39,1.25,1.02.05.47-.2.91-.6,1.12Z"/>
    <path class="cls-31" d="M892.35,103.93c-.14.08-.31.1-.48.06l-56.04-14.36c-.36-.09-.58-.46-.48-.82.1-.36.46-.57.82-.48l56.04,14.36c.36.09.58.46.48.82-.05.19-.18.34-.34.43Z"/>
    <path class="cls-31" d="M1393.97,415.53s-.07.03-.1.04l-119.72,43.07c-.4.15-.85-.06-.99-.47-.15-.4.05-.85.47-.99l119.71-43.07c.4-.15.85.06.99.47.13.37-.03.77-.37.95Z"/>
    <path class="cls-31" d="M1202.24,256.06c-.32.17-.71.17-1.04-.03-.5-.3-.66-.95-.36-1.46l52.6-87.01c.3-.5.95-.66,1.46-.36.5.3.66.95.36,1.46l-52.6,87c-.1.17-.25.3-.41.39Z"/>
    <path class="cls-31" d="M1202.43,256.41c-.57.3-1.3.19-1.75-.31-.54-.59-.49-1.51.1-2.05l33.84-30.59c.61-.56,1.51-.49,2.05.1.54.59.49,1.51-.1,2.05l-33.84,30.59c-.09.08-.19.15-.29.21Z"/>
    <path class="cls-31" d="M1235.91,225.16c-.21.11-.46.11-.68-.01-.33-.19-.45-.62-.26-.95l88.97-154.71c.19-.33.62-.45.95-.26.33.19.45.62.26.95l-88.97,154.71c-.07.12-.16.21-.28.27Z"/>
    <path class="cls-31" d="M1236.03,225.39c-.22.12-.49.15-.75.06-.5-.17-.77-.71-.61-1.21l18.76-56.42c.17-.5.71-.77,1.21-.61.5.17.77.71.61,1.21l-18.76,56.42c-.08.24-.25.43-.46.54Z"/>
    <path class="cls-31" d="M1239.77,276.29c-.11.06-.25.09-.39.08-.4-.02-.7-.37-.68-.77l4.6-72.73c.03-.4.37-.7.77-.68.4.02.7.37.68.77l-4.6,72.73c-.02.26-.17.48-.38.59Z"/>
    <path class="cls-31" d="M1239.81,276.36c-.33.18-.76.1-1-.21-.27-.35-.22-.85.13-1.13l129.26-102.78c.34-.29.85-.22,1.13.13.28.35.22.85-.13,1.13l-129.26,102.78s-.08.06-.12.08Z"/>
    <path class="cls-31" d="M1302.98,201.07c-.11.06-.23.09-.36.1l-58.55,2.61c-.47.02-.87-.34-.89-.81-.02-.47.34-.87.81-.89l58.55-2.61c.47-.02.87.34.89.82.02.34-.17.64-.45.79Z"/>
    <path class="cls-31" d="M1838.41,536.07c-.18.1-.39.14-.61.1l-107.26-16.79c-.54-.08-.9-.59-.82-1.12.09-.54.59-.9,1.12-.82l107.26,16.79c.54.08.9.59.82,1.12-.05.32-.25.58-.51.72Z"/>
    <path class="cls-31" d="M899.02,0l-58.15,74.78c-.19.24-.14.58.09.76.17.14.4.15.59.05.07-.04.13-.08.17-.15L900.39,0h-1.37Z"/>
    <path class="cls-31" d="M892.41,104.04c-.18.1-.41.13-.63.05-.42-.14-.65-.59-.51-1.01l6.79-20.62c.14-.42.59-.65,1.01-.51.42.14.65.59.51,1.01l-6.79,20.62c-.07.2-.21.36-.39.46Z"/>
    <path class="cls-31" d="M1029.03,15.8s0,0,0,0l-129.96,67.37c-.25.13-.57.03-.7-.22-.13-.25-.03-.56.22-.7t0,0l129.96-67.37c.25-.13.57-.03.7.22.13.25.03.56-.22.7Z"/>
    <path class="cls-31" d="M899.09,83.22c-.13.07-.29.09-.44.04-.3-.1-.46-.42-.36-.72l15.27-46.52c.1-.3.42-.46.72-.36.3.1.46.42.36.72l-15.27,46.52c-.05.14-.15.26-.27.33Z"/>
    <path class="cls-31" d="M1046.8,7.44s-.09.04-.14.05l-132.45,29.23c-.29.07-.58-.12-.65-.41-.06-.29.12-.6.41-.65l132.45-29.23c.29-.07.58.12.65.41.06.24-.07.49-.27.6Z"/>
    <path class="cls-31" d="M901.51,0l11.84,36.44c.13.41.57.63.98.5.04-.01.09-.03.12-.05.33-.17.49-.56.38-.92l-11.69-35.96h-1.63Z"/>
    <path class="cls-31" d="M1254.65,168.69c-.28.15-.63.07-.82-.18-.21-.29-.16-.69.13-.91l125.06-93.77c.32-.21.69-.16.91.13.21.29.16.69-.13.91l-125.06,93.77s-.06.04-.09.05Z"/>
    <path class="cls-31" d="M1254.71,168.81c-.25.13-.57.12-.81-.05-.35-.25-.43-.73-.18-1.08l70.2-98.29c.25-.35.73-.43,1.08-.18.35.25.43.73.18,1.08l-70.2,98.29c-.07.1-.17.18-.27.23Z"/>
    <path class="cls-31" d="M1467.72,3.7s-.02.01-.03.02l-142.8,66.81c-.39.18-.85.01-1.03-.37-.18-.39.03-.85.37-1.03L1467.02,2.31c.39-.18.85-.01,1.03.37.18.38.02.82-.34,1.01Z"/>
    <path class="cls-31" d="M1369.03,173.51c-.33.18-.75.07-.95-.26-.21-.34-.11-.79.23-1l145.51-90.79c.31-.23.79-.11,1,.23.21.34.11.79-.23,1l-145.51,90.79s-.03.02-.04.03Z"/>
    <path class="cls-31" d="M1644.11,228.25c-.06.03-.12.06-.18.08l-92.85,32.98c-.69.24-1.44-.12-1.69-.8-.25-.69.13-1.42.8-1.68l92.85-32.98c.69-.24,1.44.12,1.69.8.22.62-.06,1.3-.62,1.61Z"/>
    <path class="cls-31" d="M1615.39,305.39c-.36.19-.82.18-1.18-.07l-64.21-44.32c-.52-.36-.65-1.07-.29-1.58.36-.51,1.07-.65,1.58-.29l64.21,44.32c.52.36.65,1.07.29,1.58-.11.16-.25.28-.4.36Z"/>
    <path class="cls-31" d="M1812.29,292.04c-.09.05-.19.08-.29.08l-197.09,12.98c-.4.03-.74-.28-.77-.67-.03-.4.28-.75.67-.77l197.09-12.98c.4-.03.74.28.77.67.02.3-.14.56-.38.69Z"/>
    <path class="cls-31" d="M1615.33,305.27c-.25.13-.54.16-.82.06-.52-.19-.79-.77-.6-1.3l28.64-77.3c.19-.52.77-.79,1.3-.6.52.19.79.77.6,1.3l-28.64,77.3c-.09.24-.26.43-.47.54Z"/>
    <path class="cls-31" d="M1029.06,15.87c-.24.13-.55.07-.73-.15l-10.77-12.93c-.21-.25-.18-.63.08-.84.24-.22.63-.17.84.08l10.77,12.93c.21.25.18.63-.08.84-.03.03-.06.05-.1.07Z"/>
    <path class="cls-31" d="M1043.38,0l-15.04,14.9c-.24.24-.25.63,0,.88.2.2.49.24.73.11.05-.03.1-.06.15-.11l15.93-15.78h-1.76Z"/>
    <path class="cls-31" d="M1046.94,7.72s-.02.01-.04.02l-17.76,8.38c-.43.2-.93.02-1.14-.41-.2-.43-.07-.9.41-1.14l17.76-8.38c.43-.2.93-.02,1.14.41.19.41.03.91-.37,1.12Z"/>
    <path class="cls-31" d="M1427.6,124.91c-.31.16-.69.19-1.03.03-.58-.27-.84-.96-.57-1.54l38.8-84.18c.26-.58.96-.84,1.54-.57.58.27.84.96.57,1.54l-38.8,84.18c-.11.24-.29.43-.51.54Z"/>
    <path class="cls-31" d="M1427.43,124.59c-.31.16-.7.11-.95-.15l-47.65-49.53c-.31-.32-.3-.83.02-1.13.32-.31.83-.3,1.13.02l47.65,49.53c.31.32.3.83-.02,1.13-.05.05-.11.1-.18.13Z"/>
    <path class="cls-31" d="M1466.2,40.34s-.05.02-.07.03l-86.45,34.65c-.37.15-.79-.03-.94-.4-.15-.38.04-.81.4-.94l86.45-34.65c.37-.15.79.03.94.4.14.35,0,.74-.33.91Z"/>
    <path class="cls-31" d="M1490.02,0l-22.73,2.35c-.37.04-.64.37-.6.74.04.37.37.64.74.6l35.69-3.69h-13.1Z"/>
    <path class="cls-31" d="M1514.52,82.7c-.33.17-.74.06-.93-.26l-46.84-79.06c-.2-.33-.09-.76.24-.96.4-.16.76-.08.96.25l46.84,79.06c.2.33.09.76-.25.96,0,0-.02.01-.03.02Z"/>
    <path class="cls-31" d="M1606.11,0l-92.48,81.44c-.35.31-.39.85-.08,1.21.27.3.7.37,1.04.19.06-.03.11-.07.17-.11L1608.7,0h-2.59Z"/>
    <path class="cls-31" d="M1643.84,227.75c-.29.15-.65.1-.89-.14-.29-.3-.28-.77.02-1.06l131.47-126.62c.3-.28.77-.28,1.06.02.29.3.28.77-.02,1.06l-131.47,126.62c-.05.05-.11.09-.17.12Z"/>
    <path class="cls-31" d="M1485.1,0l-19.96,39.34c-.2.39-.04.88.35,1.08.24.12.51.11.74,0,.14-.07.26-.19.34-.35l20.33-40.07h-1.8Z"/>
    <path class="cls-31" d="M1674.41,169.93c-.12.06-.26.08-.39.05l-91.46-21.48c-.31-.07-.5-.38-.43-.68.07-.31.38-.49.68-.42l91.46,21.48c.31.07.5.38.42.68-.04.17-.15.3-.29.37Z"/>
    <path class="cls-31" d="M1674.46,170.02c-.13.07-.27.09-.42.07-.37-.06-.62-.4-.56-.77l17.46-111.64c.06-.37.41-.62.77-.56.37.06.62.4.56.77l-17.46,111.64c-.03.22-.17.39-.35.49Z"/>
    <path class="cls-31" d="M1828.71,59.47c-.1.05-.22.09-.35.08l-136.76-1.04c-.4,0-.72-.33-.72-.73,0-.4.32-.73.73-.72l136.76,1.04c.4,0,.72.33.72.73,0,.28-.16.51-.38.63Z"/>
    <path class="cls-31" d="M85.72,583.18c2.98-1.58,6.67-.44,8.25,2.53s.44,6.67-2.53,8.25c-2.98,1.58-6.67.44-8.24-2.53-1.58-2.98-.44-6.67,2.53-8.25Z"/>
    <path class="cls-31" d="M143.2,625.66c3.52-1.87,7.89-.52,9.76,3,1.87,3.52.52,7.89-3,9.76-3.52,1.87-7.89.52-9.76-3-1.87-3.52-.52-7.89,3-9.76Z"/>
    <path class="cls-29" d="M33.22,272.21c2.73-1.45,6.11-.41,7.56,2.32,1.45,2.73.41,6.11-2.32,7.56-2.73,1.45-6.11.41-7.56-2.32s-.41-6.11,2.32-7.56Z"/>
    <path class="cls-22" d="M68.52,324.94c2.78-1.47,6.22-.41,7.7,2.36,1.47,2.78.41,6.22-2.36,7.7-2.78,1.47-6.22.41-7.7-2.36-1.47-2.78-.41-6.22,2.36-7.7Z"/>
    <path class="cls-38" d="M55.28,380.5c2.88-1.52,6.45-.43,7.97,2.45,1.52,2.88.43,6.45-2.45,7.97-2.88,1.53-6.45.43-7.97-2.45-1.53-2.88-.43-6.45,2.45-7.97Z"/>
    <path class="cls-28" d="M146.03,410.64c2.93-1.55,6.56-.44,8.11,2.49,1.55,2.93.44,6.56-2.49,8.11-2.93,1.55-6.56.44-8.11-2.49-1.55-2.93-.44-6.56,2.49-8.11Z"/>
    <path class="cls-31" d="M57.63,333.7c3.03-1.6,6.78-.45,8.38,2.58,1.6,3.03.45,6.78-2.58,8.38-3.03,1.6-6.78.45-8.38-2.58-1.6-3.03-.45-6.78,2.58-8.38Z"/>
    <path class="cls-31" d="M46.47,325.23c3.13-1.66,7-.47,8.66,2.66s.46,7-2.66,8.66c-3.13,1.66-7,.46-8.66-2.66-1.66-3.13-.46-7,2.66-8.66Z"/>
    <path class="cls-31" d="M219.63,494.39c3.27-1.74,7.33-.49,9.07,2.79,1.73,3.27.49,7.33-2.79,9.07-3.27,1.74-7.33.49-9.07-2.79-1.73-3.27-.49-7.33,2.79-9.07Z"/>
    <path class="cls-31" d="M157.84,475.25c3.42-1.81,7.67-.51,9.48,2.91,1.81,3.42.51,7.67-2.91,9.48-3.42,1.81-7.67.51-9.48-2.91-1.81-3.42-.51-7.67,2.91-9.48Z"/>
    <path class="cls-31" d="M228.84,570.16c3.52-1.87,7.89-.52,9.76,3,1.87,3.52.52,7.89-3,9.76-3.52,1.87-7.89.52-9.76-3-1.87-3.52-.52-7.89,3-9.76Z"/>
    <path class="cls-31" d="M270.78,545.98c3.62-1.92,8.11-.54,10.03,3.08,1.92,3.62.54,8.11-3.08,10.03-3.62,1.92-8.11.54-10.03-3.08-1.92-3.62-.54-8.11,3.08-10.03Z"/>
    <path class="cls-27" d="M19.4,145.62c2.68-1.42,6-.4,7.42,2.28,1.42,2.68.4,6-2.28,7.42-2.68,1.42-6,.4-7.42-2.28-1.42-2.68-.4-6,2.28-7.42Z"/>
    <path class="cls-33" d="M137.58,245.55c2.73-1.45,6.11-.41,7.56,2.32,1.45,2.73.41,6.11-2.32,7.56-2.73,1.45-6.11.41-7.56-2.32-1.45-2.73-.41-6.11,2.32-7.56Z"/>
    <path class="cls-7" d="M192.17,265.63c2.78-1.47,6.22-.41,7.69,2.36,1.47,2.78.41,6.22-2.36,7.7-2.78,1.47-6.22.41-7.7-2.36-1.47-2.78-.41-6.22,2.36-7.7Z"/>
    <path class="cls-8" d="M218.06,362.46c2.83-1.5,6.33-.42,7.83,2.41,1.5,2.83.42,6.33-2.41,7.83-2.83,1.5-6.33.42-7.83-2.41-1.5-2.83-.42-6.33,2.41-7.83Z"/>
    <path class="cls-31" d="M389.51,513.2c2.93-1.55,6.56-.44,8.11,2.49,1.55,2.93.44,6.56-2.49,8.11-2.93,1.55-6.56.44-8.11-2.49-1.55-2.93-.44-6.56,2.49-8.11Z"/>
    <path class="cls-31" d="M444.33,523.73c3.22-1.71,7.22-.48,8.93,2.74,1.71,3.22.48,7.22-2.74,8.93-3.22,1.71-7.22.48-8.93-2.74s-.48-7.22,2.74-8.93Z"/>
    <path class="cls-31" d="M385.24,496.02c3.32-1.76,7.45-.5,9.21,2.83,1.76,3.32.49,7.45-2.83,9.21-3.32,1.76-7.45.49-9.21-2.83-1.76-3.32-.49-7.45,2.83-9.21Z"/>
    <path class="cls-31" d="M373.39,485.39c3.52-1.87,7.89-.52,9.76,3,1.87,3.52.52,7.89-3,9.76-3.52,1.87-7.89.52-9.76-3-1.87-3.52-.52-7.89,3-9.76Z"/>
    <path class="cls-31" d="M339.02,410.76c3.62-1.92,8.11-.54,10.03,3.08,1.92,3.62.54,8.11-3.08,10.03-3.62,1.92-8.11.54-10.03-3.08-1.92-3.62-.54-8.11,3.08-10.03Z"/>
    <path class="cls-31" d="M722.75,609.96c4.96-2.63,11.11-.74,13.74,4.22,2.63,4.96.74,11.11-4.22,13.74-4.96,2.63-11.11.74-13.74-4.22-2.63-4.96-.74-11.11,4.22-13.74Z"/>
    <path class="cls-4" d="M110.8,6.99c2.58-1.37,5.78-.38,7.15,2.2s.38,5.78-2.2,7.15c-2.58,1.37-5.78.38-7.15-2.2-1.37-2.58-.38-5.78,2.2-7.15Z"/>
    <path class="cls-10" d="M85.45,12.14c2.68-1.42,6-.4,7.42,2.28,1.42,2.68.4,6-2.28,7.42-2.68,1.42-6,.4-7.42-2.28-1.42-2.68-.4-6,2.28-7.42Z"/>
    <path class="cls-29" d="M160.59,93.35c2.73-1.45,6.11-.41,7.56,2.32,1.45,2.73.41,6.11-2.32,7.56-2.73,1.45-6.11.41-7.56-2.32-1.45-2.73-.41-6.11,2.32-7.56Z"/>
    <path class="cls-17" d="M261.44,122.16c2.78-1.47,6.22-.41,7.69,2.36,1.47,2.78.41,6.22-2.36,7.7-2.78,1.47-6.22.41-7.7-2.36-1.47-2.78-.41-6.22,2.36-7.7Z"/>
    <path class="cls-25" d="M364.73,293.83c2.83-1.5,6.33-.42,7.83,2.41,1.5,2.83.42,6.33-2.41,7.83-2.83,1.5-6.33.42-7.83-2.41-1.5-2.83-.42-6.33,2.41-7.83Z"/>
    <path class="cls-22" d="M623.82,610.61c2.78-1.47,6.22-.41,7.69,2.36,1.47,2.78.41,6.22-2.36,7.7-2.78,1.47-6.22.41-7.7-2.36-1.47-2.78-.41-6.22,2.36-7.7Z"/>
    <path class="cls-28" d="M467.86,430.27c2.93-1.55,6.56-.44,8.11,2.49,1.55,2.93.44,6.56-2.49,8.11-2.93,1.55-6.56.44-8.11-2.49-1.55-2.93-.44-6.56,2.49-8.11Z"/>
    <path class="cls-31" d="M646.03,563.3c3.17-1.68,7.11-.47,8.79,2.7,1.68,3.18.47,7.11-2.7,8.8-3.17,1.68-7.11.47-8.8-2.7-1.68-3.17-.47-7.11,2.7-8.79Z"/>
    <path class="cls-31" d="M593.82,526.42c3.27-1.73,7.33-.49,9.07,2.79,1.73,3.27.49,7.33-2.79,9.07-3.27,1.74-7.33.49-9.07-2.79-1.73-3.27-.49-7.33,2.79-9.07Z"/>
    <path class="cls-31" d="M739.47,580.5c3.32-1.76,7.45-.49,9.21,2.83,1.76,3.32.49,7.45-2.83,9.21-3.32,1.76-7.45.49-9.21-2.83-1.76-3.32-.49-7.45,2.83-9.21Z"/>
    <path class="cls-31" d="M655.87,520c3.52-1.87,7.89-.52,9.76,3,1.87,3.52.52,7.89-3,9.76-3.52,1.87-7.89.52-9.76-3-1.87-3.52-.52-7.89,3-9.76Z"/>
    <path class="cls-31" d="M799.09,528.66c4.56-2.42,10.22-.68,12.64,3.88,2.42,4.56.68,10.22-3.88,12.64-4.56,2.42-10.22.68-12.64-3.88-2.42-4.56-.68-10.22,3.88-12.64Z"/>
    <path class="cls-22" d="M313.02,28.22c2.78-1.47,6.22-.41,7.7,2.36,1.47,2.78.41,6.22-2.36,7.7-2.78,1.47-6.22.41-7.7-2.36-1.47-2.78-.41-6.22,2.36-7.7Z"/>
    <path class="cls-25" d="M389.97,61.19c2.83-1.5,6.33-.42,7.83,2.41,1.5,2.83.42,6.33-2.41,7.83-2.83,1.5-6.33.42-7.83-2.41-1.5-2.83-.42-6.33,2.41-7.83Z"/>
    <path class="cls-1" d="M702.62,454.73c2.78-1.47,6.22-.41,7.7,2.36,1.47,2.78.41,6.22-2.36,7.7-2.78,1.47-6.22.41-7.7-2.36-1.47-2.78-.41-6.22,2.36-7.7Z"/>
    <path class="cls-35" d="M652.89,345.91c2.93-1.55,6.56-.44,8.11,2.49,1.55,2.93.44,6.56-2.49,8.11-2.93,1.55-6.56.44-8.11-2.49-1.55-2.93-.44-6.56,2.49-8.11Z"/>
    <path class="cls-31" d="M735.73,427.98c2.93-1.55,6.56-.44,8.11,2.49,1.55,2.93.44,6.56-2.49,8.11-2.93,1.55-6.56.44-8.11-2.49-1.55-2.93-.44-6.56,2.49-8.11Z"/>
    <path class="cls-31" d="M805.35,533.52c3.22-1.71,7.22-.48,8.93,2.74,1.71,3.22.48,7.22-2.74,8.93-3.22,1.71-7.22.48-8.93-2.74-1.71-3.22-.48-7.22,2.74-8.93Z"/>
    <path class="cls-31" d="M810.86,462.72c3.37-1.79,7.56-.5,9.34,2.87,1.79,3.37.5,7.56-2.87,9.34-3.37,1.79-7.56.5-9.34-2.87-1.79-3.37-.5-7.56,2.87-9.34Z"/>
    <path class="cls-31" d="M759.78,414.32c3.52-1.87,7.89-.52,9.76,3,1.87,3.52.52,7.89-3,9.76-3.52,1.87-7.89.52-9.76-3-1.87-3.52-.52-7.89,3-9.76Z"/>
    <path class="cls-22" d="M695.06,257.88c2.78-1.47,6.22-.41,7.7,2.36,1.47,2.78.41,6.22-2.36,7.69-2.78,1.47-6.22.41-7.7-2.36-1.47-2.78-.41-6.22,2.36-7.7Z"/>
    <path class="cls-38" d="M695.55,296.15c2.88-1.52,6.45-.43,7.97,2.45,1.52,2.88.43,6.45-2.45,7.97-2.88,1.52-6.45.43-7.97-2.45-1.52-2.88-.43-6.45,2.45-7.97Z"/>
    <path class="cls-31" d="M1034.48,575.58c3.13-1.66,7-.47,8.66,2.66,1.66,3.13.46,7-2.66,8.66s-7,.46-8.66-2.66c-1.66-3.13-.47-7,2.66-8.66Z"/>
    <path class="cls-31" d="M948.15,347.52c3.37-1.79,7.56-.5,9.34,2.87,1.79,3.37.5,7.56-2.87,9.34-3.37,1.79-7.56.5-9.34-2.87-1.79-3.37-.5-7.56,2.87-9.34Z"/>
    <path class="cls-31" d="M1025.45,383.98c3.47-1.84,7.78-.52,9.62,2.96,1.84,3.47.52,7.78-2.96,9.62-3.47,1.84-7.78.52-9.62-2.96-1.84-3.47-.52-7.78,2.96-9.62Z"/>
    <path class="cls-18" d="M629.45,79.35c2.48-1.31,5.56-.37,6.87,2.11,1.31,2.48.37,5.56-2.11,6.87-2.48,1.31-5.56.37-6.87-2.11-1.31-2.48-.37-5.56,2.11-6.87Z"/>
    <path class="cls-24" d="M623.92,16.59c2.83-1.5,6.33-.42,7.83,2.41,1.5,2.83.42,6.33-2.41,7.83-2.83,1.5-6.33.42-7.83-2.41-1.5-2.83-.42-6.33,2.41-7.83Z"/>
    <path class="cls-31" d="M1049.41,428.12c2.98-1.58,6.67-.44,8.25,2.53,1.58,2.98.44,6.67-2.53,8.24-2.98,1.58-6.67.44-8.25-2.53-1.58-2.98-.44-6.67,2.53-8.24Z"/>
    <path class="cls-31" d="M1116.59,415.52c3.03-1.6,6.78-.45,8.38,2.58,1.6,3.03.45,6.78-2.58,8.38-3.03,1.6-6.78.45-8.38-2.58-1.6-3.03-.45-6.78,2.58-8.38Z"/>
    <path class="cls-31" d="M1067.51,386.08c3.17-1.68,7.11-.47,8.79,2.7,1.68,3.17.47,7.11-2.7,8.8-3.17,1.68-7.11.47-8.8-2.7-1.68-3.17-.47-7.11,2.7-8.79Z"/>
    <path class="cls-31" d="M1130.26,372.27c3.27-1.74,7.33-.49,9.07,2.79,1.74,3.27.49,7.33-2.79,9.07-3.27,1.73-7.34.49-9.07-2.79-1.73-3.27-.49-7.33,2.79-9.07Z"/>
    <path class="cls-31" d="M1090.33,256.53c3.42-1.81,7.67-.51,9.48,2.91,1.81,3.42.51,7.67-2.91,9.48-3.42,1.81-7.67.51-9.48-2.91-1.81-3.42-.51-7.67,2.91-9.48Z"/>
    <path class="cls-31" d="M1094.17,263.35c3.52-1.87,7.89-.52,9.76,3,1.87,3.52.52,7.89-3,9.76-3.52,1.87-7.89.52-9.76-3-1.87-3.52-.52-7.89,3-9.76Z"/>
    <path class="cls-31" d="M1191.33,295.39c3.67-1.95,8.22-.55,10.17,3.12,1.95,3.67.55,8.22-3.12,10.17-3.67,1.95-8.22.55-10.17-3.12-1.94-3.67-.55-8.22,3.12-10.17Z"/>
    <path class="cls-31" d="M1258.68,336.09c3.77-2,8.45-.56,10.44,3.21,2,3.77.56,8.45-3.21,10.44-3.77,2-8.45.56-10.44-3.21-2-3.77-.56-8.45,3.21-10.44Z"/>
    <path class="cls-34" d="M794.63,111.23c2.43-1.29,5.45-.36,6.73,2.07,1.29,2.43.36,5.45-2.07,6.73-2.43,1.29-5.45.36-6.73-2.07-1.29-2.43-.36-5.45,2.07-6.73Z"/>
    <path class="cls-2" d="M810.08,131.92c2.48-1.31,5.56-.37,6.87,2.11,1.31,2.48.37,5.56-2.11,6.87-2.48,1.31-5.56.37-6.87-2.11-1.31-2.48-.37-5.56,2.11-6.87Z"/>
    <path class="cls-9" d="M833.51,84.3c2.58-1.37,5.78-.38,7.15,2.2,1.37,2.58.38,5.78-2.2,7.15-2.58,1.37-5.78.38-7.15-2.2-1.37-2.58-.38-5.78,2.2-7.15Z"/>
    <path class="cls-31" d="M1270.99,452.43c3.03-1.6,6.78-.45,8.38,2.58s.45,6.78-2.58,8.38c-3.03,1.6-6.78.45-8.38-2.58-1.6-3.03-.45-6.78,2.58-8.38Z"/>
    <path class="cls-31" d="M1198.65,249.29c3.22-1.71,7.22-.48,8.93,2.74,1.71,3.22.48,7.22-2.75,8.93s-7.22.48-8.93-2.74-.48-7.22,2.74-8.93Z"/>
    <path class="cls-31" d="M1232.44,218.61c3.27-1.74,7.33-.49,9.07,2.79,1.73,3.27.49,7.33-2.79,9.07-3.27,1.73-7.33.49-9.07-2.79-1.73-3.27-.49-7.33,2.79-9.07Z"/>
    <path class="cls-31" d="M1236.19,269.55c3.37-1.79,7.56-.5,9.34,2.87,1.79,3.37.5,7.56-2.87,9.34-3.37,1.79-7.56.5-9.34-2.87-1.79-3.37-.5-7.56,2.87-9.34Z"/>
    <path class="cls-31" d="M1240.6,196.46c3.57-1.89,8-.53,9.89,3.04,1.89,3.57.53,8-3.04,9.89-3.57,1.89-8,.53-9.89-3.04-1.89-3.57-.53-8,3.04-9.89Z"/>
    <path class="cls-31" d="M1299.06,193.66c3.67-1.94,8.22-.55,10.17,3.12,1.95,3.67.55,8.22-3.12,10.17-3.67,1.94-8.22.55-10.17-3.12-1.95-3.67-.55-8.22,3.12-10.17Z"/>
    <path class="cls-31" d="M1727.02,511.5c3.82-2.02,8.56-.57,10.58,3.25,2.02,3.82.57,8.56-3.25,10.58-3.82,2.02-8.56.57-10.58-3.25-2.02-3.82-.57-8.56,3.25-10.58Z"/>
    <path class="cls-20" d="M838.97,70.72c2.43-1.29,5.45-.36,6.73,2.07,1.29,2.43.36,5.45-2.07,6.73-2.43,1.29-5.45.36-6.73-2.07-1.29-2.43-.36-5.45,2.07-6.73Z"/>
    <path class="cls-18" d="M889.65,98.85c2.48-1.31,5.56-.37,6.87,2.11,1.31,2.48.37,5.56-2.11,6.87-2.48,1.31-5.56.37-6.87-2.11-1.31-2.48-.37-5.56,2.11-6.87Z"/>
    <path class="cls-9" d="M896.35,78.04c2.58-1.37,5.78-.38,7.15,2.2s.38,5.78-2.2,7.15-5.78.38-7.15-2.2c-1.37-2.58-.38-5.78,2.2-7.15Z"/>
    <path class="cls-26" d="M911.57,31.44c2.63-1.39,5.89-.39,7.28,2.24,1.39,2.63.39,5.89-2.24,7.28-2.63,1.39-5.89.39-7.28-2.24-1.39-2.63-.39-5.89,2.24-7.28Z"/>
    <path class="cls-31" d="M1390.7,409.36c3.03-1.6,6.78-.45,8.38,2.58,1.6,3.03.45,6.78-2.58,8.38-3.03,1.6-6.78.45-8.38-2.58-1.6-3.03-.45-6.78,2.58-8.38Z"/>
    <path class="cls-31" d="M1251.3,162.37c3.17-1.68,7.11-.47,8.79,2.7,1.68,3.18.47,7.11-2.7,8.8-3.17,1.68-7.11.47-8.79-2.7-1.68-3.17-.47-7.11,2.7-8.79Z"/>
    <path class="cls-31" d="M1321.41,63.9c3.27-1.73,7.33-.49,9.07,2.79,1.74,3.27.49,7.33-2.79,9.07-3.27,1.73-7.33.49-9.07-2.79-1.73-3.27-.49-7.33,2.79-9.07Z"/>
    <path class="cls-31" d="M1365.41,166.68c3.42-1.81,7.67-.51,9.48,2.91,1.81,3.42.51,7.67-2.91,9.48-3.42,1.81-7.67.51-9.48-2.91-1.81-3.42-.51-7.67,2.91-9.48Z"/>
    <path class="cls-31" d="M1547.31,253.78c3.47-1.84,7.78-.52,9.62,2.96,1.84,3.47.52,7.78-2.96,9.62-3.47,1.84-7.78.52-9.62-2.96-1.84-3.47-.52-7.78,2.96-9.62Z"/>
    <path class="cls-31" d="M1611.48,298.01c3.52-1.87,7.89-.52,9.76,3,1.87,3.52.52,7.89-3,9.76-3.52,1.87-7.89.52-9.76-3-1.87-3.52-.52-7.89,3-9.76Z"/>
    <path class="cls-9" d="M1026.35,10.76c2.53-1.34,5.67-.38,7.01,2.15,1.34,2.53.38,5.67-2.15,7.01s-5.67.38-7.01-2.15c-1.34-2.53-.38-5.67,2.15-7.01Z"/>
    <path class="cls-6" d="M1044.07,2.29c2.58-1.37,5.78-.38,7.15,2.2,1.37,2.58.38,5.78-2.2,7.15s-5.78.38-7.15-2.2c-1.37-2.58-.38-5.78,2.2-7.15Z"/>
    <path class="cls-31" d="M1424.15,118.4c3.03-1.6,6.78-.45,8.38,2.58,1.6,3.03.45,6.78-2.58,8.38-3.03,1.6-6.78.45-8.38-2.58-1.6-3.03-.45-6.78,2.58-8.38Z"/>
    <path class="cls-31" d="M1376.41,68.69c3.13-1.66,7-.47,8.66,2.66,1.66,3.13.47,7-2.66,8.66s-7,.47-8.66-2.66c-1.66-3.13-.46-7,2.66-8.66Z"/>
    <path class="cls-31" d="M1510.96,75.97c3.37-1.79,7.56-.5,9.34,2.87,1.79,3.37.5,7.56-2.87,9.34-3.37,1.79-7.56.5-9.34-2.87-1.79-3.37-.5-7.56,2.87-9.34Z"/>
    <path class="cls-31" d="M1640.16,220.8c3.47-1.84,7.78-.52,9.62,2.96,1.84,3.47.52,7.78-2.96,9.62-3.47,1.84-7.78.52-9.62-2.96-1.84-3.47-.52-7.78,2.96-9.62Z"/>
    <path class="cls-31" d="M1462.91,34.14c3.08-1.63,6.89-.46,8.52,2.62,1.63,3.08.46,6.89-2.62,8.52-3.08,1.63-6.89.46-8.52-2.62-1.63-3.08-.46-6.89,2.62-8.52Z"/>
    <path class="cls-1" d="M1580.02,142.91c2.78-1.47,6.22-.41,7.7,2.36,1.47,2.78.41,6.22-2.36,7.7-2.78,1.47-6.22.41-7.7-2.36-1.47-2.78-.41-6.22,2.36-7.7Z"/>
    <path class="cls-38" d="M1671.38,164.22c2.88-1.52,6.45-.43,7.97,2.45,1.52,2.88.43,6.45-2.45,7.97-2.88,1.52-6.45.43-7.97-2.45-1.52-2.88-.43-6.45,2.45-7.97Z"/>
    <path class="cls-31" d="M1688.75,52.4c2.98-1.58,6.67-.44,8.24,2.53,1.58,2.98.44,6.67-2.53,8.24-2.98,1.58-6.67.44-8.24-2.53-1.58-2.98-.44-6.67,2.53-8.25Z"/>
    <path class="cls-31" d="M908.87,755.98c-.25.13-.55.15-.82.02-.47-.21-.68-.76-.46-1.23l89.29-197.1c.21-.47.76-.67,1.23-.46.47.21.68.76.46,1.23l-89.29,197.1c-.09.19-.23.34-.41.44Z"/>
    <path class="cls-31" d="M1198.83,677.49c-.26.14-.57.18-.88.11-.68-.16-1.11-.84-.95-1.52l47.19-204.25c.16-.68.84-1.1,1.52-.95.68.16,1.11.84.95,1.52l-47.19,204.25c-.09.37-.33.67-.64.83Z"/>
    <path class="cls-31" d="M1452.88,598.31c-.16.08-.34.13-.53.12l-230.35-7.02c-.58-.02-1.05-.51-1.03-1.09.02-.59.51-1.04,1.09-1.03l230.35,7.01c.58.02,1.05.51,1.03,1.09-.01.4-.24.73-.56.9Z"/>
    <path class="cls-31" d="M1453.15,598.81c-.65.34-1.47.22-1.98-.35-.6-.67-.54-1.7.13-2.3l146.42-131.2c.66-.6,1.7-.55,2.3.13.6.67.54,1.7-.13,2.3l-146.42,131.2c-.1.09-.21.17-.32.23Z"/>
    <path class="cls-31" d="M153.34,629.76c-.26.14-.59.1-.81-.12l-14.38-13.89c-.28-.27-.28-.71-.02-.99.27-.29.71-.28.99-.02l14.38,13.89c.28.27.28.71.02.99-.05.05-.11.1-.17.13Z"/>
    <path class="cls-31" d="M879.95,702.92c-.27.14-.59.18-.9.09-.63-.19-.99-.85-.8-1.48l32.25-107.17c.19-.63.86-.98,1.48-.8.63.19.99.85.8,1.48l-32.25,107.17c-.1.32-.31.57-.58.71Z"/>
    <path class="cls-31" d="M879.82,702.66c-.23.12-.5.14-.75.04-.47-.18-.69-.71-.51-1.17l42.54-108.82c.18-.47.71-.7,1.17-.51.47.18.69.71.51,1.17l-42.54,108.82c-.08.21-.24.37-.42.47Z"/>
    <path class="cls-31" d="M922.32,593.77c-.26.14-.59.13-.86-.05-.38-.26-.47-.77-.21-1.15l132.83-192.22c.26-.37.77-.47,1.15-.21.38.26.47.77.21,1.15l-132.83,192.22c-.08.11-.18.2-.29.26Z"/>
    <path class="cls-31" d="M922.46,594.05c-.31.16-.69.18-1.02.02-.57-.27-.81-.95-.53-1.52l74.62-155.74c.28-.57.95-.8,1.52-.54.57.27.81.95.54,1.52l-74.62,155.74c-.11.23-.29.41-.49.52Z"/>
    <path class="cls-31" d="M998.15,558.85s-.03.02-.04.02l-75.79,34.99c-.45.21-.99.01-1.2-.44-.21-.45-.04-.98.44-1.2l75.79-34.99c.45-.21.99-.01,1.2.44.2.44.02.95-.4,1.18Z"/>
    <path class="cls-31" d="M998.18,558.92c-.24.13-.52.15-.8.06-.51-.18-.77-.75-.59-1.26l57.04-157.23c.19-.51.75-.77,1.26-.59.51.18.77.75.59,1.26l-57.04,157.23c-.09.24-.26.42-.46.53Z"/>
    <path class="cls-31" d="M998.1,558.76c-.11.06-.23.09-.37.09-.44,0-.8-.35-.81-.79l-1.17-120.75c0-.44.35-.8.79-.81.44,0,.8.35.81.79l1.17,120.75c0,.31-.17.58-.43.72Z"/>
    <path class="cls-31" d="M1258.9,657.76c-.12.06-.25.1-.39.11-.54.04-1.01-.37-1.05-.91l-13.01-184.77c-.04-.54.38-1,.91-1.05.54-.04,1.01.37,1.05.91l13.01,184.77c.03.4-.19.76-.52.94Z"/>
    <path class="cls-31" d="M1245.87,472.94c-.34.18-.77.14-1.06-.13-.38-.35-.41-.94-.06-1.32l166.65-183.33c.35-.38.94-.4,1.32-.06.38.35.41.94.06,1.32l-166.65,183.33c-.07.08-.16.15-.25.2Z"/>
    <path class="cls-31" d="M1412.61,289.79c-.49.26-1.1.13-1.44-.33-.38-.5-.27-1.22.23-1.59l188.01-139.55c.48-.39,1.21-.27,1.59.23.38.5.27,1.22-.24,1.59l-188.01,139.55s-.1.07-.15.1Z"/>
    <path class="cls-31" d="M1412.65,289.86c-.23.12-.5.17-.78.12-.66-.12-1.1-.74-.99-1.41l16.54-94.93c.12-.66.74-1.1,1.41-.99.66.12,1.1.74.99,1.41l-16.54,94.93c-.07.38-.31.7-.63.86Z"/>
    <path class="cls-31" d="M1599.37,467.25c-.47.25-1.07.17-1.45-.24-.46-.49-.43-1.26.05-1.72l180.35-169.2c.49-.48,1.26-.44,1.72.05.46.49.44,1.26-.05,1.72l-180.35,169.19c-.08.08-.17.14-.26.19Z"/>
    <path class="cls-31" d="M182.31,619.73c-.21.11-.47.12-.69,0-.35-.2-.47-.64-.28-.99l54.58-97.38c.2-.35.63-.47.99-.28.35.19.47.64.28.98l-54.59,97.38c-.07.13-.17.22-.29.29Z"/>
    <path class="cls-31" d="M182.22,619.57c-.08.04-.17.07-.27.06-.3,0-.54-.26-.53-.56l2.83-109.07c0-.3.25-.54.56-.53.3,0,.54.26.53.56l-2.83,109.07c0,.2-.12.38-.29.46Z"/>
    <path class="cls-31" d="M185.23,510.84c-.21.11-.47.14-.72.06-.49-.16-.76-.68-.6-1.17l30.8-95.36c.16-.49.68-.76,1.17-.6.49.16.76.68.6,1.17l-30.8,95.36c-.08.24-.24.43-.45.54Z"/>
    <path class="cls-31" d="M185.19,510.75c-.08.04-.16.07-.25.09-.45.07-.88-.23-.95-.68l-8.55-51.96c-.07-.45.23-.87.68-.95.45-.07.88.23.95.68l8.55,51.96c.06.36-.12.71-.43.87Z"/>
    <path class="cls-31" d="M176.52,458.56c-.14.07-.31.09-.47.03-.29-.11-.44-.44-.33-.73l62.94-167.15c.11-.3.44-.44.73-.33.29.11.44.44.33.73l-62.94,167.15c-.05.14-.15.24-.27.3Z"/>
    <path class="cls-31" d="M176.56,458.66c-.23.12-.52.1-.73-.07-.29-.23-.34-.65-.11-.94l43.77-54.6c.24-.29.66-.33.94-.11.29.23.34.65.11.94l-43.77,54.6c-.06.08-.13.13-.21.17Z"/>
    <path class="cls-31" d="M176.58,458.68c-.25.13-.57.1-.8-.1-.29-.26-.31-.7-.05-.99l39.35-43.4c.27-.28.7-.31.99-.05.29.26.31.7.05.99l-39.35,43.4c-.06.06-.12.11-.19.15Z"/>
    <path class="cls-31" d="M220.34,404.05c-.18.1-.4.11-.6.01-.33-.16-.48-.56-.32-.89l60.07-126.97c.15-.33.56-.48.89-.32.33.16.48.56.32.89l-60.07,126.97c-.06.14-.17.24-.29.31Z"/>
    <path class="cls-31" d="M827.75,613.31s-.06.03-.09.04l-122.92,47.88c-.44.17-.93-.05-1.11-.49-.17-.44.05-.92.49-1.11l122.92-47.88c.44-.17.93.05,1.11.49.16.41-.02.86-.4,1.06Z"/>
    <path class="cls-31" d="M877.63,570.23h0s-172.88,90.81-172.88,90.81c-.33.17-.74.05-.91-.28-.17-.33-.05-.73.28-.91h0s172.88-90.81,172.88-90.81c.33-.17.74-.05.91.28.17.33.05.73-.28.91Z"/>
    <path class="cls-31" d="M990.64,575.74c-.05.03-.11.05-.18.07l-162.95,37.46c-.39.09-.78-.15-.87-.54-.09-.39.14-.79.54-.87l162.95-37.46c.39-.09.78.15.87.54.08.33-.08.65-.37.8Z"/>
    <path class="cls-31" d="M827.76,613.33c-.38.2-.87.1-1.12-.26-.28-.39-.19-.94.2-1.23l132.7-95.86c.4-.27.95-.2,1.23.2.28.39.19.94-.2,1.23l-132.7,95.86s-.07.04-.1.06Z"/>
    <path class="cls-31" d="M827.79,613.38c-.38.2-.85.12-1.14-.22-.33-.39-.29-.98.1-1.31l49.96-42.92c.38-.33.98-.29,1.31.1.33.39.29.98-.1,1.31l-49.96,42.92c-.05.05-.11.08-.17.12Z"/>
    <path class="cls-31" d="M983.75,714.49c-.15.08-.32.12-.5.11-.53-.03-.93-.47-.91-1l7-138.54c.03-.53.46-.94,1-.91.53.03.93.47.91,1l-7,138.54c-.02.35-.22.64-.51.8Z"/>
    <path class="cls-31" d="M983.68,714.35c-.37.2-.84.07-1.06-.29l-71.66-118.95c-.23-.38-.1-.87.27-1.1.37-.18.87-.11,1.1.27l71.66,118.95c.23.38.1.87-.27,1.1-.01,0-.02.01-.04.02Z"/>
    <path class="cls-31" d="M997.01,438.17c-.27.14-.6.16-.89.02-.49-.24-.69-.83-.45-1.32l77.51-158.76c.23-.48.82-.69,1.32-.45.49.24.69.83.45,1.32l-77.51,158.76c-.09.19-.24.34-.42.44Z"/>
    <path class="cls-31" d="M997.34,438.79c-.77.41-1.74.16-2.21-.6-.49-.78-.25-1.82.53-2.32l58.21-36.48c.75-.44,1.82-.26,2.32.53.49.79.25,1.82-.53,2.32l-58.21,36.48s-.07.04-.11.06Z"/>
    <path class="cls-31" d="M1055.18,401.62c-.24.13-.54.15-.81.02-.45-.21-.65-.75-.44-1.2l103.03-219.8c.21-.45.75-.65,1.2-.44.45.21.65.75.44,1.2l-103.03,219.8c-.09.19-.23.33-.4.42Z"/>
    <path class="cls-31" d="M1055.17,401.6c-.16.09-.35.12-.55.09-.48-.07-.81-.52-.73-1l19.3-122.28c.07-.48.53-.8,1.01-.73.48.07.81.52.73,1l-19.3,122.28c-.04.28-.22.51-.46.64Z"/>
    <path class="cls-31" d="M1055.18,401.62c-.29.15-.66.14-.95-.06-.41-.29-.5-.86-.21-1.26l89.89-125.4c.29-.4.85-.5,1.26-.21.41.29.5.86.21,1.26l-89.89,125.4c-.09.12-.19.21-.31.27Z"/>
    <path class="cls-31" d="M1145.09,276.24c-.16.08-.34.12-.53.1-.51-.05-.89-.5-.84-1.02l24.98-262.65c.05-.51.5-.88,1.02-.84.51.05.89.5.84,1.02l-24.98,262.65c-.03.32-.22.59-.49.73Z"/>
    <path class="cls-31" d="M1145.06,276.2c-.16.08-.34.12-.53.09-.48-.07-.82-.51-.75-.99l13.14-94.4c.07-.48.51-.82.99-.75.48.07.82.51.75.99l-13.14,94.4c-.04.29-.22.53-.46.65Z"/>
    <path class="cls-31" d="M1233.68,241.09s-.07.04-.11.05l-88.52,35.29c-.56.22-1.19-.05-1.41-.61-.22-.56.09-1.21.61-1.41l88.52-35.29c.56-.22,1.19.05,1.41.61.21.52-.02,1.11-.5,1.36Z"/>
    <path class="cls-31" d="M1342.4,0l-110.08,239.74c-.21.47,0,1.02.46,1.24.28.12.58.11.83-.02.17-.09.32-.24.41-.43L1344.45,0h-2.05Z"/>
    <path class="cls-31" d="M1429.21,194.98c-.42.22-.96.2-1.36-.11-.56-.42-.66-1.22-.24-1.78l118.31-154.27c.43-.56,1.22-.66,1.78-.23.56.42.66,1.22.24,1.78l-118.31,154.27c-.12.15-.26.27-.41.35Z"/>
    <path class="cls-31" d="M1600.73,150.45c-.09.05-.19.09-.3.11l-171.47,44.62c-.73.19-1.48-.25-1.67-.98-.19-.73.25-1.48.98-1.67l171.47-44.62c.73-.19,1.48.25,1.67.98.16.63-.13,1.27-.68,1.56Z"/>
    <path class="cls-31" d="M1725.67,0l-126.47,148.48c-.42.49-.36,1.22.13,1.64.37.32.89.36,1.3.14.13-.07.24-.16.34-.27L1728.72,0h-3.06Z"/>
    <path class="cls-31" d="M1600.6,150.22s-.02.01-.04.02c-.55.27-1.22.04-1.49-.52l-53.16-109.65c-.27-.55-.13-1.13.52-1.49.55-.27,1.22-.04,1.49.52l53.16,109.65c.26.54.05,1.19-.48,1.47Z"/>
    <path class="cls-31" d="M182.99,629.48c-.25.13-.57.04-.7-.21-.13-.25-.04-.57.21-.7l105.49-56.02c.25-.13.57-.04.7.22.13.25.04.57-.21.7l-105.49,56.02Z"/>
    <path class="cls-31" d="M183,629.51c-.21.11-.47.07-.65-.11-.21-.22-.2-.56.02-.77l83.08-79c.21-.21.56-.2.77.02.21.22.2.56-.02.77l-83.08,79s-.08.06-.12.09Z"/>
    <path class="cls-31" d="M185.42,659.03c-.08.05-.18.07-.28.08-.4.03-.75-.26-.78-.67l-2.33-29.36c-.03-.4.26-.75.67-.78.4-.03.75.27.78.67l2.33,29.36c.02.3-.13.57-.38.7Z"/>
    <path class="cls-31" d="M185.33,658.87c-.22.12-.51.07-.67-.13-.19-.23-.16-.57.07-.77l103.16-85.38c.25-.2.58-.16.77.07.19.23.16.57-.07.77l-103.16,85.38s-.06.04-.09.06Z"/>
    <path class="cls-31" d="M257.8,570.49c-.29.15-.65.04-.8-.24-.16-.29-.05-.65.24-.81l98.82-53.63s0,0,0,0c.29-.15.65-.05.8.24.16.29.05.65-.24.81l-98.82,53.63s0,0,0,0Z"/>
    <path class="cls-31" d="M288.47,573.45c-.08.04-.18.06-.28.05l-30.72-3.05c-.27-.03-.47-.27-.44-.54.03-.27.27-.46.54-.44l30.72,3.05c.27.03.47.27.44.54-.02.17-.12.31-.26.39Z"/>
    <path class="cls-31" d="M257.85,570.58s-.03.02-.05.03c-.36.15-.76,0-.92-.36l-20.97-48.25c-.15-.35.02-.73.36-.92.36-.15.77,0,.92.36l20.97,48.25c.14.34,0,.73-.31.9Z"/>
    <path class="cls-31" d="M236.81,522.19c-.23.12-.53.06-.69-.16-.18-.24-.13-.58.11-.76l123.05-90.63c.27-.18.58-.13.76.11.18.24.13.58-.11.76l-123.05,90.63s-.05.03-.07.04Z"/>
    <path class="cls-31" d="M215.89,415.21c-.12.06-.26.09-.41.06-.34-.06-.56-.39-.49-.73l23.59-123.75c.07-.33.39-.55.73-.49.34.06.56.39.49.73l-23.59,123.75c-.04.19-.16.35-.32.43Z"/>
    <path class="cls-31" d="M215.94,415.3c-.34.18-.76.06-.96-.27-.2-.34-.09-.79.26-.99l89.2-52.68s.02-.01.03-.02c.34-.18.76-.06.96.27.2.34.09.79-.26.99l-89.2,52.68s-.02.01-.03.02Z"/>
    <path class="cls-31" d="M280.56,277.38s-.09.05-.14.06l-40.9,14.43c-.53.18-1.1-.09-1.29-.62-.18-.53.09-1.1.62-1.29l40.9-14.43c.53-.18,1.1.09,1.29.62.17.48-.04,1-.48,1.23Z"/>
    <path class="cls-31" d="M325.86,263.87s-.09.04-.13.06l-86.29,27.78c-.44.14-.9-.1-1.04-.53-.14-.44.11-.9.53-1.04l86.29-27.78c.44-.14.9.1,1.04.53.12.39-.05.8-.4.99Z"/>
    <path class="cls-31" d="M408.88,232.73s-.07.03-.1.04l-128.46,44.37c-.36.13-.76-.07-.89-.43-.13-.36.07-.74.43-.89l128.46-44.37c.36-.13.76.07.89.43.11.33-.03.69-.33.84Z"/>
    <path class="cls-31" d="M325.77,263.69s-.08.03-.12.05l-45.39,13.35c-.33.1-.67-.09-.77-.42-.1-.33.08-.67.42-.77l45.39-13.35c.33-.1.67.09.77.42.08.29-.05.59-.3.72Z"/>
    <path class="cls-31" d="M493.79,401c-.06.03-.12.05-.18.07l-104.71,21.67c-.37.08-.72-.16-.8-.52-.07-.37.17-.72.52-.8l104.71-21.67c.37-.08.72.16.8.52.06.3-.09.6-.34.73Z"/>
    <path class="cls-31" d="M493.8,401.02c-.19.1-.42.11-.63.01-.35-.16-.5-.58-.33-.93l67.23-141.46c.16-.34.58-.5.93-.33.35.16.5.58.33.93l-67.23,141.46c-.07.14-.17.25-.3.32Z"/>
    <path class="cls-31" d="M493.77,400.98c-.26.14-.58.09-.78-.14-.24-.27-.22-.68.05-.91l126.74-113.41c.26-.24.67-.21.91.05.24.27.22.68-.05.91l-126.74,113.4s-.08.07-.13.09Z"/>
    <path class="cls-31" d="M545.22,347.4c-.17.09-.37.13-.57.09-.48-.09-.8-.54-.71-1.02l15.89-87.68c.09-.48.55-.79,1.02-.71.48.09.8.54.71,1.02l-15.89,87.68c-.05.28-.22.5-.45.62Z"/>
    <path class="cls-31" d="M770.83,535.42c-.1.05-.22.09-.34.1l-88.42,9c-.51.05-.97-.32-1.02-.83-.05-.51.31-.96.83-1.02l88.41-9c.51-.05.97.32,1.02.83.04.39-.17.75-.49.92Z"/>
    <path class="cls-31" d="M770.71,535.19c-.28.15-.64.08-.84-.18-.23-.29-.18-.71.11-.94l147.82-116.18c.3-.24.72-.18.94.11.23.29.18.71-.11.94l-147.82,116.18s-.07.05-.1.06Z"/>
    <path class="cls-31" d="M770.83,535.42c-.28.15-.64.15-.93-.03-.44-.27-.57-.85-.3-1.28l75.84-121.75c.27-.44.85-.57,1.28-.3.44.27.57.84.3,1.28l-75.84,121.75c-.09.14-.21.26-.35.33Z"/>
    <path class="cls-31" d="M877.76,570.48c-.44.23-.98.09-1.25-.33-.29-.45-.16-1.04.29-1.32l82.74-52.93c.51-.26,1.04-.15,1.32.29.28.45.16,1.04-.29,1.32l-82.74,52.93s-.05.03-.07.04Z"/>
    <path class="cls-31" d="M877.66,570.29c-.16.09-.36.11-.55.06-.4-.11-.64-.52-.53-.92l40.9-151.21c.11-.4.52-.63.92-.53.4.11.64.52.53.92l-40.9,151.21c-.06.21-.2.37-.37.47Z"/>
    <path class="cls-31" d="M960.41,517.39c-.29.15-.65.11-.9-.12-.31-.3-.32-.79-.02-1.1l120.84-126.27c.31-.3.79-.32,1.1-.02.31.3.32.79.02,1.1l-120.84,126.27c-.06.06-.13.11-.2.15Z"/>
    <path class="cls-31" d="M990.77,575.97s0,0,0,0c-.48.25-1.07.06-1.32-.42l-30.25-58.4c-.25-.48-.06-1.07.41-1.32,0,0,0,0,0,0,.48-.25,1.07-.06,1.32.42l30.25,58.4c.25.48.06,1.07-.41,1.32Z"/>
    <path class="cls-31" d="M997.1,193.03c-.26.14-.59.15-.88,0-.45-.24-.62-.81-.38-1.26l89.98-167.79c.24-.44.81-.62,1.26-.38.45.24.62.81.38,1.26l-89.98,167.79c-.09.17-.22.3-.38.38Z"/>
    <path class="cls-31" d="M1074.54,279.46c-.36.19-.83.16-1.16-.13-.43-.37-.48-1.03-.11-1.46l83.73-97.52c.37-.44,1.03-.48,1.46-.11.43.37.48,1.03.11,1.46l-83.73,97.52c-.09.1-.19.18-.3.24Z"/>
    <path class="cls-31" d="M1210.47,0l-53.52,180.77c-.14.47.13.95.59,1.09.23.07.47.04.66-.07.2-.11.36-.29.43-.53L1212.3,0h-1.84Z"/>
    <path class="cls-31" d="M1158.26,181.91c-.16.09-.35.13-.54.12-.56-.04-.98-.52-.94-1.08l11.85-168.26c.04-.56.53-.98,1.08-.94.56.04.98.52.94,1.08l-11.85,168.26c-.03.36-.24.66-.53.82Z"/>
    <path class="cls-31" d="M1700.8,0l-154.2,38.28c-.73.19-1.16.91-.98,1.63.18.72.91,1.16,1.63.98L1711.97,0h-11.17Z"/>
    <path class="cls-31" d="M378.31,511.55s-.05.02-.08.04l-112.22,38.99c-.3.1-.62-.05-.73-.35-.11-.3.06-.61.35-.73l112.22-38.99c.3-.1.62.05.73.35.09.27-.03.56-.27.69Z"/>
    <path class="cls-31" d="M266.22,550.78c-.39.21-.89.08-1.13-.31-.25-.4-.12-.92.28-1.17l63.02-38.69c.42-.24.93-.12,1.17.28.25.4.12.92-.28,1.17l-63.02,38.69s-.03.02-.05.03Z"/>
    <path class="cls-31" d="M288.48,573.47c-.2.11-.45.07-.61-.1l-22.41-22.98c-.2-.21-.19-.53,0-.73.22-.2.53-.19.73,0l22.41,22.98c.2.21.19.53,0,.73-.04.03-.08.06-.12.09Z"/>
    <path class="cls-31" d="M288.53,573.56c-.25.13-.58.08-.77-.15-.22-.26-.18-.66.08-.88l68.1-56.68c.27-.21.66-.18.88.08.22.26.18.66-.08.88l-68.1,56.68s-.07.05-.11.07Z"/>
    <path class="cls-31" d="M461.15,487.9s-.09.04-.13.05l-104.49,29.03c-.36.1-.73-.11-.83-.47-.1-.36.11-.73.47-.83l104.49-29.03c.36-.1.73.11.83.47.09.31-.06.63-.33.77Z"/>
    <path class="cls-31" d="M359.97,431.79c-.35.18-.78.09-1.02-.23-.26-.36-.19-.86.17-1.12l78.75-58.07c.4-.27.86-.18,1.12.17.26.36.19.86-.17,1.12l-78.75,58.07s-.07.04-.1.06Z"/>
    <path class="cls-31" d="M472.62,433.56c-.09.05-.19.07-.3.07l-112.73-1.93c-.34,0-.62-.29-.61-.63,0-.34.29-.61.63-.61l112.73,1.93c.34,0,.62.29.61.63,0,.23-.14.44-.33.54Z"/>
    <path class="cls-31" d="M359.88,431.61c-.25.13-.57.07-.75-.16l-54.79-69.1c-.2-.26-.16-.63.1-.84.27-.2.63-.16.84.1l54.79,69.1c.2.26.16.63-.1.84-.03.02-.06.04-.09.06Z"/>
    <path class="cls-31" d="M438.6,373.5c-.09.05-.19.07-.3.06l-133.54-11.03c-.3-.02-.52-.29-.5-.59.03-.3.29-.52.59-.5l133.54,11.03c.3.03.52.29.5.59-.02.19-.13.35-.29.43Z"/>
    <path class="cls-31" d="M305.13,362.6c-.14.07-.3.1-.47.07-.38-.08-.62-.45-.54-.83l20.67-98.85c.08-.38.45-.62.83-.54.38.08.62.45.54.83l-20.67,98.85c-.05.21-.18.38-.36.47Z"/>
    <path class="cls-31" d="M408.87,232.71s-.05.03-.08.04l-83.07,31.02c-.35.13-.74-.05-.87-.39-.13-.35.05-.76.39-.87l83.07-31.02c.35-.13.74.05.87.39.12.32-.02.67-.32.83Z"/>
    <path class="cls-31" d="M544.69,251.08c-.13.07-.27.09-.42.07l-135.81-18.35c-.38-.05-.65-.4-.6-.79.05-.38.4-.65.79-.6l135.81,18.35c.38.05.65.4.6.79-.03.23-.17.42-.36.52Z"/>
    <path class="cls-31" d="M498.28,253.81c-.14.08-.32.1-.49.06l-89.4-21.08c-.37-.09-.61-.46-.52-.84.09-.38.46-.61.84-.52l89.4,21.08c.37.09.61.46.52.84-.05.21-.18.36-.35.46Z"/>
    <path class="cls-31" d="M622.58,261.31c-.12.07-.26.1-.41.09l-124.27-7.43c-.43-.02-.75-.39-.73-.82.03-.43.4-.76.82-.73l124.27,7.43c.43.03.75.39.73.82-.02.28-.18.52-.41.64Z"/>
    <path class="cls-31" d="M544.7,251.1c-.09.05-.19.07-.3.08l-46.41,2.73c-.4.02-.74-.28-.77-.68-.02-.4.29-.74.68-.77l46.41-2.73c.4-.02.74.28.77.68.02.29-.14.55-.38.68Z"/>
    <path class="cls-31" d="M771.44,219.82s-.02.01-.04.02l-150.92,67.77c-.34.15-.74,0-.89-.34-.15-.34.03-.73.34-.89l150.92-67.77c.34-.15.74,0,.89.34.14.33.01.71-.3.87Z"/>
    <path class="cls-31" d="M726.9,273.42c-.09.05-.18.08-.29.09l-106.3,14.34c-.47.06-.9-.26-.96-.73-.06-.47.27-.89.73-.96l106.3-14.34c.47-.06.9.27.96.73.05.36-.14.71-.45.87Z"/>
    <path class="cls-31" d="M620.51,287.57c-.1.06-.22.08-.35.07-.35-.03-.62-.34-.59-.69l2.01-26.38c.02-.35.34-.62.69-.59.35.03.62.34.59.69l-2.01,26.37c-.02.23-.15.42-.34.52Z"/>
    <path class="cls-31" d="M620.63,287.8c-.24.13-.54.15-.81.02l-59.51-28.06c-.45-.21-.64-.75-.43-1.2.21-.45.75-.64,1.2-.43l59.51,28.06c.45.21.64.75.43,1.2-.09.18-.23.32-.4.41Z"/>
    <path class="cls-31" d="M829.29,242.8c-.13.07-.28.11-.44.09l-132.91-11.36c-.44-.04-.77-.43-.73-.87.04-.44.43-.77.87-.73l132.91,11.36c.44.04.77.43.73.87-.03.28-.19.52-.42.64Z"/>
    <path class="cls-31" d="M918.67,419.29c-.16.09-.34.13-.54.11l-71.98-5.57c-.54-.04-.95-.51-.91-1.05.04-.54.52-.95,1.06-.91l71.98,5.57c.54.04.95.52.91,1.06-.03.35-.23.64-.52.79Z"/>
    <path class="cls-31" d="M1081.29,391.18c-.29.15-.66.13-.94-.09-.37-.3-.42-.84-.13-1.2l38.66-47.75c.31-.37.84-.42,1.2-.13.37.3.42.84.13,1.2l-38.66,47.75c-.07.09-.16.16-.26.22Z"/>
    <path class="cls-31" d="M1111,0l-24.98,23.76c-.36.34-.38.92-.03,1.28.29.3.73.36,1.08.17.07-.04.14-.08.2-.14l26.35-25.07h-2.63Z"/>
    <path class="cls-31" d="M1142.05,0l-55.92,23.15c-.64.26-1.03,1.09-.74,1.79.29.7,1.09,1.03,1.79.74l62.04-25.68h-7.16Z"/>
    <path class="cls-31" d="M1203.92,6.7c-.09.05-.19.08-.29.1l-116.84,18.54c-.51.08-.99-.27-1.07-.77-.08-.51.28-.98.77-1.07l116.84-18.54c.51-.08.99.27,1.07.77.06.4-.14.79-.48.97Z"/>
    <path class="cls-31" d="M329.11,511.84c-.26.14-.59.05-.75-.2-.16-.27-.08-.62.18-.78l86.85-54.07s.02-.01.04-.02c.26-.14.59-.05.75.2.16.27.08.62-.18.78l-86.85,54.07s-.02.01-.04.02Z"/>
    <path class="cls-31" d="M378.45,511.82c-.12.07-.26.1-.41.1l-49.2.3c-.49,0-.88-.39-.89-.87,0-.49.41-.87.87-.89l49.2-.3c.49,0,.88.39.89.87,0,.34-.19.63-.47.78Z"/>
    <path class="cls-31" d="M495.57,484.69s-.09.04-.13.05l-117.28,26.83c-.29.07-.58-.12-.65-.41-.07-.29.12-.58.41-.65l117.28-26.83c.29-.07.58.12.65.41.06.24-.06.49-.28.6Z"/>
    <path class="cls-31" d="M378.27,511.48c-.16.08-.36.08-.51-.03-.22-.16-.28-.46-.12-.68l37.65-53.78c.16-.23.46-.28.68-.12.22.16.28.46.12.68l-37.65,53.78c-.05.07-.11.12-.17.15Z"/>
    <path class="cls-31" d="M592.2,450.6s-.07.03-.1.04l-131.13,37.16c-.27.08-.56-.08-.64-.36-.08-.27.07-.56.36-.64l131.13-37.16c.27-.08.56.08.64.36.07.24-.04.49-.25.6Z"/>
    <path class="cls-31" d="M542.82,491.15c-.09.05-.2.08-.32.07l-81.7-3.3c-.34-.01-.61-.3-.59-.65.01-.34.3-.61.65-.59l81.7,3.3c.34.01.61.3.59.65,0,.23-.14.42-.33.52Z"/>
    <path class="cls-31" d="M461.15,487.9c-.13.07-.29.1-.45.06-.36-.08-.6-.43-.52-.8l11.49-54.3c.07-.36.43-.6.8-.52.36.08.6.43.52.8l-11.49,54.3c-.04.2-.17.36-.34.45Z"/>
    <path class="cls-31" d="M592.24,450.67c-.11.06-.23.08-.36.06l-119.64-17.14c-.32-.05-.55-.35-.5-.67.05-.32.34-.55.67-.5l119.64,17.14c.32.05.55.35.5.67-.03.19-.15.35-.31.44Z"/>
    <path class="cls-31" d="M472.65,433.63c-.33.18-.75.06-.93-.27l-33.98-60c-.19-.34-.07-.76.26-.95,0,0,.01,0,.02,0,.33-.18.75-.06.93.27l33.98,59.99c.19.34.07.76-.26.95,0,0-.01,0-.02,0Z"/>
    <path class="cls-31" d="M541.59,300.6c-.1.05-.21.08-.33.07-.34-.02-.6-.32-.58-.66l3.06-49.59c.03-.34.32-.6.66-.58.34.02.6.32.58.66l-3.06,49.59c-.02.23-.14.41-.33.51Z"/>
    <path class="cls-31" d="M735.58,253.32c-.09.05-.2.08-.31.09l-113,7.99c-.43.03-.8-.29-.83-.72-.03-.43.3-.8.72-.83l113-7.99c.43-.03.8.29.83.72.02.32-.15.6-.41.74Z"/>
    <path class="cls-31" d="M726.83,273.28c-.12.06-.26.09-.41.08l-104.28-12.04c-.38-.05-.66-.39-.61-.78.04-.39.39-.66.78-.61l104.28,12.04c.38.05.66.39.61.77-.03.24-.17.43-.37.54Z"/>
    <path class="cls-31" d="M726.83,273.28c-.27.14-.61.1-.83-.13-.27-.27-.26-.72.01-.99l102.89-100.43c.27-.27.72-.26.99.01.27.28.26.72-.01.99l-102.89,100.43s-.1.09-.16.12Z"/>
    <path class="cls-31" d="M726.81,273.24c-.17.09-.37.1-.56.02-.33-.14-.48-.52-.34-.85l8.71-20.03c.15-.33.53-.48.85-.34.33.14.48.52.34.85l-8.71,20.03c-.06.14-.17.25-.29.31Z"/>
    <path class="cls-31" d="M727.01,273.62c-.38.2-.86.16-1.2-.12-.46-.38-.52-1.07-.14-1.53l44.62-53.44c.39-.46,1.07-.52,1.53-.14.46.38.52,1.07.14,1.53l-44.62,53.44c-.09.11-.21.2-.33.26Z"/>
    <path class="cls-31" d="M771.47,219.89c-.34.18-.76.08-.97-.25-.23-.34-.14-.81.21-1.04l125.75-84.01c.32-.23.81-.14,1.04.21.23.34.14.81-.21,1.04l-125.75,84.01s-.04.03-.06.04Z"/>
    <path class="cls-31" d="M771.44,219.82c-.28.15-.63.08-.84-.17-.23-.29-.19-.71.1-.94l58.28-46.99c.28-.24.71-.19.94.1.23.29.19.71-.1.94l-58.28,46.99s-.07.05-.11.07Z"/>
    <path class="cls-31" d="M829.27,242.76c-.33.18-.76.08-.97-.24-.23-.34-.14-.81.2-1.04l131.86-88.97c.33-.21.81-.14,1.04.2.23.34.14.81-.2,1.04l-131.86,88.97s-.04.03-.07.04Z"/>
    <path class="cls-31" d="M971.91,257.94c-.11.06-.24.09-.37.07l-142.69-15.27c-.35-.04-.61-.36-.57-.71.04-.36.36-.61.71-.57l142.69,15.27c.35.04.61.36.57.71-.02.22-.16.41-.34.5Z"/>
    <path class="cls-31" d="M972.2,258.48c-.52.27-1.17.16-1.56-.3-.45-.53-.39-1.33.15-1.79l73.69-62.63c.54-.46,1.33-.38,1.79.15.45.53.39,1.33-.15,1.79l-73.69,62.63c-.07.06-.15.11-.23.15Z"/>
    <path class="cls-31" d="M971.91,257.94c-.07.04-.15.06-.24.07-.36.04-.67-.22-.71-.58l-10.83-104.24c-.04-.35.21-.67.58-.71.35-.04.67.22.71.58l10.83,104.24c.03.27-.11.52-.34.64Z"/>
    <path class="cls-31" d="M971.91,257.94c-.26.14-.58.09-.79-.14-.24-.27-.21-.68.05-.91l73.53-65.54c.25-.24.67-.21.91.05.24.27.21.68-.05.91l-73.53,65.54s-.08.06-.13.09Z"/>
    <path class="cls-31" d="M1045.69,192.88c-.42.22-.95.18-1.34-.15-.5-.43-.55-1.18-.12-1.68l56.53-65.27c.43-.5,1.18-.55,1.68-.12.5.43.55,1.18.12,1.68l-56.53,65.27c-.1.12-.21.21-.34.27Z"/>
    <path class="cls-31" d="M1093.46,0l7.32,126.61c.03.49.44.85.93.83.13,0,.25-.04.36-.1.29-.16.49-.47.47-.83l-7.31-126.5h-1.76Z"/>
    <path class="cls-31" d="M1166.16,0h-2.77l34.86,44.07c.33.42.9.53,1.36.29.06-.03.11-.07.17-.11.47-.37.55-1.05.18-1.53L1166.16,0Z"/>
    <path class="cls-31" d="M541.57,428.42s-.08.04-.12.05l-125.63,29.3c-.28.07-.56-.11-.62-.38-.07-.28.11-.57.39-.62l125.63-29.3c.28-.07.56.11.62.38.06.23-.06.47-.26.58Z"/>
    <path class="cls-31" d="M495.6,484.74c-.14.07-.31.09-.47.04l-79.62-26.95c-.31-.11-.48-.44-.37-.75.11-.31.45-.48.75-.37l79.63,26.95c.31.11.48.44.37.75-.05.15-.16.27-.29.34Z"/>
    <path class="cls-31" d="M616.05,453.27s-.07.03-.11.04l-120.49,31.4c-.28.07-.56-.09-.63-.37-.07-.27.08-.56.37-.63l120.49-31.4c.28-.07.56.09.63.37.06.24-.05.48-.26.59Z"/>
    <path class="cls-31" d="M495.58,484.72c-.2.1-.44.09-.63-.06-.24-.2-.28-.56-.08-.8l46.01-56.25c.19-.24.55-.28.8-.08.24.2.28.56.08.8l-46.01,56.25c-.05.06-.11.11-.17.14Z"/>
    <path class="cls-31" d="M542.79,491.08c-.1.05-.21.07-.33.06l-47.21-6.39c-.3-.04-.51-.31-.47-.61.04-.3.32-.5.61-.47l47.21,6.39c.3.04.51.31.47.61-.02.18-.13.33-.28.41Z"/>
    <path class="cls-31" d="M669.89,473.89c-.06.03-.12.05-.18.06l-127.1,17.19c-.3.04-.57-.17-.61-.46-.04-.3.17-.58.46-.61l127.1-17.19c.3-.04.57.17.61.46.03.23-.09.45-.28.55Z"/>
    <path class="cls-31" d="M542.77,491.06c-.21.11-.48.06-.64-.13-.18-.22-.15-.55.07-.73l49.43-40.46c.2-.19.54-.15.73.07.18.22.15.55-.07.73l-49.43,40.46s-.06.04-.08.06Z"/>
    <path class="cls-31" d="M592.23,450.65c-.14.07-.3.09-.46.03-.3-.11-.45-.43-.34-.73l24.64-67.48c.1-.3.43-.45.73-.34.3.11.45.43.34.73l-24.64,67.48c-.05.14-.15.24-.27.31Z"/>
    <path class="cls-31" d="M694.2,346.74s-.02.01-.03.01l-77.26,36.57c-.36.17-.79.02-.96-.34-.17-.35-.03-.77.31-.95,0,0,.02-.01.03-.01l77.26-36.57c.36-.17.79-.02.96.34.17.35.03.77-.31.95Z"/>
    <path class="cls-31" d="M694.18,346.7c-.16.09-.36.11-.55.04-.35-.13-.53-.52-.4-.86l19.71-52.89c.13-.34.52-.52.87-.4.35.13.53.52.4.87l-19.71,52.89c-.06.16-.18.28-.32.36Z"/>
    <path class="cls-31" d="M782.23,369.58c-.18.09-.39.12-.59.07l-87.98-22.75c-.44-.11-.71-.57-.59-1.01s.56-.71,1.01-.59l87.98,22.75c.44.11.71.57.59,1.01-.06.24-.21.42-.41.53Z"/>
    <path class="cls-31" d="M859.78,289.71c-.08.04-.17.07-.27.07l-145.92,4.04c-.34.01-.63-.26-.64-.6,0-.35.26-.64.6-.64l145.92-4.04c.34-.01.63.26.64.6,0,.25-.13.46-.33.57Z"/>
    <path class="cls-31" d="M858.78,261.54c-.09.05-.2.07-.31.06l-123.29-8.41c-.31-.02-.55-.29-.53-.61.02-.32.3-.55.61-.53l123.29,8.41c.31.02.55.29.53.61-.01.2-.13.37-.3.46Z"/>
    <path class="cls-31" d="M735.55,253.25c-.28.15-.64.09-.86-.17-.25-.29-.21-.73.08-.98l94.18-80.39c.29-.24.73-.22.98.08.25.29.21.73-.08.98l-94.18,80.39s-.08.06-.13.09Z"/>
    <path class="cls-31" d="M896.97,146.9s-.08.04-.13.06l-67,26.41c-.62.25-1.33-.06-1.58-.69-.25-.62.02-1.32.69-1.58l67-26.41c.62-.25,1.33.06,1.58.69.23.58-.02,1.23-.56,1.52Z"/>
    <path class="cls-31" d="M829.76,172.92c-.37.2-.84.06-1.04-.31-.21-.37-.07-.85.31-1.05l67.47-37.02s0,0,0,0c.37-.2.84-.06,1.04.31.21.37.07.85-.31,1.05l-67.47,37.02s0,0,0,0Z"/>
    <path class="cls-31" d="M984.52,95.89s-.03.02-.05.03l-87.18,40.21c-.5.23-1.11.01-1.34-.49-.23-.51.02-1.07.49-1.34l87.18-40.21c.5-.23,1.11-.01,1.34.49.23.49.03,1.06-.44,1.31Z"/>
    <path class="cls-31" d="M961.08,153.69c-.14.07-.31.1-.48.05l-63.91-17.9c-.34-.09-.54-.45-.45-.8.09-.34.45-.55.79-.45l63.91,17.9c.34.09.55.45.45.79-.05.18-.17.32-.32.4Z"/>
    <path class="cls-31" d="M896.71,146.42c-.1.05-.22.08-.34.08-.37-.02-.66-.33-.64-.7l.48-10.61c.02-.37.33-.66.7-.64.37.02.66.33.64.7l-.48,10.61c0,.25-.15.46-.36.56Z"/>
    <path class="cls-31" d="M1045.62,195.35c-.19.1-.43.11-.64,0l-84.52-41.61c-.35-.17-.49-.59-.32-.93.17-.34.59-.49.93-.32l84.52,41.61c.35.17.49.59.32.93-.07.14-.17.24-.3.31Z"/>
    <path class="cls-31" d="M1010,0l-49.86,152.92c-.12.35.08.73.43.85.18.06.37.04.52-.05.15-.08.27-.21.32-.39L1011.41,0h-1.41Z"/>
    <path class="cls-31" d="M620.87,400.5s-.06.03-.09.04l-79.23,28.07c-.35.12-.73-.06-.86-.41-.13-.35.05-.75.41-.86l79.23-28.07c.35-.12.73.06.86.41.11.32-.03.66-.32.82Z"/>
    <path class="cls-31" d="M616.13,453.43c-.16.09-.36.11-.55.05l-74.48-24.84c-.37-.12-.56-.52-.44-.88.12-.37.52-.57.88-.44l74.48,24.84c.37.12.56.52.44.88-.06.18-.18.31-.34.4Z"/>
    <path class="cls-31" d="M723.3,448.55c-.08.04-.17.07-.26.07l-107.2,4.81c-.34.02-.63-.25-.65-.59-.02-.34.25-.63.59-.65l107.2-4.81c.34-.02.63.25.65.59.01.25-.12.47-.33.58Z"/>
    <path class="cls-31" d="M616.07,453.31c-.09.05-.2.08-.32.07-.31-.03-.54-.31-.52-.62l4.75-52.91c.03-.31.3-.55.62-.52.31.03.55.31.52.62l-4.75,52.91c-.02.2-.14.36-.3.45Z"/>
    <path class="cls-31" d="M723.25,448.46s-.01,0-.02.01l-53.38,25.41c-.26.12-.57.01-.69-.25-.12-.26,0-.57.25-.69l53.38-25.41c.26-.12.57-.01.69.25.12.25.02.55-.23.68Z"/>
    <path class="cls-31" d="M811.93,454.28c-.13.07-.28.1-.44.08l-58.07-7.77c-.4-.05-.67-.42-.62-.81.06-.4.42-.67.81-.62l58.07,7.77c.4.05.67.42.62.81-.03.24-.18.44-.38.54Z"/>
    <path class="cls-31" d="M753.89,446.58c-.29.16-.66.12-.92-.12-.33-.3-.35-.81-.04-1.13l26.82-29.05c.3-.34.81-.35,1.13-.05.33.3.35.81.05,1.13l-26.82,29.05c-.06.07-.13.13-.21.17Z"/>
    <path class="cls-31" d="M780.68,417.46c-.11.06-.23.09-.36.08-.4-.01-.72-.35-.7-.75l1.5-47.96c.01-.4.35-.71.75-.7.4.01.71.35.7.75l-1.5,47.96c0,.27-.16.5-.38.62Z"/>
    <path class="cls-31" d="M927.92,336.23s-.08.04-.13.05l-145.82,33.1c-.29.07-.58-.12-.65-.41-.07-.29.12-.59.41-.65l145.82-33.1c.29-.07.58.12.65.41.06.24-.06.49-.28.6Z"/>
    <path class="cls-31" d="M859.92,289.96c-.26.14-.58.15-.86,0-.44-.24-.6-.79-.36-1.23l45.34-82.7c.24-.43.79-.6,1.23-.36.44.24.6.79.36,1.23l-45.34,82.7c-.09.16-.22.28-.37.36Z"/>
    <path class="cls-31" d="M859.91,289.94c-.11.06-.24.1-.38.1-.49.02-.89-.36-.91-.85l-.98-28.12c-.02-.49.36-.89.85-.91.49-.02.89.36.91.85l.98,28.12c.01.35-.18.65-.47.81Z"/>
    <path class="cls-31" d="M1017.8,246.19c-.07.03-.14.06-.21.06l-159.02,15.36c-.31.03-.59-.2-.62-.51-.03-.32.2-.59.51-.62l159.02-15.36c.31-.03.59.2.62.51.02.24-.1.45-.3.56Z"/>
    <path class="cls-31" d="M896.73,146.46c-.34.18-.77.06-.97-.28-.2-.35-.08-.79.26-.99l87.65-50.82s.02,0,.02-.01c.34-.18.77-.06.97.28.2.35.08.79-.26.99l-87.65,50.82s-.02,0-.02.01Z"/>
    <path class="cls-31" d="M1087.48,75.91c-.07.04-.15.07-.24.08l-103.03,19.85c-.46.09-.91-.21-1-.68-.09-.46.21-.92.68-1l103.03-19.85c.46-.09.91.21,1,.68.07.38-.11.74-.44.92Z"/>
    <path class="cls-31" d="M1011.19,0l-27.76,94.82c-.1.34.1.7.44.8.17.05.34.03.49-.05.15-.08.27-.21.32-.39L1012.54,0h-1.35Z"/>
    <path class="cls-31" d="M718.83,371.08s-.06.03-.09.04l-98.03,29.28c-.27.08-.56-.07-.64-.35-.08-.27.06-.56.35-.64l98.03-29.28c.27-.08.56.07.64.35.07.24-.04.49-.25.61Z"/>
    <path class="cls-31" d="M829.48,458.32c-.09.05-.19.07-.29.06l-106.23-9.86c-.29-.03-.49-.28-.47-.56.02-.29.28-.5.56-.47l106.23,9.86c.29.03.49.28.47.56-.02.18-.12.33-.27.41Z"/>
    <path class="cls-31" d="M929.04,432.57s-.08.04-.13.05l-99.52,25.82c-.32.08-.64-.11-.72-.42-.08-.32.11-.64.42-.73l99.52-25.82c.32-.08.64.11.73.42.07.27-.06.55-.3.68Z"/>
    <path class="cls-31" d="M886.92,436.45s-.05.03-.07.03l-57.37,22c-.35.13-.74-.04-.87-.39-.13-.34-.02-.75.39-.87l57.37-22c.35-.13.73.04.87.39.12.32-.02.68-.31.83Z"/>
    <path class="cls-31" d="M829.47,458.29c-.18.09-.41.07-.57-.07-.2-.18-.21-.49-.03-.69l34.58-37.42c.19-.19.49-.21.69-.03.2.18.21.49.03.69l-34.58,37.42s-.08.08-.13.1Z"/>
    <path class="cls-31" d="M829.57,458.47c-.15.08-.32.1-.49.06l-17.65-4.22c-.37-.09-.61-.47-.52-.84.09-.38.46-.61.84-.52l17.65,4.22c.37.09.61.47.52.84-.05.2-.18.36-.35.45Z"/>
    <path class="cls-31" d="M929.04,432.57c-.05.03-.11.05-.17.06l-117.18,21.6c-.32.06-.63-.16-.69-.48-.06-.32.15-.63.48-.69l117.18-21.6c.32-.06.63.16.69.48.05.26-.08.52-.31.63Z"/>
    <path class="cls-31" d="M945.77,415.5c-.3.16-.68.07-.88-.22-.2-.31-.12-.72.19-.93l96.26-63.89c.35-.23.73-.12.93.19.2.31.12.72-.19.93l-96.26,63.89s-.04.02-.06.03Z"/>
    <path class="cls-31" d="M1047.43,383.52s-.08.03-.12.05l-101.65,32.01c-.37.12-.76-.09-.88-.46-.11-.37.09-.76.46-.88l101.65-32.01c.37-.11.76.09.88.46.1.33-.05.67-.34.83Z"/>
    <path class="cls-31" d="M929.01,432.5c-.19.1-.44.07-.6-.09-.21-.2-.21-.53-.01-.73l16.69-17.13c.19-.21.52-.21.73-.01.21.2.21.53.01.73l-16.69,17.13s-.08.07-.13.1Z"/>
    <path class="cls-31" d="M945.73,415.44s-.1.04-.15.05c-.32.07-.64-.13-.71-.45l-17.79-79.16c-.07-.32.13-.63.45-.71.32-.07.64.13.71.45l17.79,79.16c.06.27-.07.53-.3.66Z"/>
    <path class="cls-31" d="M1041.99,351.55c-.11.06-.23.08-.36.06l-114.04-15.27c-.33-.04-.55-.34-.51-.67.04-.33.34-.55.67-.51l114.04,15.27c.33.04.55.34.51.67-.03.2-.15.36-.31.45Z"/>
    <path class="cls-31" d="M1017.8,246.19c-.13.07-.3.09-.45.03l-112.7-39.22c-.3-.1-.45-.43-.35-.72.1-.29.42-.45.72-.35l112.7,39.22c.3.1.45.43.35.72-.05.14-.15.25-.27.31Z"/>
    <path class="cls-31" d="M1244.9,111.38c-.09.05-.2.07-.31.07l-152.3-8.22c-.33-.02-.58-.3-.56-.63.01-.33.3-.58.62-.56l152.3,8.22c.33.02.58.3.56.62-.01.22-.14.4-.31.5Z"/>
    <path class="cls-31" d="M1092.69,103.34c-.07.04-.14.06-.23.08-.44.08-.86-.2-.94-.64l-5.24-27.48c-.08-.44.2-.87.64-.94.43-.09.86.2.94.64l5.24,27.48c.07.36-.11.7-.41.86Z"/>
    <path class="cls-31" d="M1350.06,43.46c-.14.08-.32.1-.49.06l-113.36-26.79c-.38-.09-.61-.46-.52-.84.09-.38.46-.61.84-.52l113.36,26.79c.38.09.61.46.52.84-.05.21-.18.36-.35.46Z"/>
    <path class="cls-31" d="M817.43,350.46s-.09.04-.14.05l-98.6,20.61c-.28.06-.55-.12-.61-.4-.06-.28.12-.55.4-.61l98.6-20.61c.28-.06.55.12.61.4.05.23-.07.46-.26.56Z"/>
    <path class="cls-31" d="M864.06,420.87c-.23.12-.53.04-.66-.19-.13-.24-.05-.54.19-.67l91.77-51.51s0,0,.01,0c.23-.12.53-.04.66.19.13.24.05.54-.19.67l-91.77,51.51s0,0-.01,0Z"/>
    <path class="cls-31" d="M887.12,436.82c-.34.18-.77.17-1.12-.06l-22.79-15.42c-.5-.34-.63-1.01-.29-1.51.34-.49,1.01-.62,1.51-.29l22.78,15.42c.5.34.63,1.01.29,1.51-.1.15-.24.27-.39.35Z"/>
    <path class="cls-31" d="M1134.56,371.23c-.05.03-.11.05-.18.06l-87.2,12.16c-.3.04-.57-.17-.61-.46-.04-.3.17-.57.46-.61l87.2-12.16c.3-.04.57.16.61.46.03.23-.09.45-.28.56Z"/>
    <path class="cls-31" d="M1047.59,383.82c-.1.05-.2.09-.31.11-.56.09-1.1-.28-1.19-.85l-5.39-31.88c-.1-.56.28-1.1.85-1.19.56-.09,1.1.28,1.19.85l5.39,31.88c.08.45-.15.88-.54,1.09Z"/>
    <path class="cls-31" d="M1042.03,351.61c-.22.12-.5.11-.71-.05-.3-.22-.36-.64-.14-.94l53.09-72.19c.22-.3.64-.36.94-.14.3.22.36.64.14.94l-53.09,72.19c-.06.09-.14.15-.23.2Z"/>
    <path class="cls-31" d="M1214.59,269.55c-.07.04-.15.06-.24.07l-119.5,9.83c-.34.03-.64-.23-.67-.57-.03-.34.22-.63.57-.67l119.5-9.83c.34-.03.64.23.67.57.02.25-.12.49-.33.6Z"/>
    <path class="cls-31" d="M1200.39,241.01s-.05.03-.07.03l-105.32,38.32c-.29.11-.62-.05-.73-.34-.11-.3.04-.64.34-.73l105.32-38.32c.29-.11.62.05.73.34.1.27-.02.57-.27.7Z"/>
    <path class="cls-31" d="M1350.37,167.13s0,0-.01,0l-150,73.85c-.27.13-.59.02-.73-.25-.13-.27-.03-.58.23-.72,0,0,0,0,.01,0l150-73.85c.27-.13.6-.02.73.25.13.27.03.58-.23.72Z"/>
    <path class="cls-31" d="M1312.97,194.9s-.04.02-.07.03l-112.5,46.27c-.38.16-.82-.03-.98-.41-.15-.38.01-.8.41-.98l112.5-46.27c.38-.16.82.03.98.41.15.36,0,.77-.34.95Z"/>
    <path class="cls-31" d="M1245.19,111.93c-.38.2-.85.19-1.23-.05-.56-.37-.72-1.12-.36-1.68l26.5-40.73c.37-.56,1.12-.72,1.68-.36.56.37.72,1.12.36,1.68l-26.5,40.73c-.12.18-.27.32-.45.41Z"/>
    <path class="cls-31" d="M1350.09,43.5s-.07.03-.11.04l-78.61,27.28c-.39.14-.82-.07-.95-.46-.14-.39.07-.83.46-.95l78.61-27.28c.39-.14.82.07.95.46.12.35-.03.74-.36.91Z"/>
    <path class="cls-31" d="M956,369.68c-.35.18-.79.11-1.05-.21-.3-.36-.26-.9.1-1.2l57.7-48.52c.36-.33.9-.26,1.2.1.3.36.26.9-.1,1.2l-57.7,48.52s-.1.07-.15.1Z"/>
    <path class="cls-31" d="M955.83,369.36c-.07.04-.16.06-.24.06-.27,0-.48-.23-.48-.5l1.74-55.34c0-.27.24-.48.5-.48.27,0,.48.23.48.51l-1.74,55.34c0,.18-.11.34-.26.42Z"/>
    <path class="cls-31" d="M1023.39,407.19c-.14.08-.32.08-.47,0l-67.56-37.83c-.24-.13-.32-.43-.19-.67.13-.24.43-.32.67-.19l67.56,37.83c.24.13.32.43.19.67-.05.09-.12.15-.2.2Z"/>
    <path class="cls-31" d="M1023.4,407.21c-.18.1-.41.08-.58-.06-.22-.18-.24-.51-.06-.73l81.63-96.06c.19-.22.51-.25.73-.06.22.18.24.51.06.73l-81.63,96.06c-.04.05-.1.09-.15.12Z"/>
    <path class="cls-31" d="M1085.82,385.84s-.05.03-.09.04l-62.38,21.44c-.31.1-.65-.06-.76-.37-.11-.31.03-.65.37-.76l62.38-21.44c.31-.1.65.06.76.37.09.28-.03.58-.28.72Z"/>
    <path class="cls-31" d="M1085.91,386c-.29.15-.66.11-.91-.13-.31-.3-.31-.79-.01-1.1l70.42-72.06c.31-.3.79-.31,1.1-.01.31.3.31.79.01,1.1l-70.41,72.06c-.06.06-.12.11-.19.14Z"/>
    <path class="cls-31" d="M1134.61,371.32s-.08.03-.12.05l-48.76,14.57c-.34.1-.7-.09-.8-.43-.1-.34.07-.69.43-.8l48.76-14.57c.34-.1.7.09.8.43.09.3-.05.61-.32.76Z"/>
    <path class="cls-31" d="M1134.61,371.32c-.19.1-.42.1-.61,0-.31-.17-.43-.57-.26-.88l57.02-103.85c.18-.31.57-.43.88-.26.31.17.43.56.26.88l-57.02,103.84c-.06.11-.16.2-.26.26Z"/>
    <path class="cls-31" d="M1134.6,371.3c-.15.08-.34.1-.51.03-.32-.12-.48-.48-.36-.8l21.65-57.49c.12-.32.48-.49.8-.36.32.12.48.48.36.8l-21.65,57.49c-.06.15-.16.26-.29.33Z"/>
    <path class="cls-31" d="M1134.57,371.25c-.18.1-.41.09-.59-.04-.26-.18-.32-.53-.14-.79l60.48-86.69c.18-.26.53-.32.79-.14.26.18.32.53.14.79l-60.48,86.69c-.05.08-.12.14-.2.18Z"/>
    <path class="cls-31" d="M1195.35,285.13c-.35.19-.79.2-1.17-.01-.58-.33-.79-1.07-.46-1.66l35.45-62.5c.33-.58,1.07-.79,1.66-.46.58.33.79,1.07.46,1.66l-35.45,62.5c-.12.21-.29.37-.49.47Z"/>
    <path class="cls-31" d="M1195.11,284.67c-.3.16-.67.08-.88-.19-.23-.31-.18-.75.13-.98l19.52-15.06c.33-.22.74-.17.98.13.23.31.18.75-.13.98l-19.52,15.06s-.07.05-.1.06Z"/>
    <path class="cls-31" d="M1214.59,269.55c-.16.09-.36.1-.54.02-.31-.14-.46-.5-.32-.82l62.04-143.66c.14-.32.5-.46.82-.32.31.14.46.5.32.82l-62.04,143.66c-.06.13-.16.24-.28.3Z"/>
    <path class="cls-31" d="M1214.6,269.57c-.15.08-.33.1-.51.04-.34-.11-.52-.48-.41-.82l15.93-47.44c.11-.34.48-.52.82-.41.34.11.52.48.41.82l-15.93,47.44c-.05.16-.17.29-.31.36Z"/>
    <path class="cls-31" d="M1312.9,194.76c-.25.13-.56.07-.74-.15-.21-.25-.17-.63.09-.84l132.49-108.4c.25-.22.63-.17.84.09.21.25.17.63-.09.84l-132.49,108.4s-.06.05-.1.07Z"/>
    <path class="cls-31" d="M1312.89,194.74c-.15.08-.33.09-.5.02-.29-.13-.41-.47-.28-.75l51.98-115.32c.13-.29.47-.41.75-.28.29.13.41.47.28.75l-51.98,115.32c-.05.12-.15.21-.25.27Z"/>
    <path class="cls-31" d="M1313.25,195.42c-.58.31-1.31.15-1.71-.39-.44-.6-.31-1.44.29-1.88l37.5-27.58c.58-.43,1.44-.31,1.88.29.44.6.31,1.44-.29,1.88l-37.5,27.58c-.06.04-.11.08-.17.11Z"/>
    <path class="cls-31" d="M1350.51,167.39c-.34.18-.76.11-1.02-.19-.3-.35-.25-.87.09-1.17l94.99-80.82c.36-.31.87-.25,1.17.09.3.35.25.87-.09,1.17l-94.99,80.82s-.1.07-.15.1Z"/>
    <path class="cls-31" d="M1620.53,48.88s-.05.03-.08.04l-155.25,53.74c-.31.11-.65-.06-.76-.37-.11-.31.05-.66.37-.76l155.25-53.74c.31-.11.65.06.76.37.1.28-.03.59-.28.72Z"/>
    <path class="cls-31" d="M1465.56,103.15c-.49.26-1.1.15-1.47-.29-.42-.5-.36-1.25.14-1.67l39.86-33.55c.52-.44,1.25-.36,1.67.14.42.5.36,1.25-.14,1.67l-39.86,33.55c-.06.06-.14.1-.21.14Z"/>
    <path class="cls-31" d="M1465.29,102.64c-.21.11-.48.09-.68-.07l-19.89-16.26c-.26-.22-.3-.61-.09-.87.21-.26.61-.3.87-.09l19.89,16.26c.26.22.3.61.09.87-.05.07-.12.12-.19.15Z"/>
    <path class="cls-31" d="M1548.05,71.02s-.05.02-.07.03l-82.74,31.65c-.33.13-.71-.04-.83-.37-.13-.33.04-.7.37-.83l82.74-31.65c.33-.13.71.04.83.37.12.31-.01.65-.3.8Z"/>
    <path class="cls-31" d="M1620.73,49.25c-.06.03-.11.05-.18.07l-72.51,22.09c-.53.16-1.1-.14-1.26-.67-.16-.53.13-1.09.67-1.26l72.51-22.09c.53-.16,1.1.14,1.26.67.14.47-.07.96-.49,1.18Z"/>
    <path class="cls-31" d="M1013.56,320.91c-.1.05-.22.08-.34.06l-55.96-6.82c-.31-.04-.53-.32-.5-.63.04-.31.33-.53.63-.5l55.96,6.82c.31.04.53.32.5.63-.02.19-.14.35-.3.43Z"/>
    <path class="cls-31" d="M1105.06,311.22c-.06.03-.14.06-.22.07l-91.49,9.71c-.33.03-.62-.2-.65-.53-.03-.32.21-.61.53-.66l91.49-9.71c.33-.03.62.2.66.53.03.25-.11.48-.31.59Z"/>
    <path class="cls-31" d="M1156.42,314.13c-.33.17-.74.15-1.05-.09-.43-.33-.52-.95-.19-1.38l35.37-46.36c.33-.44.95-.52,1.38-.19.43.33.52.95.19,1.38l-35.37,46.36c-.09.12-.2.21-.32.27Z"/>
    <path class="cls-31" d="M1230.55,222.15c-.18.1-.41.11-.61.01-.34-.16-.48-.56-.31-.9l46.11-96.22c.15-.33.56-.48.9-.31.34.16.48.56.31.9l-46.11,96.22c-.06.13-.17.24-.29.3Z"/>
    <path class="cls-31" d="M1364.91,79.51h0s-88.26,46.42-88.26,46.42c-.33.17-.74.05-.91-.28-.17-.33-.05-.73.28-.91h0s88.26-46.42,88.26-46.42c.33-.17.74-.05.91.28.17.33.05.73-.28.91Z"/>
    <path class="cls-31" d="M1505.26,69.3c-.05.03-.1.05-.16.07l-59.75,17.28c-.45.13-.93-.13-1.06-.58-.13-.45.13-.94.58-1.06l59.75-17.28c.45-.13.93.13,1.06.58.11.39-.07.81-.42.99Z"/>
    <path class="cls-31" d="M1667.28,0l-47.52,47.86c-.27.27-.27.71,0,.99.22.22.56.26.82.12.06-.03.12-.07.17-.13L1669.24,0h-1.97Z"/>
    <path class="cls-31" d="M1217.28,581.37c4.96-2.63,11.11-.74,13.74,4.22,2.63,4.96.74,11.11-4.22,13.74-4.96,2.63-11.11.74-13.74-4.22-2.63-4.96-.74-11.11,4.22-13.74Z"/>
    <path class="cls-31" d="M1447.48,588.12c5.11-2.71,11.45-.76,14.15,4.35,2.71,5.11.76,11.45-4.35,14.15-5.11,2.71-11.45.76-14.15-4.35-2.71-5.11-.76-11.45,4.35-14.15Z"/>
    <path class="cls-25" d="M150.3,624.02c2.83-1.5,6.33-.42,7.83,2.41,1.5,2.83.42,6.33-2.41,7.83-2.83,1.5-6.33.42-7.83-2.41-1.5-2.83-.42-6.33,2.41-7.83Z"/>
    <path class="cls-5" d="M135.87,610.04c2.88-1.52,6.45-.43,7.97,2.45,1.52,2.88.43,6.45-2.45,7.97-2.88,1.53-6.45.43-7.97-2.45-1.52-2.88-.43-6.45,2.45-7.97Z"/>
    <path class="cls-31" d="M918.17,585.95c3.92-2.08,8.78-.58,10.86,3.34,2.08,3.92.58,8.78-3.34,10.86-3.92,2.08-8.78.58-10.86-3.34-2.08-3.92-.58-8.78,3.34-10.86Z"/>
    <path class="cls-31" d="M993.82,550.69c4.07-2.16,9.11-.61,11.27,3.46,2.16,4.07.61,9.11-3.46,11.27-4.07,2.16-9.11.61-11.27-3.46-2.16-4.07-.61-9.11,3.46-11.27Z"/>
    <path class="cls-31" d="M1241.01,463.77c4.61-2.44,10.34-.69,12.78,3.93s.69,10.34-3.93,12.78c-4.61,2.44-10.34.69-12.78-3.93-2.44-4.61-.69-10.34,3.93-12.78Z"/>
    <path class="cls-31" d="M1407.36,279.89c4.91-2.6,11-.73,13.6,4.18,2.6,4.91.73,11-4.18,13.6-4.91,2.6-11,.73-13.6-4.18-2.6-4.91-.73-11,4.18-13.6Z"/>
    <path class="cls-31" d="M1593.85,456.83c5.16-2.73,11.56-.77,14.29,4.39,2.73,5.16.77,11.56-4.39,14.29-5.16,2.73-11.56.77-14.29-4.39-2.73-5.16-.77-11.56,4.39-14.29Z"/>
    <path class="cls-19" d="M179.44,614.33c2.63-1.39,5.89-.39,7.28,2.24s.39,5.89-2.24,7.28-5.89.39-7.28-2.24c-1.39-2.63-.39-5.89,2.24-7.28Z"/>
    <path class="cls-7" d="M182.18,505.08c2.73-1.45,6.11-.41,7.56,2.32s.41,6.11-2.32,7.56c-2.73,1.45-6.11.41-7.56-2.32-1.45-2.73-.41-6.11,2.32-7.56Z"/>
    <path class="cls-25" d="M173.54,452.94c2.83-1.5,6.33-.42,7.83,2.41,1.5,2.83.42,6.33-2.41,7.83-2.83,1.5-6.33.42-7.83-2.41-1.5-2.83-.42-6.33,2.41-7.83Z"/>
    <path class="cls-35" d="M217.21,398.16c2.93-1.55,6.56-.44,8.11,2.49,1.55,2.93.44,6.56-2.49,8.11-2.93,1.55-6.56.44-8.11-2.49-1.55-2.93-.44-6.56,2.49-8.11Z"/>
    <path class="cls-31" d="M824.02,606.27c3.47-1.84,7.78-.52,9.62,2.96,1.84,3.47.52,7.78-2.96,9.62-3.47,1.84-7.78.52-9.62-2.96-1.84-3.47-.52-7.78,2.96-9.62Z"/>
    <path class="cls-31" d="M908.08,587.96c3.72-1.97,8.33-.55,10.31,3.17s.55,8.34-3.17,10.31c-3.72,1.97-8.34.55-10.31-3.17-1.97-3.72-.55-8.33,3.17-10.31Z"/>
    <path class="cls-31" d="M992.74,430.12c3.97-2.1,8.89-.59,10.99,3.38,2.1,3.97.59,8.89-3.38,10.99-3.97,2.1-8.89.59-10.99-3.38-2.1-3.97-.59-8.89,3.38-10.99Z"/>
    <path class="cls-31" d="M1050.86,393.46c4.07-2.16,9.11-.61,11.27,3.46,2.16,4.07.61,9.11-3.46,11.27-4.07,2.16-9.11.61-11.27-3.46-2.16-4.07-.61-9.11,3.46-11.27Z"/>
    <path class="cls-31" d="M1140.56,267.7c4.27-2.26,9.56-.64,11.82,3.63,2.26,4.27.64,9.56-3.63,11.82-4.27,2.26-9.56.64-11.82-3.63-2.26-4.27-.64-9.56,3.63-11.82Z"/>
    <path class="cls-31" d="M1228.89,232.05c4.46-2.37,10-.66,12.37,3.8,2.37,4.46.66,10-3.8,12.37-4.46,2.37-10,.66-12.37-3.8-2.37-4.46-.66-10,3.8-12.37Z"/>
    <path class="cls-31" d="M1424.04,185.23c4.76-2.52,10.67-.71,13.19,4.05,2.52,4.76.71,10.67-4.05,13.19-4.76,2.52-10.67.71-13.19-4.05-2.52-4.76-.71-10.67,4.05-13.19Z"/>
    <path class="cls-31" d="M1595.37,140.35c4.91-2.6,11-.73,13.6,4.18,2.6,4.91.73,11-4.18,13.6-4.91,2.6-11,.73-13.6-4.18-2.6-4.91-.73-11,4.18-13.6Z"/>
    <path class="cls-34" d="M180.37,624.54c2.48-1.31,5.56-.37,6.87,2.11,1.31,2.48.37,5.56-2.11,6.87-2.48,1.31-5.56.37-6.87-2.11-1.31-2.48-.37-5.56,2.11-6.87Z"/>
    <path class="cls-32" d="M255.04,565.29c2.58-1.37,5.78-.38,7.15,2.2,1.37,2.58.38,5.78-2.2,7.15-2.58,1.37-5.78.38-7.15-2.2-1.37-2.58-.38-5.78,2.2-7.15Z"/>
    <path class="cls-19" d="M234.03,516.95c2.63-1.39,5.89-.39,7.28,2.24,1.39,2.63.39,5.89-2.24,7.28-2.63,1.39-5.89.39-7.28-2.24-1.39-2.63-.39-5.89,2.24-7.28Z"/>
    <path class="cls-17" d="M212.94,409.63c2.78-1.47,6.22-.41,7.7,2.36,1.47,2.78.41,6.22-2.36,7.7-2.78,1.47-6.22.41-7.7-2.36-1.47-2.78-.41-6.22,2.36-7.69Z"/>
    <path class="cls-37" d="M236.43,285.71c2.88-1.52,6.45-.43,7.97,2.45,1.52,2.88.43,6.45-2.45,7.97-2.88,1.52-6.45.43-7.97-2.45-1.52-2.88-.43-6.45,2.45-7.97Z"/>
    <path class="cls-35" d="M277.28,271.19c2.93-1.55,6.56-.44,8.11,2.49,1.55,2.93.44,6.56-2.49,8.11-2.93,1.55-6.56.44-8.11-2.49-1.55-2.93-.44-6.56,2.49-8.11Z"/>
    <path class="cls-31" d="M385.9,416.68c2.98-1.58,6.67-.44,8.24,2.53,1.58,2.98.44,6.67-2.53,8.24-2.98,1.58-6.67.44-8.24-2.53-1.58-2.98-.44-6.67,2.53-8.24Z"/>
    <path class="cls-31" d="M490.57,394.93c3.03-1.6,6.78-.45,8.38,2.58s.45,6.78-2.58,8.38c-3.03,1.6-6.78.45-8.38-2.58-1.6-3.03-.45-6.78,2.58-8.38Z"/>
    <path class="cls-31" d="M541.77,340.88c3.17-1.68,7.11-.47,8.79,2.7,1.68,3.17.47,7.11-2.7,8.79-3.17,1.68-7.11.47-8.8-2.7-1.68-3.17-.47-7.11,2.7-8.79Z"/>
    <path class="cls-31" d="M678.89,537.76c3.22-1.71,7.22-.48,8.93,2.74,1.71,3.22.48,7.22-2.74,8.93-3.22,1.71-7.22.48-8.93-2.74-1.71-3.22-.48-7.22,2.74-8.93Z"/>
    <path class="cls-31" d="M767.25,528.67c3.27-1.74,7.33-.49,9.07,2.79,1.73,3.27.49,7.33-2.79,9.07-3.27,1.74-7.34.49-9.07-2.79-1.73-3.27-.49-7.33,2.79-9.07Z"/>
    <path class="cls-31" d="M874.08,563.52c3.37-1.79,7.56-.5,9.34,2.87,1.79,3.37.5,7.56-2.87,9.34-3.37,1.79-7.56.5-9.34-2.87-1.79-3.37-.5-7.56,2.87-9.34Z"/>
    <path class="cls-31" d="M956.72,510.41c3.47-1.84,7.78-.52,9.62,2.96,1.84,3.47.52,7.78-2.96,9.62-3.47,1.84-7.78.52-9.62-2.96-1.84-3.47-.52-7.78,2.96-9.62Z"/>
    <path class="cls-31" d="M986.88,568.63c3.57-1.89,8-.53,9.89,3.04,1.89,3.57.53,8-3.04,9.89-3.57,1.89-8,.53-9.89-3.04-1.89-3.57-.53-8,3.04-9.89Z"/>
    <path class="cls-31" d="M993,185.28c3.82-2.02,8.56-.57,10.58,3.25,2.02,3.82.57,8.56-3.25,10.58-3.82,2.02-8.56.57-10.58-3.25-2.02-3.82-.57-8.56,3.25-10.58Z"/>
    <path class="cls-31" d="M1070.25,271.36c3.97-2.1,8.89-.59,10.99,3.38,2.1,3.97.59,8.89-3.38,10.99-3.97,2.1-8.89.59-10.99-3.38-2.1-3.97-.59-8.89,3.38-10.99Z"/>
    <path class="cls-31" d="M1153.84,173.57c4.12-2.18,9.22-.61,11.41,3.5,2.18,4.12.61,9.22-3.5,11.41-4.12,2.18-9.22.61-11.41-3.5-2.18-4.12-.61-9.22,3.5-11.41Z"/>
    <path class="cls-31" d="M1165.49,4.95c4.32-2.29,9.67-.64,11.96,3.67,2.29,4.32.64,9.67-3.67,11.95-4.32,2.29-9.67.64-11.96-3.67-2.29-4.32-.64-9.67,3.67-11.96Z"/>
    <path class="cls-31" d="M1542.36,30.96c4.76-2.52,10.67-.71,13.19,4.05,2.52,4.76.71,10.67-4.05,13.19-4.76,2.52-10.67.71-13.19-4.05-2.52-4.76-.71-10.67,4.05-13.19Z"/>
    <path class="cls-20" d="M263.49,545.63c2.43-1.29,5.45-.36,6.73,2.07,1.29,2.43.36,5.45-2.07,6.73-2.43,1.29-5.45.36-6.73-2.07-1.29-2.43-.36-5.45,2.07-6.73Z"/>
    <path class="cls-18" d="M285.86,568.52c2.48-1.31,5.56-.37,6.87,2.11,1.31,2.48.37,5.56-2.11,6.87-2.48,1.31-5.56.37-6.87-2.11-1.31-2.48-.37-5.56,2.11-6.87Z"/>
    <path class="cls-9" d="M353.86,511.66c2.58-1.37,5.78-.38,7.15,2.2,1.37,2.58.38,5.78-2.2,7.15-2.58,1.37-5.78.38-7.15-2.2-1.37-2.58-.38-5.78,2.2-7.15Z"/>
    <path class="cls-19" d="M357.03,426.23c2.68-1.42,6-.4,7.42,2.28,1.42,2.68.4,6-2.28,7.42-2.68,1.42-6,.4-7.42-2.28-1.42-2.68-.4-6,2.28-7.42Z"/>
    <path class="cls-3" d="M302.19,357.05c2.73-1.45,6.11-.41,7.56,2.32,1.45,2.73.41,6.11-2.32,7.56-2.73,1.45-6.11.41-7.56-2.32-1.45-2.73-.41-6.11,2.32-7.56Z"/>
    <path class="cls-8" d="M322.76,258.02c2.83-1.5,6.33-.42,7.83,2.41,1.5,2.83.42,6.33-2.41,7.83-2.83,1.5-6.33.42-7.83-2.41-1.5-2.83-.42-6.33,2.41-7.83Z"/>
    <path class="cls-5" d="M405.79,226.91c2.88-1.52,6.45-.43,7.97,2.45,1.53,2.88.43,6.45-2.45,7.97-2.88,1.53-6.45.43-7.97-2.45-1.52-2.88-.43-6.45,2.45-7.97Z"/>
    <path class="cls-31" d="M495.14,247.89c2.93-1.55,6.56-.44,8.11,2.49,1.55,2.93.44,6.56-2.49,8.11-2.93,1.55-6.56.44-8.11-2.49-1.55-2.93-.44-6.56,2.49-8.11Z"/>
    <path class="cls-31" d="M617.3,281.52c3.03-1.6,6.78-.45,8.38,2.58,1.6,3.03.45,6.78-2.58,8.38s-6.78.45-8.38-2.58c-1.6-3.03-.45-6.78,2.58-8.38Z"/>
    <path class="cls-31" d="M557.7,253.28c3.13-1.66,7-.46,8.66,2.66s.46,7-2.66,8.66c-3.13,1.66-7,.47-8.66-2.66-1.66-3.13-.46-7,2.66-8.66Z"/>
    <path class="cls-31" d="M692.91,224.89c3.22-1.71,7.22-.48,8.93,2.74,1.71,3.22.48,7.22-2.74,8.93s-7.22.48-8.93-2.74c-1.71-3.22-.48-7.22,2.74-8.93Z"/>
    <path class="cls-31" d="M843.09,406.92c3.27-1.73,7.33-.49,9.07,2.79,1.73,3.27.49,7.33-2.79,9.07-3.27,1.73-7.33.49-9.07-2.79-1.73-3.27-.49-7.33,2.79-9.07Z"/>
    <path class="cls-31" d="M914.97,412.31c3.37-1.79,7.56-.5,9.34,2.87,1.79,3.37.5,7.56-2.87,9.34-3.37,1.79-7.56.5-9.34-2.87-1.79-3.37-.5-7.56,2.87-9.34Z"/>
    <path class="cls-31" d="M1077.56,384.14c3.47-1.84,7.78-.52,9.62,2.96,1.84,3.47.52,7.78-2.96,9.62-3.47,1.84-7.78.52-9.62-2.96-1.84-3.47-.52-7.78,2.96-9.62Z"/>
    <path class="cls-31" d="M1116.07,336.12c3.62-1.92,8.11-.54,10.03,3.08,1.92,3.62.54,8.11-3.08,10.03-3.62,1.92-8.11.54-10.03-3.08-1.92-3.62-.54-8.11,3.08-10.03Z"/>
    <path class="cls-31" d="M1082.94,17.41c3.87-2.05,8.67-.58,10.72,3.29,2.05,3.87.58,8.67-3.29,10.72-3.87,2.05-8.67.58-10.72-3.29-2.05-3.87-.58-8.67,3.29-10.72Z"/>
    <path class="cls-20" d="M326.51,506.94c2.43-1.29,5.45-.36,6.73,2.07,1.29,2.43.36,5.45-2.07,6.73-2.43,1.29-5.45.36-6.73-2.07-1.29-2.43-.36-5.45,2.07-6.73Z"/>
    <path class="cls-30" d="M375.66,506.55c2.48-1.31,5.56-.37,6.87,2.11,1.31,2.48.37,5.56-2.11,6.87-2.48,1.31-5.56.37-6.87-2.11-1.31-2.48-.37-5.56,2.11-6.87Z"/>
    <path class="cls-9" d="M458.4,482.72c2.53-1.34,5.67-.38,7.01,2.15,1.34,2.53.38,5.67-2.15,7.01-2.53,1.34-5.67.38-7.01-2.15-1.34-2.53-.38-5.67,2.15-7.01Z"/>
    <path class="cls-11" d="M469.8,428.25c2.63-1.39,5.89-.39,7.28,2.24,1.39,2.63.39,5.89-2.24,7.28s-5.89.39-7.28-2.24c-1.39-2.63-.39-5.89,2.24-7.28Z"/>
    <path class="cls-10" d="M435.78,368.17c2.68-1.42,6-.4,7.42,2.28,1.42,2.68.4,6-2.28,7.42-2.68,1.42-6,.4-7.42-2.28-1.42-2.68-.4-6,2.28-7.42Z"/>
    <path class="cls-17" d="M538.64,295.02c2.78-1.47,6.22-.41,7.7,2.36,1.47,2.78.41,6.22-2.36,7.7-2.78,1.47-6.22.41-7.7-2.36-1.47-2.78-.41-6.22,2.36-7.7Z"/>
    <path class="cls-38" d="M541.6,245.25c2.88-1.52,6.45-.43,7.97,2.45,1.52,2.88.43,6.45-2.45,7.97-2.88,1.53-6.45.43-7.97-2.45-1.53-2.88-.43-6.45,2.45-7.97Z"/>
    <path class="cls-31" d="M619.37,255.23c2.98-1.58,6.67-.44,8.24,2.53,1.58,2.98.44,6.67-2.53,8.25-2.98,1.58-6.67.44-8.25-2.53-1.58-2.98-.44-6.67,2.53-8.25Z"/>
    <path class="cls-31" d="M723.6,267.19c3.03-1.6,6.78-.45,8.38,2.58,1.6,3.03.45,6.78-2.58,8.38-3.03,1.6-6.78.45-8.38-2.58-1.6-3.03-.45-6.78,2.58-8.38Z"/>
    <path class="cls-31" d="M768.17,213.66c3.08-1.63,6.89-.46,8.52,2.62,1.63,3.08.46,6.89-2.62,8.52-3.08,1.63-6.89.46-8.52-2.62-1.63-3.08-.46-6.89,2.62-8.52Z"/>
    <path class="cls-31" d="M825.87,236.35c3.18-1.68,7.11-.47,8.8,2.7,1.68,3.17.47,7.11-2.7,8.79-3.17,1.68-7.11.47-8.79-2.7-1.68-3.17-.47-7.11,2.7-8.8Z"/>
    <path class="cls-31" d="M968.47,251.44c3.27-1.73,7.33-.49,9.07,2.79,1.73,3.27.49,7.33-2.79,9.07-3.27,1.73-7.33.49-9.07-2.79-1.73-3.27-.49-7.33,2.79-9.07Z"/>
    <path class="cls-31" d="M1041.85,185.63c3.42-1.81,7.67-.51,9.48,2.91,1.81,3.42.51,7.67-2.91,9.48-3.42,1.81-7.67.51-9.48-2.91-1.81-3.42-.51-7.67,2.91-9.48Z"/>
    <path class="cls-31" d="M1098.33,120.27c3.47-1.84,7.78-.52,9.62,2.96,1.84,3.47.52,7.78-2.96,9.62-3.47,1.84-7.78.52-9.62-2.96-1.84-3.47-.52-7.78,2.96-9.62Z"/>
    <path class="cls-31" d="M1195.58,36.75c3.67-1.94,8.22-.55,10.17,3.12,1.94,3.67.55,8.22-3.12,10.17-3.67,1.94-8.22.55-10.17-3.12-1.94-3.67-.55-8.22,3.12-10.17Z"/>
    <path class="cls-16" d="M413.36,452.87c2.43-1.29,5.45-.36,6.73,2.07,1.29,2.43.36,5.45-2.07,6.73-2.43,1.29-5.45.36-6.73-2.07-1.29-2.43-.36-5.45,2.07-6.73Z"/>
    <path class="cls-34" d="M492.99,479.81c2.43-1.29,5.45-.36,6.73,2.07,1.29,2.43.36,5.45-2.07,6.73-2.43,1.29-5.45.36-6.73-2.07-1.29-2.43-.36-5.45,2.07-6.73Z"/>
    <path class="cls-18" d="M540.15,486.11c2.48-1.31,5.56-.37,6.87,2.11,1.31,2.48.37,5.56-2.11,6.87-2.48,1.31-5.56.37-6.87-2.11-1.31-2.48-.37-5.56,2.11-6.87Z"/>
    <path class="cls-6" d="M589.49,445.47c2.58-1.37,5.78-.38,7.15,2.2,1.37,2.58.38,5.78-2.2,7.15-2.58,1.37-5.78.38-7.15-2.2s-.38-5.78,2.2-7.15Z"/>
    <path class="cls-27" d="M614.03,377.82c2.68-1.42,6-.4,7.42,2.28,1.42,2.68.4,6-2.28,7.42-2.68,1.42-6,.4-7.42-2.28-1.42-2.68-.4-6,2.28-7.42Z"/>
    <path class="cls-29" d="M691.25,341.16c2.73-1.45,6.11-.41,7.56,2.32s.41,6.11-2.32,7.56c-2.73,1.45-6.11.41-7.56-2.32-1.45-2.73-.41-6.11,2.32-7.56Z"/>
    <path class="cls-1" d="M710.86,288.09c2.83-1.5,6.33-.42,7.83,2.41s.42,6.33-2.41,7.83c-2.83,1.5-6.33.42-7.83-2.41-1.5-2.83-.42-6.33,2.41-7.83Z"/>
    <path class="cls-13" d="M732.41,247.33c2.93-1.55,6.56-.44,8.11,2.49,1.55,2.93.44,6.56-2.49,8.11-2.93,1.55-6.56.44-8.11-2.49-1.55-2.93-.44-6.56,2.49-8.11Z"/>
    <path class="cls-31" d="M826.5,166.76c3.03-1.6,6.78-.45,8.38,2.58,1.6,3.03.45,6.78-2.58,8.38-3.03,1.6-6.78.45-8.38-2.58-1.6-3.03-.45-6.78,2.58-8.38Z"/>
    <path class="cls-31" d="M893.92,129.65c3.08-1.63,6.89-.46,8.52,2.62,1.63,3.08.46,6.89-2.62,8.52-3.08,1.63-6.89.46-8.52-2.62-1.63-3.08-.46-6.89,2.62-8.52Z"/>
    <path class="cls-31" d="M957.73,147.38c3.17-1.68,7.11-.47,8.79,2.7,1.68,3.17.47,7.11-2.7,8.79-3.18,1.68-7.11.47-8.8-2.7-1.68-3.17-.47-7.11,2.7-8.8Z"/>
    <path class="cls-31" d="M1042.15,188.81c3.27-1.73,7.33-.49,9.07,2.79,1.73,3.27.49,7.33-2.79,9.07-3.27,1.73-7.33.49-9.07-2.79-1.73-3.27-.49-7.33,2.79-9.07Z"/>
    <path class="cls-16" d="M538.99,423.57c2.43-1.29,5.45-.36,6.73,2.07,1.29,2.43.36,5.45-2.07,6.73-2.43,1.29-5.45.36-6.73-2.07-1.29-2.43-.36-5.45,2.07-6.73Z"/>
    <path class="cls-20" d="M613.47,448.41c2.43-1.29,5.45-.36,6.73,2.07,1.29,2.43.36,5.45-2.07,6.73-2.43,1.29-5.45.36-6.73-2.07-1.29-2.43-.36-5.45,2.07-6.73Z"/>
    <path class="cls-2" d="M667.25,468.92c2.48-1.31,5.56-.37,6.87,2.11,1.31,2.48.37,5.56-2.11,6.87-2.48,1.31-5.56.37-6.87-2.11-1.31-2.48-.37-5.56,2.11-6.87Z"/>
    <path class="cls-32" d="M751.04,441.2c2.58-1.37,5.78-.38,7.15,2.2s.38,5.78-2.2,7.15-5.78.38-7.15-2.2c-1.37-2.58-.38-5.78,2.2-7.15Z"/>
    <path class="cls-11" d="M777.82,412.05c2.63-1.39,5.89-.39,7.28,2.24,1.39,2.63.39,5.89-2.24,7.28s-5.89.39-7.28-2.24c-1.39-2.63-.39-5.89,2.24-7.28Z"/>
    <path class="cls-10" d="M779.28,364c2.68-1.42,6-.4,7.42,2.28,1.42,2.68.4,6-2.28,7.42-2.68,1.42-6,.4-7.42-2.28-1.42-2.68-.4-6,2.28-7.42Z"/>
    <path class="cls-1" d="M856.83,284.13c2.78-1.47,6.22-.41,7.7,2.36,1.47,2.78.41,6.22-2.36,7.7-2.78,1.47-6.22.41-7.69-2.36-1.47-2.78-.41-6.22,2.36-7.7Z"/>
    <path class="cls-37" d="M855.75,255.83c2.88-1.52,6.45-.43,7.97,2.45,1.52,2.88.43,6.45-2.45,7.97-2.88,1.52-6.45.43-7.97-2.45-1.53-2.88-.43-6.45,2.45-7.97Z"/>
    <path class="cls-31" d="M893.54,140.44c2.98-1.58,6.67-.44,8.24,2.53,1.58,2.98.44,6.67-2.53,8.25s-6.67.44-8.24-2.53c-1.58-2.98-.44-6.67,2.53-8.24Z"/>
    <path class="cls-31" d="M981.1,89.44c3.08-1.63,6.89-.46,8.52,2.62,1.63,3.08.46,6.89-2.62,8.52-3.08,1.63-6.89.46-8.52-2.62-1.63-3.08-.46-6.89,2.62-8.52Z"/>
    <path class="cls-15" d="M618.27,395.59c2.38-1.26,5.33-.35,6.6,2.03,1.26,2.38.35,5.33-2.03,6.6-2.38,1.26-5.33.35-6.6-2.03-1.26-2.38-.35-5.33,2.03-6.6Z"/>
    <path class="cls-20" d="M720.68,443.6c2.43-1.29,5.45-.36,6.73,2.07,1.29,2.43.36,5.45-2.07,6.73-2.43,1.29-5.45.36-6.73-2.07-1.29-2.43-.36-5.45,2.07-6.73Z"/>
    <path class="cls-30" d="M826.86,453.37c2.48-1.31,5.56-.37,6.87,2.11,1.31,2.48.37,5.56-2.11,6.87-2.48,1.31-5.56.37-6.87-2.11-1.31-2.48-.37-5.56,2.11-6.87Z"/>
    <path class="cls-36" d="M809.16,449.06c2.53-1.34,5.67-.38,7.01,2.15s.38,5.67-2.15,7.01c-2.53,1.34-5.67.38-7.01-2.15-1.34-2.53-.38-5.67,2.15-7.01Z"/>
    <path class="cls-6" d="M942.98,410.24c2.58-1.37,5.78-.38,7.15,2.2,1.37,2.58.38,5.78-2.2,7.15-2.58,1.37-5.78.38-7.15-2.2-1.37-2.58-.38-5.78,2.2-7.15Z"/>
    <path class="cls-10" d="M925.1,330.9c2.68-1.42,6-.4,7.42,2.28,1.42,2.68.4,6-2.28,7.42-2.68,1.42-6,.4-7.42-2.28-1.42-2.68-.4-6,2.28-7.42Z"/>
    <path class="cls-1" d="M902.17,201.44c2.78-1.47,6.22-.41,7.7,2.36,1.47,2.78.41,6.22-2.36,7.7-2.78,1.47-6.22.41-7.69-2.36-1.47-2.78-.41-6.22,2.36-7.7Z"/>
    <path class="cls-24" d="M1014.82,240.56c2.83-1.5,6.33-.42,7.83,2.41,1.5,2.83.42,6.33-2.41,7.83-2.83,1.5-6.33.42-7.83-2.41-1.5-2.83-.42-6.33,2.41-7.83Z"/>
    <path class="cls-31" d="M1089.46,97.24c2.98-1.58,6.67-.44,8.25,2.53,1.58,2.98.44,6.67-2.53,8.24-2.98,1.58-6.67.44-8.25-2.53-1.58-2.98-.44-6.67,2.53-8.24Z"/>
    <path class="cls-31" d="M1084.17,69.67c3.03-1.6,6.78-.45,8.38,2.58,1.6,3.03.45,6.78-2.58,8.38-3.03,1.6-6.78.45-8.38-2.58-1.6-3.03-.45-6.78,2.58-8.38Z"/>
    <path class="cls-31" d="M1233.38,10.39c3.13-1.66,7-.46,8.66,2.66,1.66,3.13.47,7-2.66,8.66-3.13,1.66-7,.47-8.66-2.66s-.47-7,2.66-8.66Z"/>
    <path class="cls-12" d="M716.3,366.31c2.38-1.26,5.33-.35,6.6,2.03,1.26,2.38.35,5.33-2.03,6.6-2.38,1.26-5.33.35-6.6-2.03-1.26-2.38-.35-5.33,2.03-6.6Z"/>
    <path class="cls-16" d="M861.49,416.03c2.43-1.29,5.45-.36,6.73,2.07,1.29,2.43.36,5.45-2.07,6.73-2.43,1.29-5.45.36-6.73-2.07-1.29-2.43-.36-5.45,2.07-6.73Z"/>
    <path class="cls-20" d="M884.28,431.46c2.43-1.29,5.45-.36,6.73,2.07,1.29,2.43.36,5.45-2.07,6.73-2.43,1.29-5.45.36-6.73-2.07-1.29-2.43-.36-5.45,2.07-6.73Z"/>
    <path class="cls-18" d="M926.34,427.46c2.53-1.34,5.67-.38,7.01,2.15,1.34,2.53.38,5.67-2.15,7.01-2.53,1.34-5.67.38-7.01-2.15-1.34-2.53-.38-5.67,2.15-7.01Z"/>
    <path class="cls-6" d="M1044.63,378.23c2.58-1.37,5.78-.38,7.15,2.2,1.37,2.58.38,5.78-2.2,7.15-2.58,1.37-5.78.38-7.15-2.2-1.37-2.58-.38-5.78,2.2-7.15Z"/>
    <path class="cls-26" d="M1039.19,346.26c2.63-1.39,5.89-.39,7.28,2.24,1.39,2.63.39,5.89-2.24,7.28s-5.89.39-7.28-2.24c-1.39-2.63-.39-5.89,2.24-7.28Z"/>
    <path class="cls-33" d="M1092.18,273.89c2.73-1.45,6.11-.41,7.56,2.32,1.45,2.73.41,6.11-2.32,7.56-2.73,1.45-6.11.41-7.56-2.32-1.45-2.73-.41-6.11,2.32-7.56Z"/>
    <path class="cls-22" d="M1197.46,235.47c2.78-1.47,6.22-.41,7.7,2.36,1.47,2.78.41,6.22-2.36,7.7-2.78,1.47-6.22.41-7.7-2.36-1.47-2.78-.41-6.22,2.36-7.7Z"/>
    <path class="cls-28" d="M1241.81,105.55c2.93-1.55,6.56-.44,8.11,2.49,1.55,2.93.44,6.56-2.49,8.11-2.93,1.55-6.56.44-8.11-2.49-1.55-2.93-.44-6.56,2.49-8.11Z"/>
    <path class="cls-31" d="M1268.27,64.73c2.98-1.58,6.67-.44,8.25,2.53,1.58,2.98.44,6.67-2.53,8.24-2.98,1.58-6.67.44-8.25-2.53-1.58-2.98-.44-6.67,2.53-8.24Z"/>
    <path class="cls-31" d="M1346.79,37.27c3.08-1.63,6.89-.46,8.52,2.62,1.63,3.08.46,6.89-2.62,8.52-3.08,1.63-6.89.46-8.52-2.62-1.63-3.08-.46-6.89,2.62-8.52Z"/>
    <path class="cls-21" d="M814.95,345.79c2.33-1.24,5.22-.35,6.46,1.99,1.24,2.33.35,5.22-1.98,6.46-2.33,1.24-5.22.35-6.46-1.98-1.23-2.33-.35-5.22,1.98-6.46Z"/>
    <path class="cls-14" d="M953.32,364.61c2.38-1.26,5.33-.35,6.6,2.03,1.26,2.38.35,5.33-2.03,6.6-2.38,1.26-5.33.35-6.6-2.03-1.26-2.38-.35-5.33,2.03-6.6Z"/>
    <path class="cls-20" d="M1020.83,402.35c2.43-1.29,5.45-.36,6.73,2.07,1.29,2.43.36,5.45-2.07,6.73-2.43,1.29-5.45.36-6.73-2.07-1.29-2.43-.36-5.45,2.07-6.73Z"/>
    <path class="cls-2" d="M1083.16,380.82c2.48-1.31,5.56-.37,6.87,2.11,1.31,2.48.37,5.56-2.11,6.87-2.48,1.31-5.56.37-6.87-2.11-1.31-2.48-.37-5.56,2.11-6.87Z"/>
    <path class="cls-23" d="M1131.88,366.17c2.53-1.34,5.67-.38,7.01,2.15,1.34,2.53.38,5.67-2.15,7.01-2.53,1.34-5.67.38-7.01-2.15-1.34-2.53-.38-5.67,2.15-7.01Z"/>
    <path class="cls-11" d="M1192.26,279.3c2.63-1.39,5.89-.39,7.28,2.24s.39,5.89-2.24,7.28c-2.63,1.39-5.89.39-7.28-2.24-1.39-2.63-.39-5.89,2.24-7.28Z"/>
    <path class="cls-10" d="M1211.73,264.15c2.68-1.42,6-.4,7.42,2.28s.4,6-2.28,7.42c-2.68,1.42-6,.4-7.42-2.28-1.42-2.68-.4-6,2.28-7.42Z"/>
    <path class="cls-1" d="M1309.91,189.11c2.83-1.5,6.33-.42,7.83,2.41,1.5,2.83.42,6.33-2.41,7.83-2.83,1.5-6.33.42-7.83-2.41-1.5-2.83-.42-6.33,2.41-7.83Z"/>
    <path class="cls-24" d="M1347.41,161.53c2.83-1.5,6.33-.42,7.83,2.41,1.5,2.83.42,6.33-2.41,7.83-2.83,1.5-6.33.42-7.83-2.41-1.5-2.83-.42-6.33,2.41-7.83Z"/>
    <path class="cls-31" d="M1462.15,96.71c2.98-1.58,6.67-.44,8.25,2.53,1.58,2.98.44,6.67-2.53,8.25-2.98,1.58-6.67.44-8.25-2.53-1.58-2.98-.44-6.67,2.53-8.25Z"/>
    <path class="cls-31" d="M1544.79,64.88c3.08-1.63,6.89-.46,8.52,2.62,1.63,3.08.46,6.89-2.62,8.52-3.08,1.63-6.89.46-8.52-2.62-1.63-3.08-.46-6.89,2.62-8.52Z"/>
    <path class="cls-21" d="M955.1,309.37c2.33-1.24,5.22-.35,6.46,1.98,1.24,2.33.35,5.22-1.98,6.46-2.33,1.24-5.22.35-6.46-1.98-1.24-2.33-.35-5.22,1.98-6.46Z"/>
    <path class="cls-14" d="M1011.01,316.09c2.38-1.26,5.33-.35,6.6,2.03,1.26,2.38.35,5.33-2.03,6.6-2.38,1.26-5.33.35-6.6-2.03-1.26-2.38-.35-5.33,2.03-6.6Z"/>
    <path class="cls-16" d="M1102.45,306.29c2.43-1.29,5.45-.36,6.73,2.07,1.29,2.43.36,5.45-2.07,6.73-2.43,1.29-5.45.36-6.73-2.07-1.29-2.43-.36-5.45,2.07-6.73Z"/>
    <path class="cls-18" d="M1153.53,308.68c2.53-1.34,5.67-.38,7.01,2.15,1.34,2.53.38,5.67-2.15,7.01-2.53,1.34-5.67.38-7.01-2.15-1.34-2.53-.38-5.67,2.15-7.01Z"/>
    <path class="cls-9" d="M1188.9,262.32c2.53-1.34,5.67-.38,7.01,2.15,1.34,2.53.38,5.67-2.15,7.01-2.53,1.34-5.67.38-7.01-2.15-1.34-2.53-.38-5.67,2.15-7.01Z"/>
    <path class="cls-26" d="M1227.71,216.8c2.63-1.39,5.89-.39,7.28,2.24,1.39,2.63.39,5.89-2.24,7.28s-5.89.39-7.28-2.24c-1.39-2.63-.39-5.89,2.24-7.28Z"/>
    <path class="cls-29" d="M1273.72,120.4c2.73-1.45,6.11-.41,7.56,2.32,1.45,2.73.41,6.11-2.32,7.56-2.73,1.45-6.11.41-7.56-2.32-1.45-2.73-.41-6.11,2.32-7.56Z"/>
    <path class="cls-22" d="M1361.93,73.88c2.78-1.47,6.22-.41,7.69,2.36,1.47,2.78.41,6.22-2.36,7.7-2.78,1.47-6.22.41-7.7-2.36-1.47-2.78-.41-6.22,2.36-7.7Z"/>
    <path class="cls-38" d="M1442.35,80.62c2.88-1.52,6.45-.43,7.97,2.45,1.53,2.88.43,6.45-2.45,7.97-2.88,1.53-6.45.43-7.97-2.45-1.52-2.88-.43-6.45,2.45-7.97Z"/>
    <path class="cls-28" d="M1502.06,63.25c2.93-1.55,6.56-.44,8.11,2.49,1.55,2.93.44,6.56-2.49,8.11-2.93,1.55-6.56.44-8.11-2.49-1.55-2.93-.44-6.56,2.49-8.11Z"/>
    <path class="cls-31" d="M1617.35,42.88c3.03-1.6,6.78-.45,8.38,2.58,1.6,3.03.45,6.78-2.58,8.38-3.03,1.6-6.78.45-8.38-2.58-1.6-3.03-.45-6.78,2.58-8.38Z"/>
  </g>
</svg>