<svg width="1440" height="1578" viewBox="0 0 1440 1578" fill="none" xmlns="http://www.w3.org/2000/svg">
<g opacity="0.7">
<g filter="url(#filter0_f_94_81)">
<path d="M697.885 747.734C651.973 774.241 715.225 969.749 741.732 1015.66C768.239 1061.57 826.946 1077.3 872.857 1050.8C918.769 1024.29 934.499 965.582 907.992 919.67C881.485 873.759 743.796 721.227 697.885 747.734Z" fill="#00FF22"/>
</g>
<g filter="url(#filter1_f_94_81)">
<path d="M725.586 746.321C679.674 719.814 541.985 872.346 515.478 918.258C488.971 964.169 504.702 1022.88 550.613 1049.38C596.525 1075.89 655.231 1060.16 681.738 1014.25C708.246 968.337 771.497 772.828 725.586 746.321Z" fill="#00FF22"/>
</g>
<g filter="url(#filter2_f_94_81)">
<path d="M740.66 769.605C740.66 716.591 539.719 673.615 486.705 673.615C433.691 673.615 390.715 716.591 390.715 769.605C390.715 822.619 433.691 865.595 486.705 865.595C539.719 865.595 740.66 822.619 740.66 769.605Z" fill="#14FFA9"/>
</g>
<g filter="url(#filter3_f_94_81)">
<path d="M638.194 772.431C638.194 859.93 969.974 930.861 1057.51 930.861C1145.04 930.861 1216 859.93 1216 772.431C1216 684.932 1145.04 614 1057.51 614C969.974 614 638.194 684.932 638.194 772.431Z" fill="#056543"/>
</g>
</g>
<defs>
<filter id="filter0_f_94_81" x="167.637" y="230.663" width="1267.23" height="1347.01" filterUnits="userSpaceOnUse" color-interpolation-filters="sRGB">
<feFlood flood-opacity="0" result="BackgroundImageFix"/>
<feBlend mode="normal" in="SourceGraphic" in2="BackgroundImageFix" result="shape"/>
<feGaussianBlur stdDeviation="257" result="effect1_foregroundBlur_94_81"/>
</filter>
<filter id="filter1_f_94_81" x="-11.398" y="229.25" width="1267.23" height="1347.01" filterUnits="userSpaceOnUse" color-interpolation-filters="sRGB">
<feFlood flood-opacity="0" result="BackgroundImageFix"/>
<feBlend mode="normal" in="SourceGraphic" in2="BackgroundImageFix" result="shape"/>
<feGaussianBlur stdDeviation="257" result="effect1_foregroundBlur_94_81"/>
</filter>
<filter id="filter2_f_94_81" x="-123.285" y="159.615" width="1377.95" height="1219.98" filterUnits="userSpaceOnUse" color-interpolation-filters="sRGB">
<feFlood flood-opacity="0" result="BackgroundImageFix"/>
<feBlend mode="normal" in="SourceGraphic" in2="BackgroundImageFix" result="shape"/>
<feGaussianBlur stdDeviation="257" result="effect1_foregroundBlur_94_81"/>
</filter>
<filter id="filter3_f_94_81" x="24.1939" y="0" width="1805.81" height="1544.86" filterUnits="userSpaceOnUse" color-interpolation-filters="sRGB">
<feFlood flood-opacity="0" result="BackgroundImageFix"/>
<feBlend mode="normal" in="SourceGraphic" in2="BackgroundImageFix" result="shape"/>
<feGaussianBlur stdDeviation="307" result="effect1_foregroundBlur_94_81"/>
</filter>
</defs>
</svg>
