<svg width="263" height="168" viewBox="0 0 263 168" fill="none" xmlns="http://www.w3.org/2000/svg">
<path opacity="0.5" d="M196 69.6614C196 59.9964 203.835 52.1614 213.5 52.1614C223.165 52.1614 231 59.9964 231 69.6614V167.161H196V69.6614Z" fill="url(#paint0_linear_64_1094)" fill-opacity="0.1"/>
<path d="M1.32447 77.2462C0.802072 77.067 0.233301 77.3452 0.0540841 77.8676C-0.125133 78.39 0.153071 78.9587 0.675469 79.1379L1.32447 77.2462ZM39.1445 90.3531L39.2442 89.3581L39.1445 90.3531ZM103.926 63.4584L103.777 64.4473L103.926 63.4584ZM153.038 97.3691L153.081 96.3701L153.038 97.3691ZM0.675469 79.1379C6.94296 81.2881 13.0587 83.9516 19.4817 86.3261C25.8359 88.6753 32.3377 90.6767 39.0449 91.3481L39.2442 89.3581C32.7891 88.7119 26.4747 86.7791 20.1752 84.4502C13.9447 82.1468 7.56928 79.3886 1.32447 77.2462L0.675469 79.1379ZM39.0449 91.3481C53.1412 92.7592 62.878 84.7099 72.2256 77.18C81.6698 69.5723 90.7224 62.484 103.777 64.4473L104.074 62.4695C90.0414 60.3591 80.3313 68.0823 70.9709 75.6225C61.5138 83.2406 52.4039 90.6754 39.2442 89.3581L39.0449 91.3481ZM103.777 64.4473C114.859 66.114 121.084 73.9893 127.619 81.9656C134.08 89.8516 140.855 97.8374 152.994 98.3682L153.081 96.3701C141.936 95.8828 135.678 88.6463 129.166 80.6981C122.728 72.84 116.04 64.2691 104.074 62.4695L103.777 64.4473ZM152.994 98.3682C164.37 98.8655 171.907 92.8134 180.364 86.4237C188.852 80.0103 198.458 73.0675 214.207 70.9982L213.947 69.0152C197.656 71.1556 187.701 78.3731 179.158 84.828C170.584 91.3066 163.621 96.8309 153.081 96.3701L152.994 98.3682Z" fill="url(#paint1_linear_64_1094)"/>
<g filter="url(#filter0_d_64_1094)">
<circle cx="213.843" cy="69.7729" r="8.88694" fill="white"/>
<circle cx="213.843" cy="69.7729" r="6.38694" stroke="url(#paint2_linear_64_1094)" stroke-width="5"/>
</g>
<path d="M213.843 85.9094V144.142" stroke="url(#paint3_linear_64_1094)" stroke-dasharray="2 2"/>
<path d="M181 37.1614C181 32.7431 184.582 29.1614 189 29.1614H239C243.418 29.1614 247 32.7431 247 37.1614V41.1614C247 45.5797 243.418 49.1614 239 49.1614H189C184.582 49.1614 181 45.5797 181 41.1614V37.1614Z" fill="#86FE9D" fill-opacity="0.04"/>
<path d="M190.211 40.0862V35.052H191.148V40.0862C191.148 40.5549 191.052 40.9504 190.86 41.2727C190.668 41.595 190.403 41.8407 190.064 42.01C189.729 42.176 189.343 42.259 188.907 42.259C188.471 42.259 188.084 42.1842 187.745 42.0344C187.407 41.8847 187.141 41.6568 186.949 41.3508C186.757 41.0448 186.661 40.6591 186.661 40.1936H187.604C187.604 40.4931 187.659 40.7389 187.77 40.9309C187.88 41.123 188.033 41.2646 188.229 41.3557C188.427 41.4469 188.653 41.4924 188.907 41.4924C189.155 41.4924 189.376 41.4403 189.571 41.3362C189.77 41.2288 189.926 41.0709 190.04 40.8625C190.154 40.651 190.211 40.3922 190.211 40.0862ZM195.724 41.2581V38.5383C195.724 38.33 195.681 38.1493 195.597 37.9963C195.515 37.8401 195.392 37.7196 195.226 37.635C195.06 37.5504 194.854 37.5081 194.61 37.5081C194.382 37.5081 194.182 37.5471 194.01 37.6252C193.84 37.7034 193.707 37.8059 193.609 37.9329C193.515 38.0598 193.468 38.1965 193.468 38.343H192.564C192.564 38.1542 192.613 37.967 192.711 37.7815C192.809 37.5959 192.949 37.4283 193.131 37.2786C193.316 37.1256 193.538 37.0051 193.795 36.9172C194.055 36.8261 194.345 36.7805 194.664 36.7805C195.048 36.7805 195.387 36.8456 195.68 36.9758C195.976 37.106 196.207 37.303 196.373 37.5667C196.542 37.8271 196.627 38.1542 196.627 38.5481V41.009C196.627 41.1848 196.642 41.372 196.671 41.5706C196.703 41.7691 196.751 41.94 196.812 42.0833V42.1614H195.87C195.825 42.0572 195.789 41.9189 195.763 41.7463C195.737 41.5706 195.724 41.4078 195.724 41.2581ZM195.88 38.9583L195.89 39.593H194.977C194.719 39.593 194.49 39.6142 194.288 39.6565C194.086 39.6956 193.917 39.7558 193.78 39.8372C193.644 39.9185 193.539 40.0211 193.468 40.1448C193.396 40.2652 193.36 40.4068 193.36 40.5696C193.36 40.7356 193.398 40.887 193.473 41.0237C193.548 41.1604 193.66 41.2694 193.81 41.3508C193.963 41.429 194.15 41.468 194.371 41.468C194.648 41.468 194.892 41.4094 195.104 41.2922C195.315 41.175 195.483 41.0318 195.606 40.8625C195.733 40.6933 195.802 40.5289 195.812 40.3694L196.197 40.804C196.174 40.9407 196.113 41.092 196.012 41.2581C195.911 41.4241 195.776 41.5836 195.606 41.7366C195.44 41.8863 195.242 42.0116 195.011 42.1125C194.783 42.2102 194.526 42.259 194.239 42.259C193.881 42.259 193.567 42.189 193.297 42.0491C193.03 41.9091 192.822 41.7219 192.672 41.4875C192.525 41.2499 192.452 40.9846 192.452 40.6917C192.452 40.4084 192.507 40.1594 192.618 39.9446C192.729 39.7265 192.888 39.5458 193.097 39.4026C193.305 39.2561 193.556 39.1454 193.849 39.0706C194.142 38.9957 194.469 38.9583 194.83 38.9583H195.88ZM198.951 38.0061V42.1614H198.048V36.8782H198.902L198.951 38.0061ZM198.736 39.3196L198.36 39.3049C198.364 38.9436 198.417 38.6099 198.521 38.304C198.626 37.9947 198.772 37.7262 198.961 37.4983C199.15 37.2704 199.374 37.0946 199.635 36.9709C199.898 36.844 200.19 36.7805 200.509 36.7805C200.769 36.7805 201.004 36.8163 201.212 36.8879C201.42 36.9563 201.598 37.067 201.744 37.22C201.894 37.373 202.008 37.5715 202.086 37.8157C202.164 38.0566 202.203 38.3512 202.203 38.6995V42.1614H201.295V38.6897C201.295 38.413 201.254 38.1917 201.173 38.0256C201.091 37.8564 200.973 37.7343 200.816 37.6594C200.66 37.5813 200.468 37.5422 200.24 37.5422C200.016 37.5422 199.811 37.5894 199.625 37.6838C199.443 37.7782 199.285 37.9084 199.151 38.0745C199.021 38.2405 198.919 38.4309 198.844 38.6458C198.772 38.8573 198.736 39.0819 198.736 39.3196ZM208.927 35.0129V42.1614H208.023V36.1409L206.202 36.8049V35.9895L208.785 35.0129H208.927ZM216.178 35.052V35.5598L213.233 42.1614H212.281L215.221 35.7942H211.373V35.052H216.178ZM224.347 41.4192V42.1614H219.693V41.512L222.022 38.9192C222.309 38.6002 222.53 38.33 222.687 38.1086C222.846 37.884 222.957 37.6838 223.019 37.5081C223.084 37.329 223.116 37.1467 223.116 36.9612C223.116 36.7268 223.067 36.5152 222.97 36.3264C222.875 36.1344 222.735 35.9814 222.55 35.8674C222.364 35.7535 222.14 35.6965 221.876 35.6965C221.56 35.6965 221.297 35.7584 221.085 35.8821C220.877 36.0025 220.72 36.1718 220.616 36.3899C220.512 36.608 220.46 36.8586 220.46 37.1418H219.557C219.557 36.7415 219.645 36.3752 219.82 36.0432C219.996 35.7112 220.257 35.4475 220.602 35.2522C220.947 35.0536 221.371 34.9543 221.876 34.9543C222.325 34.9543 222.709 35.0341 223.028 35.1936C223.347 35.3499 223.591 35.5712 223.761 35.8577C223.933 36.1409 224.02 36.4729 224.02 36.8538C224.02 37.0621 223.984 37.2737 223.912 37.4885C223.844 37.7001 223.748 37.9117 223.624 38.1233C223.504 38.3349 223.362 38.5432 223.199 38.7483C223.04 38.9534 222.869 39.1552 222.687 39.3538L220.782 41.4192H224.347ZM229.776 38.0403V39.1243C229.776 39.7069 229.724 40.1985 229.62 40.5989C229.516 40.9993 229.366 41.3215 229.171 41.5657C228.976 41.8098 228.74 41.9872 228.463 42.0979C228.189 42.2053 227.88 42.259 227.535 42.259C227.262 42.259 227.009 42.2249 226.778 42.1565C226.547 42.0881 226.339 41.9791 226.153 41.8293C225.971 41.6764 225.815 41.4778 225.685 41.2336C225.554 40.9895 225.455 40.6933 225.387 40.345C225.318 39.9967 225.284 39.5898 225.284 39.1243V38.0403C225.284 37.4576 225.336 36.9693 225.44 36.5754C225.548 36.1816 225.699 35.8658 225.895 35.6282C226.09 35.3873 226.324 35.2148 226.598 35.1106C226.874 35.0064 227.184 34.9543 227.525 34.9543C227.802 34.9543 228.056 34.9885 228.287 35.0569C228.521 35.122 228.73 35.2278 228.912 35.3743C229.094 35.5175 229.249 35.7096 229.376 35.9504C229.506 36.1881 229.605 36.4794 229.674 36.8245C229.742 37.1695 229.776 37.5748 229.776 38.0403ZM228.868 39.2708V37.8889C228.868 37.5699 228.849 37.29 228.81 37.0491C228.774 36.8049 228.72 36.5966 228.648 36.4241C228.577 36.2515 228.486 36.1116 228.375 36.0042C228.268 35.8967 228.142 35.8186 227.999 35.7698C227.859 35.7177 227.701 35.6917 227.525 35.6917C227.311 35.6917 227.12 35.7323 226.954 35.8137C226.788 35.8918 226.648 36.0172 226.534 36.1897C226.424 36.3622 226.339 36.5885 226.28 36.8684C226.222 37.1484 226.192 37.4885 226.192 37.8889V39.2708C226.192 39.5898 226.21 39.8713 226.246 40.1155C226.285 40.3596 226.342 40.5712 226.417 40.7502C226.492 40.926 226.583 41.0709 226.69 41.1848C226.798 41.2987 226.922 41.3834 227.062 41.4387C227.205 41.4908 227.363 41.5168 227.535 41.5168C227.757 41.5168 227.95 41.4745 228.116 41.3899C228.282 41.3053 228.421 41.1734 228.531 40.9944C228.645 40.8121 228.73 40.5793 228.785 40.2961C228.84 40.0097 228.868 39.6679 228.868 39.2708ZM235.597 41.4192V42.1614H230.943V41.512L233.272 38.9192C233.559 38.6002 233.78 38.33 233.937 38.1086C234.096 37.884 234.207 37.6838 234.269 37.5081C234.334 37.329 234.366 37.1467 234.366 36.9612C234.366 36.7268 234.317 36.5152 234.22 36.3264C234.125 36.1344 233.985 35.9814 233.8 35.8674C233.614 35.7535 233.39 35.6965 233.126 35.6965C232.81 35.6965 232.547 35.7584 232.335 35.8821C232.127 36.0025 231.97 36.1718 231.866 36.3899C231.762 36.608 231.71 36.8586 231.71 37.1418H230.807C230.807 36.7415 230.895 36.3752 231.07 36.0432C231.246 35.7112 231.507 35.4475 231.852 35.2522C232.197 35.0536 232.621 34.9543 233.126 34.9543C233.575 34.9543 233.959 35.0341 234.278 35.1936C234.597 35.3499 234.841 35.5712 235.011 35.8577C235.183 36.1409 235.27 36.4729 235.27 36.8538C235.27 37.0621 235.234 37.2737 235.162 37.4885C235.094 37.7001 234.998 37.9117 234.874 38.1233C234.754 38.3349 234.612 38.5432 234.449 38.7483C234.29 38.9534 234.119 39.1552 233.937 39.3538L232.032 41.4192H235.597ZM237.706 38.7776L236.983 38.592L237.34 35.052H240.987V35.887H238.106L237.892 37.8206C238.022 37.7457 238.186 37.6757 238.385 37.6106C238.587 37.5455 238.818 37.5129 239.078 37.5129C239.407 37.5129 239.701 37.5699 239.962 37.6838C240.222 37.7945 240.444 37.954 240.626 38.1624C240.812 38.3707 240.953 38.6213 241.051 38.9143C241.148 39.2073 241.197 39.5344 241.197 39.8958C241.197 40.2375 241.15 40.5517 241.056 40.8381C240.965 41.1246 240.826 41.3752 240.641 41.5901C240.455 41.8017 240.221 41.9661 239.938 42.0833C239.658 42.2004 239.327 42.259 238.946 42.259C238.66 42.259 238.388 42.22 238.131 42.1418C237.877 42.0605 237.649 41.9384 237.447 41.7756C237.249 41.6096 237.086 41.4045 236.959 41.1604C236.835 40.913 236.757 40.6233 236.725 40.2913H237.584C237.623 40.5582 237.701 40.7828 237.818 40.9651C237.936 41.1474 238.089 41.2857 238.277 41.3801C238.469 41.4713 238.692 41.5168 238.946 41.5168C239.161 41.5168 239.352 41.4794 239.518 41.4045C239.684 41.3297 239.824 41.2222 239.938 41.0823C240.051 40.9423 240.138 40.773 240.196 40.5745C240.258 40.3759 240.289 40.1529 240.289 39.9055C240.289 39.6809 240.258 39.4726 240.196 39.2805C240.134 39.0885 240.042 38.9208 239.918 38.7776C239.798 38.6344 239.649 38.5237 239.474 38.4456C239.298 38.3642 239.096 38.3235 238.868 38.3235C238.565 38.3235 238.336 38.3642 238.18 38.4456C238.027 38.5269 237.869 38.6376 237.706 38.7776Z" fill="#86FE9D"/>
<defs>
<filter id="filter0_d_64_1094" x="179.956" y="40.886" width="67.7739" height="67.7739" filterUnits="userSpaceOnUse" color-interpolation-filters="sRGB">
<feFlood flood-opacity="0" result="BackgroundImageFix"/>
<feColorMatrix in="SourceAlpha" type="matrix" values="0 0 0 0 0 0 0 0 0 0 0 0 0 0 0 0 0 0 127 0" result="hardAlpha"/>
<feOffset dy="5"/>
<feGaussianBlur stdDeviation="12.5"/>
<feColorMatrix type="matrix" values="0 0 0 0 0 0 0 0 0 0 0 0 0 0 0 0 0 0 0.1 0"/>
<feBlend mode="normal" in2="BackgroundImageFix" result="effect1_dropShadow_64_1094"/>
<feBlend mode="normal" in="SourceGraphic" in2="effect1_dropShadow_64_1094" result="shape"/>
</filter>
<linearGradient id="paint0_linear_64_1094" x1="213.5" y1="45.647" x2="213.5" y2="167.161" gradientUnits="userSpaceOnUse">
<stop offset="0.0104167" stop-color="#86FE9D" stop-opacity="0"/>
<stop offset="0.28125" stop-color="#86FE9D"/>
<stop offset="0.666667" stop-color="#4BAE5E"/>
<stop offset="0.984375" stop-color="#4BAE5E" stop-opacity="0"/>
</linearGradient>
<linearGradient id="paint1_linear_64_1094" x1="107.538" y1="63.1162" x2="107.538" y2="97.3969" gradientUnits="userSpaceOnUse">
<stop stop-color="#99FFA3"/>
<stop offset="1" stop-color="#68EE76"/>
</linearGradient>
<linearGradient id="paint2_linear_64_1094" x1="213.843" y1="60.886" x2="213.843" y2="78.6599" gradientUnits="userSpaceOnUse">
<stop stop-color="#99FFA3"/>
<stop offset="1" stop-color="#68EE76"/>
</linearGradient>
<linearGradient id="paint3_linear_64_1094" x1="214.343" y1="85.9094" x2="214.343" y2="144.142" gradientUnits="userSpaceOnUse">
<stop stop-color="white" stop-opacity="0"/>
<stop offset="0.510417" stop-color="white"/>
<stop offset="1" stop-color="white" stop-opacity="0"/>
</linearGradient>
</defs>
</svg>
