<svg width="500" height="200" viewBox="0 0 116 28" fill="none" xmlns="http://www.w3.org/2000/svg">
<g clip-path="url(#clip0_1_24)">
<path d="M12.0491 1.09013C12.4687 1.48104 11.3892 1.47186 11.199 1.53671C10.5512 1.75571 9.92425 2.47268 9.84311 3.1401L9.83994 15.2338C9.79176 15.8498 9.39558 15.4675 9.11413 15.2313C8.86438 15.0221 8.64188 14.7505 8.3953 14.5327C7.24034 13.5111 6.0987 12.4907 4.94311 11.4679C4.84359 11.4483 4.15201 12.0655 4.02333 12.1799C3.89465 12.2943 3.75265 12.4393 3.60686 12.5696C2.51783 13.5429 1.45035 14.5419 0.365123 15.5201C0.258629 15.6223 0.128047 15.555 0.0107762 15.5066L0 2.87766C0.0805046 2.03161 0.70489 1.38683 1.50867 1.10481C4.88923 0.893756 8.31289 1.07973 11.708 1.00877C11.8114 1.01549 11.9749 1.02039 12.0497 1.09013H12.0491Z" fill="url(#paint0_linear_1_24)"/>
<path d="M7.97249 26.9223C7.54841 26.5363 8.6273 26.5333 8.81684 26.4666C9.46214 26.2402 10.0802 25.5171 10.1537 24.8485L10.013 12.756C10.0542 12.1394 10.4548 12.5174 10.7388 12.7505C10.9911 12.9573 11.2168 13.2265 11.4659 13.4412C12.6329 14.45 13.7866 15.4581 14.9542 16.4675C15.0544 16.4865 15.7383 15.8607 15.8651 15.7456C15.9925 15.63 16.1326 15.4838 16.2765 15.3517C17.3535 14.3662 18.4096 13.3555 19.4827 12.3657C19.588 12.2623 19.7192 12.3284 19.8371 12.3755L19.9987 25.0027C19.9284 25.8493 19.3116 26.5008 18.5116 26.792C15.1336 27.0404 11.7087 26.8924 8.31416 27.0006C8.21083 26.9945 8.04729 26.9921 7.97186 26.9229L7.97249 26.9223Z" fill="url(#paint1_linear_1_24)"/>
</g>
<path d="M48.7695 19.4688V22L36.793 22V19.4688L48.7695 19.4688ZM48.5469 6.82422L38.1172 22L35.9023 22V20.0664L46.3789 4.9375L48.5469 4.9375V6.82422ZM47.3984 4.9375V7.48047L35.9375 7.48047V4.9375L47.3984 4.9375ZM56.3633 22.2344C55.4023 22.2344 54.5391 22.0781 53.7734 21.7656C53.0078 21.4531 52.3555 21.0195 51.8164 20.4648C51.2852 19.9023 50.875 19.25 50.5859 18.5078C50.3047 17.7578 50.1641 16.9531 50.1641 16.0938V15.625C50.1641 14.6484 50.3047 13.7617 50.5859 12.9648C50.8672 12.1602 51.2656 11.4688 51.7812 10.8906C52.2969 10.3125 52.9141 9.86719 53.6328 9.55469C54.3516 9.24219 55.1445 9.08594 56.0117 9.08594C56.9102 9.08594 57.7031 9.23828 58.3906 9.54297C59.0781 9.83984 59.6523 10.2617 60.1133 10.8086C60.5742 11.3555 60.9219 12.0117 61.1562 12.7773C61.3906 13.5352 61.5078 14.375 61.5078 15.2969V16.5977L51.5703 16.5977V14.4648L58.4609 14.4648V14.2305C58.4453 13.7383 58.3516 13.2891 58.1797 12.8828C58.0078 12.4688 57.7422 12.1406 57.3828 11.8984C57.0234 11.6484 56.5586 11.5234 55.9883 11.5234C55.5273 11.5234 55.125 11.625 54.7812 11.8281C54.4453 12.0234 54.1641 12.3047 53.9375 12.6719C53.7188 13.0313 53.5547 13.4609 53.4453 13.9609C53.3359 14.4609 53.2812 15.0156 53.2812 15.625V16.0938C53.2812 16.625 53.3516 17.1172 53.4922 17.5703C53.6406 18.0234 53.8555 18.418 54.1367 18.7539C54.4258 19.082 54.7695 19.3398 55.168 19.5273C55.5742 19.707 56.0352 19.7969 56.5508 19.7969C57.1992 19.7969 57.7852 19.6719 58.3086 19.4219C58.8398 19.1641 59.3008 18.7852 59.6914 18.2852L61.25 19.9023C60.9844 20.293 60.625 20.668 60.1719 21.0273C59.7266 21.3867 59.1875 21.6797 58.5547 21.9063C57.9219 22.125 57.1914 22.2344 56.3633 22.2344ZM66.6172 12.0273V22H63.5234V9.32031L66.4297 9.32031L66.6172 12.0273ZM66.125 15.2031L65.2109 15.2031C65.2188 14.2813 65.3438 13.4453 65.5859 12.6953C65.8281 11.9453 66.168 11.3008 66.6055 10.7617C67.0508 10.2227 67.5781 9.80859 68.1875 9.51953C68.7969 9.23047 69.4766 9.08594 70.2266 9.08594C70.8359 9.08594 71.3867 9.17188 71.8789 9.34375C72.3711 9.51563 72.793 9.78906 73.1445 10.1641C73.5039 10.5391 73.7773 11.0313 73.9648 11.6406C74.1602 12.2422 74.2578 12.9844 74.2578 13.8672V22H71.1406V13.8438C71.1406 13.2656 71.0547 12.8086 70.8828 12.4727C70.7188 12.1367 70.4766 11.8984 70.1562 11.7578C69.8438 11.6172 69.457 11.5469 68.9961 11.5469C68.5195 11.5469 68.1016 11.6445 67.7422 11.8398C67.3906 12.0273 67.0938 12.2891 66.8516 12.625C66.6172 12.9609 66.4375 13.3477 66.3125 13.7852C66.1875 14.2227 66.125 14.6953 66.125 15.2031ZM80.2695 9.32031V22L77.1641 22V9.32031L80.2695 9.32031ZM76.9531 6.00391C76.9531 5.54297 77.1094 5.16016 77.4219 4.85547C77.7422 4.55078 78.1719 4.39844 78.7109 4.39844C79.25 4.39844 79.6758 4.55078 79.9883 4.85547C80.3086 5.16016 80.4688 5.54297 80.4688 6.00391C80.4688 6.45703 80.3086 6.83594 79.9883 7.14063C79.6758 7.44531 79.25 7.59766 78.7109 7.59766C78.1719 7.59766 77.7422 7.44531 77.4219 7.14063C77.1094 6.83594 76.9531 6.45703 76.9531 6.00391ZM90.207 19.3047V13.457C90.207 13.0273 90.1328 12.6563 89.9844 12.3438C89.8359 12.0313 89.6094 11.7891 89.3047 11.6172C89 11.4453 88.6133 11.3594 88.1445 11.3594C87.7305 11.3594 87.3672 11.4297 87.0547 11.5703C86.75 11.7109 86.5156 11.9102 86.3516 12.168C86.1875 12.418 86.1055 12.707 86.1055 13.0352L83 13.0352C83 12.5117 83.125 12.0156 83.375 11.5469C83.625 11.0703 83.9805 10.6484 84.4414 10.2813C84.9102 9.90625 85.4688 9.61328 86.1172 9.40234C86.7734 9.19141 87.5078 9.08594 88.3203 9.08594C89.2812 9.08594 90.1367 9.25 90.8867 9.57813C91.6445 9.89844 92.2383 10.3828 92.668 11.0313C93.1055 11.6797 93.3242 12.4961 93.3242 13.4805V19.0117C93.3242 19.6445 93.3633 20.1875 93.4414 20.6406C93.5273 21.0859 93.6523 21.4727 93.8164 21.8008V22L90.6641 22C90.5156 21.6797 90.4023 21.2734 90.3242 20.7813C90.2461 20.2813 90.207 19.7891 90.207 19.3047ZM90.6406 14.2773L90.6641 16.1172L88.707 16.1172C88.2227 16.1172 87.7969 16.168 87.4297 16.2695C87.0625 16.3633 86.7617 16.5039 86.5273 16.6914C86.293 16.8711 86.1172 17.0898 86 17.3477C85.8828 17.5977 85.8242 17.8828 85.8242 18.2031C85.8242 18.5156 85.8945 18.7969 86.0352 19.0469C86.1836 19.2969 86.3945 19.4961 86.668 19.6445C86.9492 19.7852 87.2773 19.8555 87.6523 19.8555C88.1992 19.8555 88.6758 19.7461 89.082 19.5273C89.4883 19.3008 89.8047 19.0273 90.0312 18.707C90.2578 18.3867 90.3789 18.082 90.3945 17.793L91.2852 19.1289C91.1758 19.4492 91.0117 19.7891 90.793 20.1484C90.5742 20.5078 90.293 20.8438 89.9492 21.1563C89.6055 21.4688 89.1914 21.7266 88.707 21.9297C88.2227 22.1328 87.6602 22.2344 87.0195 22.2344C86.1992 22.2344 85.4648 22.0703 84.8164 21.7422C84.168 21.4141 83.6562 20.9648 83.2812 20.3945C82.9062 19.8242 82.7188 19.1758 82.7188 18.4492C82.7188 17.7773 82.8438 17.1836 83.0938 16.668C83.3438 16.1523 83.7148 15.7188 84.207 15.3672C84.6992 15.0078 85.3086 14.7383 86.0352 14.5586C86.7695 14.3711 87.6094 14.2773 88.5547 14.2773L90.6406 14.2773ZM99.207 11.9102V22L96.1133 22V9.32031L99.043 9.32031L99.207 11.9102ZM103.062 9.23828L103.016 12.1211C102.844 12.0898 102.648 12.0664 102.43 12.0508C102.219 12.0352 102.02 12.0273 101.832 12.0273C101.355 12.0273 100.938 12.0938 100.578 12.2266C100.219 12.3516 99.918 12.5352 99.6758 12.7773C99.4414 13.0195 99.2617 13.3164 99.1367 13.668C99.0117 14.0117 98.9414 14.4023 98.9258 14.8398L98.2578 14.7578C98.2578 13.9531 98.3398 13.207 98.5039 12.5195C98.668 11.832 98.9062 11.2305 99.2188 10.7148C99.5312 10.1992 99.9219 9.80078 100.391 9.51953C100.867 9.23047 101.414 9.08594 102.031 9.08594C102.203 9.08594 102.387 9.10156 102.582 9.13281C102.785 9.15625 102.945 9.19141 103.062 9.23828ZM108.688 20.5938L112.086 9.32031L115.402 9.32031L110.316 23.9219C110.199 24.2344 110.047 24.5742 109.859 24.9414C109.68 25.3086 109.438 25.6563 109.133 25.9844C108.828 26.3203 108.445 26.5938 107.984 26.8047C107.531 27.0156 106.98 27.1211 106.332 27.1211C106.051 27.1211 105.801 27.1016 105.582 27.0625C105.363 27.0234 105.133 26.9727 104.891 26.9102V24.5898C104.969 24.5977 105.059 24.6016 105.16 24.6016C105.27 24.6094 105.363 24.6133 105.441 24.6133C105.895 24.6133 106.27 24.5586 106.566 24.4492C106.863 24.3477 107.102 24.1797 107.281 23.9453C107.469 23.7188 107.625 23.4219 107.75 23.0547L108.688 20.5938ZM107.012 9.32031L109.883 18.6602L110.387 21.9297L108.254 22.3164L103.672 9.32031L107.012 9.32031Z" fill="white"/>
<defs>
<linearGradient id="paint0_linear_1_24" x1="12.5467" y1="16.6378" x2="2.77198" y2="3.19623" gradientUnits="userSpaceOnUse">
<stop/>
<stop offset="0.09" stop-color="#0D1E10"/>
<stop offset="0.25" stop-color="#214D2A"/>
<stop offset="0.41" stop-color="#32743F"/>
<stop offset="0.56" stop-color="#3F924F"/>
<stop offset="0.72" stop-color="#49A85B"/>
<stop offset="0.86" stop-color="#4FB562"/>
<stop offset="1" stop-color="#51BA65"/>
</linearGradient>
<linearGradient id="paint1_linear_1_24" x1="8.2064" y1="12.3559" x2="17.6754" y2="25.3765" gradientUnits="userSpaceOnUse">
<stop/>
<stop offset="0.08" stop-color="#102413"/>
<stop offset="0.17" stop-color="#214C29"/>
<stop offset="0.28" stop-color="#306E3B"/>
<stop offset="0.38" stop-color="#3C894A"/>
<stop offset="0.5" stop-color="#459F56"/>
<stop offset="0.63" stop-color="#4BAE5E"/>
<stop offset="0.78" stop-color="#4FB763"/>
<stop offset="1" stop-color="#51BA65"/>
</linearGradient>
<clipPath id="clip0_1_24">
<rect width="20" height="26" fill="white" transform="translate(0 1)"/>
</clipPath>
</defs>
</svg>
