<svg width="1643" height="135" viewBox="0 0 1643 135" fill="none" xmlns="http://www.w3.org/2000/svg">
<g clip-path="url(#clip0_45_32)">
<path d="M1629.68 28.5124C1620.44 27.997 1612.33 25.2731 1603.97 23.2853C1581.62 17.953 1559.27 12.747 1535.56 10.0125C1526.36 8.95022 1517.1 9.12901 1507.83 8.80297C1481.85 7.88797 1457.87 12.5682 1434.38 18.3947C1423 21.2134 1411.29 23.6534 1400.77 27.7131C1383.61 34.3495 1368.29 42.3742 1353.06 50.504C1343.86 55.4156 1334.84 60.4429 1324.73 64.6814C1313.62 69.33 1301.36 71.7595 1287.98 72.6324C1282.5 72.99 1279.2 70.7919 1275.16 69.656C1261.53 65.8172 1253.03 58.371 1243.47 51.703C1226.07 39.5766 1209.81 26.8717 1193.46 14.2404C1179.39 3.37605 1152.87 1.66173 1133.21 6.87831C1119.91 10.4226 1109.04 16.0704 1098.49 21.876C1064.48 40.5862 1026.74 55.5418 984.411 66.4062C971.912 69.614 959.687 72.643 946.277 74.189C927.365 76.3766 910.963 73.4843 895.971 66.6165C881.804 60.1274 870.766 51.8187 859.866 43.4364C845.854 32.6562 831.446 22.0232 815.199 12.5156C802.253 4.94313 786.143 0.546896 767.678 1.0938C757.139 1.40931 747.356 4.14381 737.367 6.10003C714.105 10.654 693.336 18.4368 671.553 24.9049C651.54 30.8577 634.622 39.3873 617.429 47.7485C605.945 53.3437 594.907 59.2439 582.7 64.3238C555.845 75.4931 525.792 72.2328 503.303 61.5157C486.936 53.7118 471.875 44.9194 454.957 37.5467C437.833 30.09 419.505 24.4001 398.255 22.5175C385.515 21.3922 372.81 21.7708 360.224 22.3598C348.396 22.9172 336.55 23.1696 324.738 23.6639C312.325 24.1898 299.74 24.9996 287.378 23.6955C273.469 22.2336 259.474 21.1292 245.445 20.7506C224.968 20.1932 204.285 18.4158 184.187 22.9592C163.899 27.5343 145.331 33.8657 128.069 41.8168C112.08 49.1789 96.641 57.0037 79.1558 63.1143C58.9199 70.1819 37.2569 73.8209 14.0121 74.1049C11.416 74.1364 8.26973 73.4318 6.9115 75.6614" stroke="#FFC107" stroke-width="2" stroke-linecap="round" stroke-linejoin="round"/>
<path d="M1.87405 77.6597C1.08317 79.2478 3.61052 80.1102 5.62209 80.3416C35.5548 83.6546 57.9915 95.171 80.9783 105.983C96.6754 113.366 111.599 121.475 128.843 127.438C151.933 135.431 175.247 135.347 197.735 125.976C215.977 118.372 232.55 109.464 249.898 101.176C273.212 90.0491 299.156 81.8246 325.994 74.4519C339.799 70.6552 353.365 66.6481 367.875 63.7664C392.169 58.9284 412.886 62.01 431.111 72.5273C448.355 82.4661 462.505 94.0351 477.566 105.131C486.781 111.925 495.635 119.003 506.656 124.725C527.872 135.736 537.466 135.389 559.369 127.88C572.78 123.284 584.299 116.931 595.371 110.547C620.524 96.0439 649.683 85.4741 680.613 76.4397C696.62 71.7595 712.54 67.1214 729.544 63.7348C755.419 58.5708 776.584 63.0932 795.341 73.7578C814.27 84.517 829.194 97.4217 845.665 109.485C855.327 116.563 865.11 123.61 877.334 129.079C891.157 135.263 905.96 135.326 921.124 130.709C939.572 125.093 954.719 116.816 969.401 108.255C981.247 101.345 993.557 94.7819 1008.24 90.3225C1019.91 86.7677 1032.33 84.517 1045.53 83.4021C1066.08 81.6668 1086.5 83.0025 1106.79 83.7597C1139.87 85.0113 1170.92 91.206 1200.42 100.693C1219.49 106.824 1240.14 109.937 1262.18 110.526C1278.17 110.957 1289.77 106.603 1301.48 101.566C1321.29 93.0465 1339.53 83.2339 1359.59 74.9147C1374.5 68.7305 1390.83 64.1239 1408.61 62.5253C1418.87 61.5998 1429.57 60.5901 1440.16 61.9048C1445.06 62.5148 1450.04 62.2098 1454.98 62.3255C1466.89 62.5989 1478.65 63.7348 1490.46 64.5131C1497.05 64.9443 1503.76 65.4176 1510.43 65.4176C1527.19 65.4176 1543.95 65.2703 1560.71 65.2072C1578.97 65.1441 1597.25 65.4596 1615.51 65.4491C1622.83 65.4491 1630.21 65.7962 1637.43 64.6708" stroke="#1E88E5" stroke-width="2" stroke-linecap="round" stroke-linejoin="round"/>
<path d="M1641.28 41.8694C1621.25 39.1559 1600.81 37.8938 1580.69 35.5274C1564.05 33.5712 1547.17 32.5826 1530.39 32.6457C1514.5 32.7088 1498.55 33.3924 1482.64 34.644C1464.33 36.0954 1446.37 38.3461 1428.5 41.0595C1408.61 44.0885 1391.42 50.2622 1375.69 58.0029C1358.8 66.3221 1342.61 75.1987 1324.64 82.6659C1301.89 92.1315 1273.18 94.54 1247.2 80.4468C1230.58 71.4335 1213.66 62.5884 1196.28 54.122C1176.8 44.6354 1154.6 42.3321 1129.93 45.603C1108.75 48.4111 1089.46 53.7644 1070.05 59.1703C1057.62 62.6305 1045.03 65.8698 1032.62 69.3405C1013.31 74.7359 996.36 82.424 979.201 89.8598C966.702 95.2867 954.031 100.198 938.506 101.587C937.13 101.713 935.617 102.144 934.741 102.481C927.451 105.268 920.058 104.006 913.439 102.26C899.083 98.484 886.893 93.036 876.302 85.6318C861.069 74.9778 847.074 63.7138 831.635 53.1649C819.497 44.8773 806.534 37.7992 789.702 33.0348C775.208 28.9436 761.712 29.5536 747.665 32.814C722.34 38.6826 698.27 46.2025 674.183 53.6698C654.893 59.6436 637.683 67.4474 621.212 75.9875C605.532 84.1278 590.695 93.1938 571.576 98.3472C548.435 104.584 528.955 103.974 509.201 92.4891C489.188 80.857 470.001 68.699 450.418 56.7934C432.589 45.9606 411.029 40.9649 385.962 41.9114C377.417 42.2375 369.062 43.5837 360.809 45.0035C337.031 49.0947 312.841 52.3025 289.27 56.8355C270.289 60.485 250.826 63.3141 232.533 68.2257C221.014 71.3178 209.581 74.2521 197.082 75.7561C183.138 77.4388 169.384 79.5844 155.148 80.4468C140.552 81.3302 125.92 82.3504 111.306 81.8351C93.0305 81.1935 74.7373 80.857 56.4613 79.7316C42.5179 78.8692 28.5917 77.7438 14.5795 77.218C12.0866 77.1233 9.8687 76.3871 7.47889 76.0611C5.0547 75.735 2.52736 76.1768 1.82245 77.6281" stroke="#607D8B" stroke-width="2" stroke-linecap="round" stroke-linejoin="round"/>
</g>
<defs>
<clipPath id="clip0_45_32">
<rect width="1643" height="135" fill="white"/>
</clipPath>
</defs>
</svg>
