<?xml version="1.0" encoding="UTF-8"?>
<svg width="1200" height="600" viewBox="0 0 1200 600" xmlns="http://www.w3.org/2000/svg" xmlns:xlink="http://www.w3.org/1999/xlink">
  <!-- Background with gradient -->
  <rect width="1200" height="600" fill="url(#paint0_linear)" />
  
  <!-- Decorative elements -->
  <circle cx="150" cy="120" r="60" fill="#4CAF50" fill-opacity="0.2" />
  <circle cx="1050" cy="480" r="80" fill="#4CAF50" fill-opacity="0.2" />
  
  <!-- Zeniary Logo (centered and scaled) -->
  <g transform="translate(500, 80) scale(0.55)">
    <path fill="url(#linear-gradient)" d="M190.08,1.47c6.62,6.39-10.41,6.24-13.41,7.3-10.22,3.58-20.11,15.3-21.39,26.21l-.05,197.69c-.76,10.07-7.01,3.82-11.45-.04-3.94-3.42-7.45-7.86-11.34-11.42-18.22-16.7-36.23-33.38-54.46-50.1-1.57-.32-12.48,9.77-14.51,11.64s-4.27,4.24-6.57,6.37c-17.18,15.91-34.02,32.24-51.14,48.23-1.68,1.67-3.74.57-5.59-.22L0,30.69C1.27,16.86,11.12,6.32,23.8,1.71c53.33-3.45,107.34-.41,160.9-1.57,1.63.11,4.21.19,5.39,1.33Z"/>
    <path fill="url(#linear-gradient-2)" d="M125.77,423.74c-6.69-6.31,10.33-6.36,13.32-7.45,10.18-3.7,19.93-15.52,21.09-26.45l-2.22-197.67c.65-10.08,6.97-3.9,11.45-.09,3.98,3.38,7.54,7.78,11.47,11.29,18.41,16.49,36.61,32.97,55.03,49.47,1.58.31,12.37-9.92,14.37-11.8,2.01-1.89,4.22-4.28,6.49-6.44,16.99-16.11,33.65-32.63,50.58-48.81,1.66-1.69,3.73-.61,5.59.16l2.55,206.41c-1.11,13.84-10.84,24.49-23.46,29.25-53.29,4.06-107.32,1.64-160.87,3.41-1.63-.1-4.21-.14-5.4-1.27Z"/>
  </g>
  
  <!-- Text container -->
  <g filter="url(#drop_shadow)">
    <!-- Title -->
    <text x="600" y="330" font-family="Arial, sans-serif" font-weight="bold" font-size="64" text-anchor="middle" fill="white">Zeniary</text>
    
    <!-- Tagline -->
    <text x="600" y="400" font-family="Arial, sans-serif" font-weight="normal" font-size="32" text-anchor="middle" fill="white">Privacy-First Journaling with AI Insights</text>
    
    <!-- Features -->
    <text x="600" y="480" font-family="Arial, sans-serif" font-weight="normal" font-size="24" text-anchor="middle" fill="#E0E0E0">
      <tspan x="600" dy="0">Voice & Text Journaling</tspan>
      <tspan x="600" dy="36">Emotional Wellness • Productivity • Privacy</tspan>
    </text>
  </g>
  
  <!-- Definitions -->
  <defs>
    <!-- Background gradient -->
    <linearGradient id="paint0_linear" x1="0" y1="0" x2="1200" y2="600" gradientUnits="userSpaceOnUse">
      <stop offset="0" stop-color="#1A1A1A" />
      <stop offset="1" stop-color="#333333" />
    </linearGradient>
    
    <!-- Logo gradients -->
    <linearGradient id="linear-gradient" x1="197.93" y1="255.62" x2="36.48" y2="41.36" gradientUnits="userSpaceOnUse">
      <stop offset="0" stop-color="#000"/>
      <stop offset=".09" stop-color="#0d1e10"/>
      <stop offset=".25" stop-color="#214d2a"/>
      <stop offset=".41" stop-color="#32743f"/>
      <stop offset=".56" stop-color="#3f924f"/>
      <stop offset=".72" stop-color="#49a85b"/>
      <stop offset=".86" stop-color="#4fb562"/>
      <stop offset="1" stop-color="#51ba65"/>
    </linearGradient>
    <linearGradient id="linear-gradient-2" x1="129.46" y1="185.63" x2="285.86" y2="393.18" gradientUnits="userSpaceOnUse">
      <stop offset="0" stop-color="#000"/>
      <stop offset=".08" stop-color="#102413"/>
      <stop offset=".17" stop-color="#214c29"/>
      <stop offset=".28" stop-color="#306e3b"/>
      <stop offset=".38" stop-color="#3c894a"/>
      <stop offset=".5" stop-color="#459f56"/>
      <stop offset=".63" stop-color="#4bae5e"/>
      <stop offset=".78" stop-color="#4fb763"/>
      <stop offset="1" stop-color="#51ba65"/>
    </linearGradient>
    
    <!-- Drop shadow for text -->
    <filter id="drop_shadow" x="-50" y="-50" width="1300" height="700" filterUnits="userSpaceOnUse">
      <feDropShadow dx="0" dy="4" stdDeviation="4" flood-opacity="0.3" />
    </filter>
  </defs>
</svg> 